<?xml version="1.0" encoding="UTF-8" standalone="no"?>
<!DOCTYPE svg PUBLIC "-//W3C//DTD SVG 1.1//EN"
 "http://www.w3.org/Graphics/SVG/1.1/DTD/svg11.dtd">
<!-- Generated by graphviz version 2.43.0 (0)
 -->
<!-- Title: ActParser.H Pages: 1 -->
<!--zoomable 252 -->
<svg id="main" version="1.1" xmlns="http://www.w3.org/2000/svg" xmlns:xlink="http://www.w3.org/1999/xlink" xml:space="preserve" onload="init(evt)">
<style type="text/css"><![CDATA[
.edge:hover path { stroke: red; }
.edge:hover polygon { stroke: red; fill: red; }
]]></style>
<script type="text/javascript"><![CDATA[
var edges = document.getElementsByTagName('g');
if (edges && edges.length) {
  for (var i=0;i<edges.length;i++) {
    if (edges[i].id.substr(0,4)=='edge') {
      edges[i].setAttribute('class','edge');
    }
  }
}
]]></script>
        <defs>
                <circle id="rim" cx="0" cy="0" r="7"/>
                <circle id="rim2" cx="0" cy="0" r="3.5"/>
                <g id="zoomPlus">
                        <use xlink:href="#rim" fill="#404040">
                                <set attributeName="fill" to="#808080" begin="zoomplus.mouseover" end="zoomplus.mouseout"/>
                        </use>
                        <path d="M-4,0h8M0,-4v8" fill="none" stroke="white" stroke-width="1.5" pointer-events="none"/>
                </g>
                <g id="zoomMin">
                        <use xlink:href="#rim" fill="#404040">
                                <set attributeName="fill" to="#808080" begin="zoomminus.mouseover" end="zoomminus.mouseout"/>
                        </use>
                        <path d="M-4,0h8" fill="none" stroke="white" stroke-width="1.5" pointer-events="none"/>
                </g>
                <g id="dirArrow">
                        <path fill="none" stroke="white" stroke-width="1.5" d="M0,-3.0v7 M-2.5,-0.5L0,-3.0L2.5,-0.5"/>
                </g>
               <g id="resetDef">
                       <use xlink:href="#rim2" fill="#404040">
                               <set attributeName="fill" to="#808080" begin="reset.mouseover" end="reset.mouseout"/>
                       </use>
               </g>
        </defs>

<script type="text/javascript">
var viewWidth = 1071;
var viewHeight = 252;
var sectionId = 'dynsection-1';
</script>
<script xlink:href="svgpan.js"/>
<svg id="graph" class="graph">
<g id="viewport">
<title>ActParser.H</title>
<polygon fill="white" stroke="transparent" points="-4,4 -4,-248 1066.66,-248 1066.66,4 -4,4"/>
<!-- Node1 -->
<g id="node1" class="node">
<title>Node1</title>
<g id="a_node1"><a xlink:title=" ">
<polygon fill="#bfbfbf" stroke="black" points="607.5,-224.5 607.5,-243.5 679.5,-243.5 679.5,-224.5 607.5,-224.5"/>
<text text-anchor="middle" x="643.5" y="-231.5" font-family="Helvetica,sans-Serif" font-size="10.00">ActParser.H</text>
</a>
</g>
</g>
<!-- Node2 -->
<g id="node2" class="node">
<title>Node2</title>
<g id="a_node2"><a xlink:href="actuator__ops_8_h.html" target="_top" xlink:title=" ">
<polygon fill="white" stroke="black" points="410.5,-168.5 410.5,-187.5 500.5,-187.5 500.5,-168.5 410.5,-168.5"/>
<text text-anchor="middle" x="455.5" y="-175.5" font-family="Helvetica,sans-Serif" font-size="10.00">actuator_ops.H</text>
</a>
</g>
</g>
<!-- Node1&#45;&gt;Node2 -->
<g id="edge1" class="edge">
<title>Node1&#45;&gt;Node2</title>
<path fill="none" stroke="midnightblue" d="M603.7,-221.57C568.23,-211.38 517.13,-196.7 485.15,-187.52"/>
<polygon fill="midnightblue" stroke="midnightblue" points="603.13,-225.05 613.71,-224.44 605.07,-218.32 603.13,-225.05"/>
</g>
<!-- Node4 -->
<g id="node4" class="node">
<title>Node4</title>
<g id="a_node4"><a xlink:href="_actuator_model_8_h.html" target="_top" xlink:title=" ">
<polygon fill="white" stroke="black" points="672.5,-56.5 672.5,-75.5 770.5,-75.5 770.5,-56.5 672.5,-56.5"/>
<text text-anchor="middle" x="721.5" y="-63.5" font-family="Helvetica,sans-Serif" font-size="10.00">ActuatorModel.H</text>
</a>
</g>
</g>
<!-- Node1&#45;&gt;Node4 -->
<g id="edge32" class="edge">
<title>Node1&#45;&gt;Node4</title>
<path fill="none" stroke="midnightblue" d="M673.46,-220.08C705.44,-204.45 754.36,-174.79 775.5,-132 786.81,-109.11 757.8,-87.31 738.05,-75.69"/>
<polygon fill="midnightblue" stroke="midnightblue" points="671.68,-217.05 664.13,-224.48 674.66,-223.38 671.68,-217.05"/>
</g>
<!-- Node5 -->
<g id="node5" class="node">
<title>Node5</title>
<g id="a_node5"><a xlink:href="_actuator_8cpp.html" target="_top" xlink:title=" ">
<polygon fill="white" stroke="black" points="952,-0.5 952,-19.5 1029,-19.5 1029,-0.5 952,-0.5"/>
<text text-anchor="middle" x="990.5" y="-7.5" font-family="Helvetica,sans-Serif" font-size="10.00">Actuator.cpp</text>
</a>
</g>
</g>
<!-- Node1&#45;&gt;Node5 -->
<g id="edge33" class="edge">
<title>Node1&#45;&gt;Node5</title>
<path fill="none" stroke="midnightblue" d="M689.8,-229.34C788.86,-220.38 1015.58,-193.43 1055.5,-132 1081.62,-91.81 1026.65,-40.14 1001.83,-19.79"/>
<polygon fill="midnightblue" stroke="midnightblue" points="689.43,-225.86 679.78,-230.23 690.05,-232.83 689.43,-225.86"/>
</g>
<!-- Node20 -->
<g id="node20" class="node">
<title>Node20</title>
<g id="a_node20"><a xlink:href="wing__ops_8_h.html" target="_top" xlink:title=" ">
<polygon fill="white" stroke="black" points="117,-112.5 117,-131.5 190,-131.5 190,-112.5 117,-112.5"/>
<text text-anchor="middle" x="153.5" y="-119.5" font-family="Helvetica,sans-Serif" font-size="10.00">wing_ops.H</text>
</a>
</g>
</g>
<!-- Node1&#45;&gt;Node20 -->
<g id="edge37" class="edge">
<title>Node1&#45;&gt;Node20</title>
<path fill="none" stroke="midnightblue" d="M597.31,-225.44C548.46,-217.2 469.24,-203.16 401.5,-188 322.01,-170.22 229.44,-144.64 183.11,-131.5"/>
<polygon fill="midnightblue" stroke="midnightblue" points="596.81,-228.9 607.25,-227.1 597.97,-222 596.81,-228.9"/>
</g>
<!-- Node22 -->
<g id="node22" class="node">
<title>Node22</title>
<g id="a_node22"><a xlink:href="wing__ops_8cpp.html" target="_top" xlink:title=" ">
<polygon fill="white" stroke="black" points="0,-56.5 0,-75.5 83,-75.5 83,-56.5 0,-56.5"/>
<text text-anchor="middle" x="41.5" y="-63.5" font-family="Helvetica,sans-Serif" font-size="10.00">wing_ops.cpp</text>
</a>
</g>
</g>
<!-- Node1&#45;&gt;Node22 -->
<g id="edge38" class="edge">
<title>Node1&#45;&gt;Node22</title>
<path fill="none" stroke="midnightblue" d="M597.13,-228.2C482.96,-215.77 191.45,-180.11 107.5,-132 81.55,-117.13 58.47,-89.55 47.78,-75.59"/>
<polygon fill="midnightblue" stroke="midnightblue" points="596.98,-231.71 607.3,-229.3 597.73,-224.75 596.98,-231.71"/>
</g>
<!-- Node23 -->
<g id="node23" class="node">
<title>Node23</title>
<g id="a_node23"><a xlink:href="turbine__utils_8_h.html" target="_top" xlink:title=" ">
<polygon fill="white" stroke="black" points="832.5,-168.5 832.5,-187.5 920.5,-187.5 920.5,-168.5 832.5,-168.5"/>
<text text-anchor="middle" x="876.5" y="-175.5" font-family="Helvetica,sans-Serif" font-size="10.00">turbine_utils.H</text>
</a>
</g>
</g>
<!-- Node1&#45;&gt;Node23 -->
<g id="edge34" class="edge">
<title>Node1&#45;&gt;Node23</title>
<path fill="none" stroke="midnightblue" d="M689.51,-222.34C733.45,-212.15 798.82,-197 839.49,-187.58"/>
<polygon fill="midnightblue" stroke="midnightblue" points="688.6,-218.95 679.65,-224.62 690.18,-225.77 688.6,-218.95"/>
</g>
<!-- Node3 -->
<g id="node3" class="node">
<title>Node3</title>
<g id="a_node3"><a xlink:href="_act_src_line_op_8_h.html" target="_top" xlink:title=" ">
<polygon fill="white" stroke="black" points="372.5,-112.5 372.5,-131.5 464.5,-131.5 464.5,-112.5 372.5,-112.5"/>
<text text-anchor="middle" x="418.5" y="-119.5" font-family="Helvetica,sans-Serif" font-size="10.00">ActSrcLineOp.H</text>
</a>
</g>
</g>
<!-- Node2&#45;&gt;Node3 -->
<g id="edge2" class="edge">
<title>Node2&#45;&gt;Node3</title>
<path fill="none" stroke="midnightblue" d="M443.55,-159.57C437.19,-150.27 429.63,-139.25 424.5,-131.75"/>
<polygon fill="midnightblue" stroke="midnightblue" points="440.85,-161.81 449.39,-168.08 446.63,-157.86 440.85,-161.81"/>
</g>
<!-- Node2&#45;&gt;Node4 -->
<g id="edge9" class="edge">
<title>Node2&#45;&gt;Node4</title>
<path fill="none" stroke="midnightblue" d="M465.96,-159.42C475.81,-144.46 491.95,-123.59 511.5,-112 525.37,-103.77 616.4,-86.11 673.96,-75.53"/>
<polygon fill="midnightblue" stroke="midnightblue" points="462.78,-157.92 460.43,-168.25 468.71,-161.64 462.78,-157.92"/>
</g>
<!-- Node10 -->
<g id="node10" class="node">
<title>Node10</title>
<g id="a_node10"><a xlink:href="_act_src_disk_op___turbine_8_h.html" target="_top" xlink:title=" ">
<polygon fill="white" stroke="black" points="520.5,-112.5 520.5,-131.5 654.5,-131.5 654.5,-112.5 520.5,-112.5"/>
<text text-anchor="middle" x="587.5" y="-119.5" font-family="Helvetica,sans-Serif" font-size="10.00">ActSrcDiskOp_Turbine.H</text>
</a>
</g>
</g>
<!-- Node2&#45;&gt;Node10 -->
<g id="edge10" class="edge">
<title>Node2&#45;&gt;Node10</title>
<path fill="none" stroke="midnightblue" d="M485.72,-164.64C510.49,-154.5 544.9,-140.43 566.68,-131.52"/>
<polygon fill="midnightblue" stroke="midnightblue" points="484.35,-161.42 476.42,-168.44 487,-167.9 484.35,-161.42"/>
</g>
<!-- Node11 -->
<g id="node11" class="node">
<title>Node11</title>
<g id="a_node11"><a xlink:href="_act_src_disk_op_8_h.html" target="_top" xlink:title=" ">
<polygon fill="white" stroke="black" points="673,-112.5 673,-131.5 766,-131.5 766,-112.5 673,-112.5"/>
<text text-anchor="middle" x="719.5" y="-119.5" font-family="Helvetica,sans-Serif" font-size="10.00">ActSrcDiskOp.H</text>
</a>
</g>
</g>
<!-- Node2&#45;&gt;Node11 -->
<g id="edge12" class="edge">
<title>Node2&#45;&gt;Node11</title>
<path fill="none" stroke="midnightblue" d="M507.28,-166.41C557.17,-156.2 631.7,-140.96 677.86,-131.52"/>
<polygon fill="midnightblue" stroke="midnightblue" points="506.43,-163.01 497.33,-168.44 507.83,-169.87 506.43,-163.01"/>
</g>
<!-- Node12 -->
<g id="node12" class="node">
<title>Node12</title>
<g id="a_node12"><a xlink:href="disk__ops_8_h.html" target="_top" xlink:title=" ">
<polygon fill="white" stroke="black" points="246.5,-112.5 246.5,-131.5 316.5,-131.5 316.5,-112.5 246.5,-112.5"/>
<text text-anchor="middle" x="281.5" y="-119.5" font-family="Helvetica,sans-Serif" font-size="10.00">disk_ops.H</text>
</a>
</g>
</g>
<!-- Node2&#45;&gt;Node12 -->
<g id="edge14" class="edge">
<title>Node2&#45;&gt;Node12</title>
<path fill="none" stroke="midnightblue" d="M418.24,-165.44C385.43,-155.26 338.42,-140.66 308.94,-131.52"/>
<polygon fill="midnightblue" stroke="midnightblue" points="417.34,-168.82 427.93,-168.44 419.42,-162.14 417.34,-168.82"/>
</g>
<!-- Node18 -->
<g id="node18" class="node">
<title>Node18</title>
<g id="a_node18"><a xlink:href="turbine__fast__ops_8_h.html" target="_top" xlink:title=" ">
<polygon fill="white" stroke="black" points="822.5,-112.5 822.5,-131.5 930.5,-131.5 930.5,-112.5 822.5,-112.5"/>
<text text-anchor="middle" x="876.5" y="-119.5" font-family="Helvetica,sans-Serif" font-size="10.00">turbine_fast_ops.H</text>
</a>
</g>
</g>
<!-- Node2&#45;&gt;Node18 -->
<g id="edge22" class="edge">
<title>Node2&#45;&gt;Node18</title>
<path fill="none" stroke="midnightblue" d="M510.55,-169.94C591.48,-159.56 741.69,-140.29 822.2,-129.97"/>
<polygon fill="midnightblue" stroke="midnightblue" points="510.03,-166.48 500.55,-171.22 510.92,-173.42 510.03,-166.48"/>
</g>
<!-- Node19 -->
<g id="node19" class="node">
<title>Node19</title>
<g id="a_node19"><a xlink:href="fixed__wing__ops_8_h.html" target="_top" xlink:title=" ">
<polygon fill="white" stroke="black" points="101,-56.5 101,-75.5 202,-75.5 202,-56.5 101,-56.5"/>
<text text-anchor="middle" x="151.5" y="-63.5" font-family="Helvetica,sans-Serif" font-size="10.00">fixed_wing_ops.H</text>
</a>
</g>
</g>
<!-- Node2&#45;&gt;Node19 -->
<g id="edge24" class="edge">
<title>Node2&#45;&gt;Node19</title>
<path fill="none" stroke="midnightblue" d="M400.34,-172.41C354.98,-167.07 289.86,-155.72 237.5,-132 205.79,-117.63 174.76,-89.83 160.16,-75.7"/>
<polygon fill="midnightblue" stroke="midnightblue" points="399.96,-175.89 410.28,-173.53 400.74,-168.94 399.96,-175.89"/>
</g>
<!-- Node2&#45;&gt;Node20 -->
<g id="edge26" class="edge">
<title>Node2&#45;&gt;Node20</title>
<path fill="none" stroke="midnightblue" d="M400.08,-167.09C339.11,-156.19 242.84,-138.97 190.45,-129.61"/>
<polygon fill="midnightblue" stroke="midnightblue" points="399.83,-170.6 410.29,-168.92 401.06,-163.71 399.83,-170.6"/>
</g>
<!-- Node21 -->
<g id="node21" class="node">
<title>Node21</title>
<g id="a_node21"><a xlink:href="flat__plate__ops_8_h.html" target="_top" xlink:title=" ">
<polygon fill="white" stroke="black" points="559,-56.5 559,-75.5 654,-75.5 654,-56.5 559,-56.5"/>
<text text-anchor="middle" x="606.5" y="-63.5" font-family="Helvetica,sans-Serif" font-size="10.00">flat_plate_ops.H</text>
</a>
</g>
</g>
<!-- Node2&#45;&gt;Node21 -->
<g id="edge31" class="edge">
<title>Node2&#45;&gt;Node21</title>
<path fill="none" stroke="midnightblue" d="M414.32,-165.35C381.58,-154.04 344.21,-135.19 363.5,-112 366.63,-108.23 489.13,-86.91 558.97,-75.02"/>
<polygon fill="midnightblue" stroke="midnightblue" points="413.23,-168.68 423.83,-168.48 415.42,-162.03 413.23,-168.68"/>
</g>
<!-- Node3&#45;&gt;Node4 -->
<g id="edge3" class="edge">
<title>Node3&#45;&gt;Node4</title>
<path fill="none" stroke="midnightblue" d="M474.49,-111.02C531.75,-100.82 619.74,-85.13 673.8,-75.5"/>
<polygon fill="midnightblue" stroke="midnightblue" points="473.75,-107.6 464.52,-112.8 474.98,-114.49 473.75,-107.6"/>
</g>
<!-- Node4&#45;&gt;Node5 -->
<g id="edge4" class="edge">
<title>Node4&#45;&gt;Node5</title>
<path fill="none" stroke="midnightblue" d="M774.21,-54.42C826.48,-43.93 905.34,-28.1 952,-18.73"/>
<polygon fill="midnightblue" stroke="midnightblue" points="773.24,-51.04 764.12,-56.44 774.62,-57.91 773.24,-51.04"/>
</g>
<!-- Node6 -->
<g id="node6" class="node">
<title>Node6</title>
<g id="a_node6"><a xlink:href="_actuator_disk_8cpp.html" target="_top" xlink:title=" ">
<polygon fill="white" stroke="black" points="464.5,-0.5 464.5,-19.5 564.5,-19.5 564.5,-0.5 464.5,-0.5"/>
<text text-anchor="middle" x="514.5" y="-7.5" font-family="Helvetica,sans-Serif" font-size="10.00">ActuatorDisk.cpp</text>
</a>
</g>
</g>
<!-- Node4&#45;&gt;Node6 -->
<g id="edge5" class="edge">
<title>Node4&#45;&gt;Node6</title>
<path fill="none" stroke="midnightblue" d="M678.68,-53.83C639.59,-43.63 582.67,-28.78 547.15,-19.52"/>
<polygon fill="midnightblue" stroke="midnightblue" points="678.14,-57.31 688.7,-56.44 679.91,-50.53 678.14,-57.31"/>
</g>
<!-- Node7 -->
<g id="node7" class="node">
<title>Node7</title>
<g id="a_node7"><a xlink:href="_turbine_fast_8cpp.html" target="_top" xlink:title=" ">
<polygon fill="white" stroke="black" points="759.5,-0.5 759.5,-19.5 851.5,-19.5 851.5,-0.5 759.5,-0.5"/>
<text text-anchor="middle" x="805.5" y="-7.5" font-family="Helvetica,sans-Serif" font-size="10.00">TurbineFast.cpp</text>
</a>
</g>
</g>
<!-- Node4&#45;&gt;Node7 -->
<g id="edge6" class="edge">
<title>Node4&#45;&gt;Node7</title>
<path fill="none" stroke="midnightblue" d="M743.43,-50.9C758.84,-41 778.95,-28.07 792.04,-19.65"/>
<polygon fill="midnightblue" stroke="midnightblue" points="741.52,-47.97 735,-56.32 745.3,-53.86 741.52,-47.97"/>
</g>
<!-- Node8 -->
<g id="node8" class="node">
<title>Node8</title>
<g id="a_node8"><a xlink:href="_fixed_wing_8cpp.html" target="_top" xlink:title=" ">
<polygon fill="white" stroke="black" points="231,-0.5 231,-19.5 318,-19.5 318,-0.5 231,-0.5"/>
<text text-anchor="middle" x="274.5" y="-7.5" font-family="Helvetica,sans-Serif" font-size="10.00">FixedWing.cpp</text>
</a>
</g>
</g>
<!-- Node4&#45;&gt;Node8 -->
<g id="edge7" class="edge">
<title>Node4&#45;&gt;Node8</title>
<path fill="none" stroke="midnightblue" d="M662.46,-55.92C512.89,-36.64 473.07,-40.14 327.5,-20 324.45,-19.58 321.3,-19.12 318.14,-18.63"/>
<polygon fill="midnightblue" stroke="midnightblue" points="662.11,-59.41 672.48,-57.23 663.01,-52.46 662.11,-59.41"/>
</g>
<!-- Node9 -->
<g id="node9" class="node">
<title>Node9</title>
<g id="a_node9"><a xlink:href="_flat_plate_8cpp.html" target="_top" xlink:title=" ">
<polygon fill="white" stroke="black" points="631.5,-0.5 631.5,-19.5 711.5,-19.5 711.5,-0.5 631.5,-0.5"/>
<text text-anchor="middle" x="671.5" y="-7.5" font-family="Helvetica,sans-Serif" font-size="10.00">FlatPlate.cpp</text>
</a>
</g>
</g>
<!-- Node4&#45;&gt;Node9 -->
<g id="edge8" class="edge">
<title>Node4&#45;&gt;Node9</title>
<path fill="none" stroke="midnightblue" d="M706.42,-48.72C697.61,-39.2 686.83,-27.56 679.6,-19.75"/>
<polygon fill="midnightblue" stroke="midnightblue" points="703.88,-51.12 713.24,-56.08 709.02,-46.37 703.88,-51.12"/>
</g>
<!-- Node10&#45;&gt;Node4 -->
<g id="edge11" class="edge">
<title>Node10&#45;&gt;Node4</title>
<path fill="none" stroke="midnightblue" d="M618.18,-108.64C643.32,-98.5 678.25,-84.43 700.37,-75.52"/>
<polygon fill="midnightblue" stroke="midnightblue" points="616.7,-105.46 608.73,-112.44 619.32,-111.95 616.7,-105.46"/>
</g>
<!-- Node11&#45;&gt;Node4 -->
<g id="edge13" class="edge">
<title>Node11&#45;&gt;Node4</title>
<path fill="none" stroke="midnightblue" d="M720.21,-101.8C720.54,-92.91 720.92,-82.78 721.18,-75.75"/>
<polygon fill="midnightblue" stroke="midnightblue" points="716.7,-101.96 719.83,-112.08 723.7,-102.22 716.7,-101.96"/>
</g>
<!-- Node13 -->
<g id="node13" class="node">
<title>Node13</title>
<g id="a_node13"><a xlink:href="uniform__ct__ops_8_h.html" target="_top" xlink:title=" ">
<polygon fill="white" stroke="black" points="220.5,-56.5 220.5,-75.5 322.5,-75.5 322.5,-56.5 220.5,-56.5"/>
<text text-anchor="middle" x="271.5" y="-63.5" font-family="Helvetica,sans-Serif" font-size="10.00">uniform_ct_ops.H</text>
</a>
</g>
</g>
<!-- Node12&#45;&gt;Node13 -->
<g id="edge15" class="edge">
<title>Node12&#45;&gt;Node13</title>
<path fill="none" stroke="midnightblue" d="M278,-102.1C276.34,-93.14 274.44,-82.86 273.12,-75.75"/>
<polygon fill="midnightblue" stroke="midnightblue" points="274.59,-102.89 279.85,-112.08 281.47,-101.61 274.59,-102.89"/>
</g>
<!-- Node15 -->
<g id="node15" class="node">
<title>Node15</title>
<g id="a_node15"><a xlink:href="_joukowsky__ops_8_h.html" target="_top" xlink:title=" ">
<polygon fill="white" stroke="black" points="341,-56.5 341,-75.5 442,-75.5 442,-56.5 341,-56.5"/>
<text text-anchor="middle" x="391.5" y="-63.5" font-family="Helvetica,sans-Serif" font-size="10.00">Joukowsky_ops.H</text>
</a>
</g>
</g>
<!-- Node12&#45;&gt;Node15 -->
<g id="edge18" class="edge">
<title>Node12&#45;&gt;Node15</title>
<path fill="none" stroke="midnightblue" d="M308.26,-107.86C328.66,-97.85 356.17,-84.35 373.87,-75.65"/>
<polygon fill="midnightblue" stroke="midnightblue" points="306.61,-104.78 299.17,-112.32 309.69,-111.06 306.61,-104.78"/>
</g>
<!-- Node17 -->
<g id="node17" class="node">
<title>Node17</title>
<g id="a_node17"><a xlink:href="disk__ops_8cpp.html" target="_top" xlink:title=" ">
<polygon fill="white" stroke="black" points="460.5,-56.5 460.5,-75.5 540.5,-75.5 540.5,-56.5 460.5,-56.5"/>
<text text-anchor="middle" x="500.5" y="-63.5" font-family="Helvetica,sans-Serif" font-size="10.00">disk_ops.cpp</text>
</a>
</g>
</g>
<!-- Node12&#45;&gt;Node17 -->
<g id="edge21" class="edge">
<title>Node12&#45;&gt;Node17</title>
<path fill="none" stroke="midnightblue" d="M326.01,-110.02C367.38,-99.82 428.14,-84.84 465.96,-75.52"/>
<polygon fill="midnightblue" stroke="midnightblue" points="325.07,-106.65 316.2,-112.44 326.75,-113.45 325.07,-106.65"/>
</g>
<!-- Node13&#45;&gt;Node6 -->
<g id="edge16" class="edge">
<title>Node13&#45;&gt;Node6</title>
<path fill="none" stroke="midnightblue" d="M320.02,-54.22C365.94,-44.01 433.95,-28.9 476.18,-19.52"/>
<polygon fill="midnightblue" stroke="midnightblue" points="319.01,-50.86 310,-56.44 320.53,-57.69 319.01,-50.86"/>
</g>
<!-- Node14 -->
<g id="node14" class="node">
<title>Node14</title>
<g id="a_node14"><a xlink:href="uniform__ct__ops_8cpp.html" target="_top" xlink:title=" ">
<polygon fill="white" stroke="black" points="100.5,-0.5 100.5,-19.5 212.5,-19.5 212.5,-0.5 100.5,-0.5"/>
<text text-anchor="middle" x="156.5" y="-7.5" font-family="Helvetica,sans-Serif" font-size="10.00">uniform_ct_ops.cpp</text>
</a>
</g>
</g>
<!-- Node13&#45;&gt;Node14 -->
<g id="edge17" class="edge">
<title>Node13&#45;&gt;Node14</title>
<path fill="none" stroke="midnightblue" d="M244.02,-52.1C222.53,-42.01 193.28,-28.27 174.64,-19.52"/>
<polygon fill="midnightblue" stroke="midnightblue" points="242.74,-55.36 253.28,-56.44 245.71,-49.02 242.74,-55.36"/>
</g>
<!-- Node15&#45;&gt;Node6 -->
<g id="edge19" class="edge">
<title>Node15&#45;&gt;Node6</title>
<path fill="none" stroke="midnightblue" d="M420.27,-52.37C443.31,-42.26 474.98,-28.35 495.1,-19.52"/>
<polygon fill="midnightblue" stroke="midnightblue" points="418.74,-49.22 410.99,-56.44 421.55,-55.63 418.74,-49.22"/>
</g>
<!-- Node16 -->
<g id="node16" class="node">
<title>Node16</title>
<g id="a_node16"><a xlink:href="_joukowsky__ops_8cpp.html" target="_top" xlink:title=" ">
<polygon fill="white" stroke="black" points="336.5,-0.5 336.5,-19.5 446.5,-19.5 446.5,-0.5 336.5,-0.5"/>
<text text-anchor="middle" x="391.5" y="-7.5" font-family="Helvetica,sans-Serif" font-size="10.00">Joukowsky_ops.cpp</text>
</a>
</g>
</g>
<!-- Node15&#45;&gt;Node16 -->
<g id="edge20" class="edge">
<title>Node15&#45;&gt;Node16</title>
<path fill="none" stroke="midnightblue" d="M391.5,-45.8C391.5,-36.91 391.5,-26.78 391.5,-19.75"/>
<polygon fill="midnightblue" stroke="midnightblue" points="388,-46.08 391.5,-56.08 395,-46.08 388,-46.08"/>
</g>
<!-- Node18&#45;&gt;Node7 -->
<g id="edge23" class="edge">
<title>Node18&#45;&gt;Node7</title>
<path fill="none" stroke="midnightblue" d="M865.5,-103.96C850.11,-80.12 822.74,-37.71 811.05,-19.59"/>
<polygon fill="midnightblue" stroke="midnightblue" points="862.57,-105.86 870.93,-112.37 868.45,-102.07 862.57,-105.86"/>
</g>
<!-- Node19&#45;&gt;Node8 -->
<g id="edge25" class="edge">
<title>Node19&#45;&gt;Node8</title>
<path fill="none" stroke="midnightblue" d="M180.27,-52.37C203.31,-42.26 234.98,-28.35 255.1,-19.52"/>
<polygon fill="midnightblue" stroke="midnightblue" points="178.74,-49.22 170.99,-56.44 181.55,-55.63 178.74,-49.22"/>
</g>
<!-- Node20&#45;&gt;Node19 -->
<g id="edge27" class="edge">
<title>Node20&#45;&gt;Node19</title>
<path fill="none" stroke="midnightblue" d="M152.79,-101.8C152.46,-92.91 152.08,-82.78 151.82,-75.75"/>
<polygon fill="midnightblue" stroke="midnightblue" points="149.3,-102.22 153.17,-112.08 156.3,-101.96 149.3,-102.22"/>
</g>
<!-- Node20&#45;&gt;Node21 -->
<g id="edge28" class="edge">
<title>Node20&#45;&gt;Node21</title>
<path fill="none" stroke="midnightblue" d="M200.47,-115.92C290.22,-106.18 483.05,-85.02 549.5,-76 552.58,-75.58 555.75,-75.13 558.94,-74.67"/>
<polygon fill="midnightblue" stroke="midnightblue" points="199.87,-112.47 190.31,-117.02 200.63,-119.43 199.87,-112.47"/>
</g>
<!-- Node20&#45;&gt;Node22 -->
<g id="edge30" class="edge">
<title>Node20&#45;&gt;Node22</title>
<path fill="none" stroke="midnightblue" d="M126.25,-107.86C105.48,-97.85 77.48,-84.35 59.45,-75.65"/>
<polygon fill="midnightblue" stroke="midnightblue" points="124.98,-111.13 135.51,-112.32 128.02,-104.83 124.98,-111.13"/>
</g>
<!-- Node21&#45;&gt;Node9 -->
<g id="edge29" class="edge">
<title>Node21&#45;&gt;Node9</title>
<path fill="none" stroke="midnightblue" d="M624.77,-49.82C636.42,-40.15 651.1,-27.95 660.87,-19.83"/>
<polygon fill="midnightblue" stroke="midnightblue" points="622.4,-47.24 616.94,-56.32 626.87,-52.63 622.4,-47.24"/>
</g>
<!-- Node23&#45;&gt;Node18 -->
<g id="edge35" class="edge">
<title>Node23&#45;&gt;Node18</title>
<path fill="none" stroke="midnightblue" d="M876.5,-157.8C876.5,-148.91 876.5,-138.78 876.5,-131.75"/>
<polygon fill="midnightblue" stroke="midnightblue" points="873,-158.08 876.5,-168.08 880,-158.08 873,-158.08"/>
</g>
<!-- Node24 -->
<g id="node24" class="node">
<title>Node24</title>
<g id="a_node24"><a xlink:href="turbine__utils_8cpp.html" target="_top" xlink:title=" ">
<polygon fill="white" stroke="black" points="948.5,-112.5 948.5,-131.5 1046.5,-131.5 1046.5,-112.5 948.5,-112.5"/>
<text text-anchor="middle" x="997.5" y="-119.5" font-family="Helvetica,sans-Serif" font-size="10.00">turbine_utils.cpp</text>
</a>
</g>
</g>
<!-- Node23&#45;&gt;Node24 -->
<g id="edge36" class="edge">
<title>Node23&#45;&gt;Node24</title>
<path fill="none" stroke="midnightblue" d="M904.81,-164.37C927.47,-154.26 958.63,-140.35 978.42,-131.52"/>
<polygon fill="midnightblue" stroke="midnightblue" points="903.38,-161.17 895.67,-168.44 906.23,-167.56 903.38,-161.17"/>
</g>
</g>
</svg>
        <g id="navigator" transform="translate(0 0)" fill="#404254">
                <rect fill="#f2f5e9" fill-opacity="0.5" stroke="#606060" stroke-width=".5" x="0" y="0" width="60" height="60"/>
                <use id="zoomplus" xlink:href="#zoomPlus" x="17" y="9" onmousedown="handleZoom(evt,'in')"/>
                <use id="zoomminus" xlink:href="#zoomMin" x="42" y="9" onmousedown="handleZoom(evt,'out')"/>
                <use id="reset" xlink:href="#resetDef" x="30" y="36" onmousedown="handleReset()"/>
                <g id="arrowUp" xlink:href="#dirArrow" transform="translate(30 24)" onmousedown="handlePan(0,-1)">
                  <use xlink:href="#rim" fill="#404040">
                        <set attributeName="fill" to="#808080" begin="arrowUp.mouseover" end="arrowUp.mouseout"/>
                  </use>
                  <path fill="none" stroke="white" stroke-width="1.5" d="M0,-3.0v7 M-2.5,-0.5L0,-3.0L2.5,-0.5"/>
                </g>
                <g id="arrowRight" xlink:href="#dirArrow" transform="rotate(90) translate(36 -43)" onmousedown="handlePan(1,0)">
                  <use xlink:href="#rim" fill="#404040">
                        <set attributeName="fill" to="#808080" begin="arrowRight.mouseover" end="arrowRight.mouseout"/>
                  </use>
                  <path fill="none" stroke="white" stroke-width="1.5" d="M0,-3.0v7 M-2.5,-0.5L0,-3.0L2.5,-0.5"/>
                </g>
                <g id="arrowDown" xlink:href="#dirArrow" transform="rotate(180) translate(-30 -48)" onmousedown="handlePan(0,1)">
                  <use xlink:href="#rim" fill="#404040">
                        <set attributeName="fill" to="#808080" begin="arrowDown.mouseover" end="arrowDown.mouseout"/>
                  </use>
                  <path fill="none" stroke="white" stroke-width="1.5" d="M0,-3.0v7 M-2.5,-0.5L0,-3.0L2.5,-0.5"/>
                </g>
                <g id="arrowLeft" xlink:href="#dirArrow" transform="rotate(270) translate(-36 17)" onmousedown="handlePan(-1,0)">
                  <use xlink:href="#rim" fill="#404040">
                        <set attributeName="fill" to="#808080" begin="arrowLeft.mouseover" end="arrowLeft.mouseout"/>
                  </use>
                  <path fill="none" stroke="white" stroke-width="1.5" d="M0,-3.0v7 M-2.5,-0.5L0,-3.0L2.5,-0.5"/>
                </g>
        </g>
        <svg viewBox="0 0 15 15" width="100%" height="30px" preserveAspectRatio="xMaxYMin meet">
         <g id="arrow_out" transform="scale(0.3 0.3)">
          <a xlink:href="_act_parser_8_h__dep__incl_org.svg" target="_base">
           <rect id="button" ry="5" rx="5" y="6" x="6" height="38" width="38"
                fill="#f2f5e9" fill-opacity="0.5" stroke="#606060" stroke-width="1.0"/>
           <path id="arrow"
             d="M 11.500037,31.436501 C 11.940474,20.09759 22.043105,11.32322 32.158766,21.979434 L 37.068811,17.246167 C 37.068811,17.246167 37.088388,32 37.088388,32 L 22.160133,31.978069 C 22.160133,31.978069 26.997745,27.140456 26.997745,27.140456 C 18.528582,18.264221 13.291696,25.230495 11.500037,31.436501 z"
             style="fill:#404040;"/>
          </a>
         </g>
        </svg>
</svg>
