<?xml version="1.0" encoding="UTF-8" standalone="no"?>
<!DOCTYPE svg PUBLIC "-//W3C//DTD SVG 1.1//EN"
 "http://www.w3.org/Graphics/SVG/1.1/DTD/svg11.dtd">
<!-- Generated by graphviz version 2.43.0 (0)
 -->
<!-- Title: MultiParser.H Pages: 1 -->
<!--zoomable 308 -->
<svg id="main" version="1.1" xmlns="http://www.w3.org/2000/svg" xmlns:xlink="http://www.w3.org/1999/xlink" xml:space="preserve" onload="init(evt)">
<style type="text/css"><![CDATA[
.edge:hover path { stroke: red; }
.edge:hover polygon { stroke: red; fill: red; }
]]></style>
<script type="text/javascript"><![CDATA[
var edges = document.getElementsByTagName('g');
if (edges && edges.length) {
  for (var i=0;i<edges.length;i++) {
    if (edges[i].id.substr(0,4)=='edge') {
      edges[i].setAttribute('class','edge');
    }
  }
}
]]></script>
        <defs>
                <circle id="rim" cx="0" cy="0" r="7"/>
                <circle id="rim2" cx="0" cy="0" r="3.5"/>
                <g id="zoomPlus">
                        <use xlink:href="#rim" fill="#404040">
                                <set attributeName="fill" to="#808080" begin="zoomplus.mouseover" end="zoomplus.mouseout"/>
                        </use>
                        <path d="M-4,0h8M0,-4v8" fill="none" stroke="white" stroke-width="1.5" pointer-events="none"/>
                </g>
                <g id="zoomMin">
                        <use xlink:href="#rim" fill="#404040">
                                <set attributeName="fill" to="#808080" begin="zoomminus.mouseover" end="zoomminus.mouseout"/>
                        </use>
                        <path d="M-4,0h8" fill="none" stroke="white" stroke-width="1.5" pointer-events="none"/>
                </g>
                <g id="dirArrow">
                        <path fill="none" stroke="white" stroke-width="1.5" d="M0,-3.0v7 M-2.5,-0.5L0,-3.0L2.5,-0.5"/>
                </g>
               <g id="resetDef">
                       <use xlink:href="#rim2" fill="#404040">
                               <set attributeName="fill" to="#808080" begin="reset.mouseover" end="reset.mouseout"/>
                       </use>
               </g>
        </defs>

<script type="text/javascript">
var viewWidth = 1535;
var viewHeight = 308;
var sectionId = 'dynsection-1';
</script>
<script xlink:href="svgpan.js"/>
<svg id="graph" class="graph">
<g id="viewport">
<title>MultiParser.H</title>
<polygon fill="white" stroke="transparent" points="-4,4 -4,-304 1530.77,-304 1530.77,4 -4,4"/>
<!-- Node1 -->
<g id="node1" class="node">
<title>Node1</title>
<g id="a_node1"><a xlink:title=" ">
<polygon fill="#bfbfbf" stroke="black" points="329.5,-280.5 329.5,-299.5 410.5,-299.5 410.5,-280.5 329.5,-280.5"/>
<text text-anchor="middle" x="370" y="-287.5" font-family="Helvetica,sans-Serif" font-size="10.00">MultiParser.H</text>
</a>
</g>
</g>
<!-- Node2 -->
<g id="node2" class="node">
<title>Node2</title>
<g id="a_node2"><a xlink:href="bluff__body__ops_8_h.html" target="_top" xlink:title=" ">
<polygon fill="white" stroke="black" points="223.5,-224.5 223.5,-243.5 324.5,-243.5 324.5,-224.5 223.5,-224.5"/>
<text text-anchor="middle" x="274" y="-231.5" font-family="Helvetica,sans-Serif" font-size="10.00">bluff_body_ops.H</text>
</a>
</g>
</g>
<!-- Node1&#45;&gt;Node2 -->
<g id="edge1" class="edge">
<title>Node1&#45;&gt;Node2</title>
<path fill="none" stroke="midnightblue" d="M345.43,-275.18C327.76,-265.24 304.49,-252.15 289.39,-243.65"/>
<polygon fill="midnightblue" stroke="midnightblue" points="344.14,-278.47 354.58,-280.32 347.58,-272.37 344.14,-278.47"/>
</g>
<!-- Node3 -->
<g id="node3" class="node">
<title>Node3</title>
<g id="a_node3"><a xlink:href="bluff__body__ops_8cpp.html" target="_top" xlink:title=" ">
<polygon fill="white" stroke="black" points="0,-168.5 0,-187.5 110,-187.5 110,-168.5 0,-168.5"/>
<text text-anchor="middle" x="55" y="-175.5" font-family="Helvetica,sans-Serif" font-size="10.00">bluff_body_ops.cpp</text>
</a>
</g>
</g>
<!-- Node1&#45;&gt;Node3 -->
<g id="edge9" class="edge">
<title>Node1&#45;&gt;Node3</title>
<path fill="none" stroke="midnightblue" d="M326.72,-277.85C295.19,-269.41 251.6,-257.07 214,-244 162.73,-226.18 104,-200.85 74.32,-187.69"/>
<polygon fill="midnightblue" stroke="midnightblue" points="325.94,-281.27 336.5,-280.45 327.74,-274.5 325.94,-281.27"/>
</g>
<!-- Node10 -->
<g id="node10" class="node">
<title>Node10</title>
<g id="a_node10"><a xlink:href="_i_b_model_8_h.html" target="_top" xlink:title=" ">
<polygon fill="white" stroke="black" points="336.5,-168.5 336.5,-187.5 403.5,-187.5 403.5,-168.5 336.5,-168.5"/>
<text text-anchor="middle" x="370" y="-175.5" font-family="Helvetica,sans-Serif" font-size="10.00">IBModel.H</text>
</a>
</g>
</g>
<!-- Node1&#45;&gt;Node10 -->
<g id="edge10" class="edge">
<title>Node1&#45;&gt;Node10</title>
<path fill="none" stroke="midnightblue" d="M370,-270.35C370,-246.25 370,-205.31 370,-187.59"/>
<polygon fill="midnightblue" stroke="midnightblue" points="366.5,-270.37 370,-280.37 373.5,-270.37 366.5,-270.37"/>
</g>
<!-- Node11 -->
<g id="node11" class="node">
<title>Node11</title>
<g id="a_node11"><a xlink:href="_i_b_8cpp.html" target="_top" xlink:title=" ">
<polygon fill="white" stroke="black" points="448.5,-112.5 448.5,-131.5 495.5,-131.5 495.5,-112.5 448.5,-112.5"/>
<text text-anchor="middle" x="472" y="-119.5" font-family="Helvetica,sans-Serif" font-size="10.00">IB.cpp</text>
</a>
</g>
</g>
<!-- Node1&#45;&gt;Node11 -->
<g id="edge15" class="edge">
<title>Node1&#45;&gt;Node11</title>
<path fill="none" stroke="midnightblue" d="M399.04,-276.02C430.31,-260.26 478.34,-230.41 499,-188 508.63,-168.23 491.37,-144.12 480.27,-131.56"/>
<polygon fill="midnightblue" stroke="midnightblue" points="397.38,-272.94 389.93,-280.46 400.45,-279.23 397.38,-272.94"/>
</g>
<!-- Node12 -->
<g id="node12" class="node">
<title>Node12</title>
<g id="a_node12"><a xlink:href="_act_parser_8_h.html" target="_top" xlink:title=" ">
<polygon fill="white" stroke="black" points="1022,-224.5 1022,-243.5 1094,-243.5 1094,-224.5 1022,-224.5"/>
<text text-anchor="middle" x="1058" y="-231.5" font-family="Helvetica,sans-Serif" font-size="10.00">ActParser.H</text>
</a>
</g>
</g>
<!-- Node1&#45;&gt;Node12 -->
<g id="edge16" class="edge">
<title>Node1&#45;&gt;Node12</title>
<path fill="none" stroke="midnightblue" d="M421.01,-285C553.75,-274.58 907.53,-246.81 1021.84,-237.84"/>
<polygon fill="midnightblue" stroke="midnightblue" points="420.42,-281.53 410.72,-285.8 420.97,-288.51 420.42,-281.53"/>
</g>
<!-- Node2&#45;&gt;Node3 -->
<g id="edge2" class="edge">
<title>Node2&#45;&gt;Node3</title>
<path fill="none" stroke="midnightblue" d="M229.49,-222.02C188.12,-211.82 127.36,-196.84 89.54,-187.52"/>
<polygon fill="midnightblue" stroke="midnightblue" points="228.75,-225.45 239.3,-224.44 230.43,-218.65 228.75,-225.45"/>
</g>
<!-- Node4 -->
<g id="node4" class="node">
<title>Node4</title>
<g id="a_node4"><a xlink:href="box__ops_8_h.html" target="_top" xlink:title=" ">
<polygon fill="white" stroke="black" points="422,-168.5 422,-187.5 490,-187.5 490,-168.5 422,-168.5"/>
<text text-anchor="middle" x="456" y="-175.5" font-family="Helvetica,sans-Serif" font-size="10.00">box_ops.H</text>
</a>
</g>
</g>
<!-- Node2&#45;&gt;Node4 -->
<g id="edge3" class="edge">
<title>Node2&#45;&gt;Node4</title>
<path fill="none" stroke="midnightblue" d="M312.53,-221.57C346.86,-211.38 396.33,-196.7 427.3,-187.52"/>
<polygon fill="midnightblue" stroke="midnightblue" points="311.43,-218.24 302.84,-224.44 313.42,-224.95 311.43,-218.24"/>
</g>
<!-- Node6 -->
<g id="node6" class="node">
<title>Node6</title>
<g id="a_node6"><a xlink:href="cylinder__ops_8_h.html" target="_top" xlink:title=" ">
<polygon fill="white" stroke="black" points="229.5,-168.5 229.5,-187.5 318.5,-187.5 318.5,-168.5 229.5,-168.5"/>
<text text-anchor="middle" x="274" y="-175.5" font-family="Helvetica,sans-Serif" font-size="10.00">cylinder_ops.H</text>
</a>
</g>
</g>
<!-- Node2&#45;&gt;Node6 -->
<g id="edge5" class="edge">
<title>Node2&#45;&gt;Node6</title>
<path fill="none" stroke="midnightblue" d="M274,-213.8C274,-204.91 274,-194.78 274,-187.75"/>
<polygon fill="midnightblue" stroke="midnightblue" points="270.5,-214.08 274,-224.08 277.5,-214.08 270.5,-214.08"/>
</g>
<!-- Node8 -->
<g id="node8" class="node">
<title>Node8</title>
<g id="a_node8"><a xlink:href="sphere__ops_8_h.html" target="_top" xlink:title=" ">
<polygon fill="white" stroke="black" points="128.5,-168.5 128.5,-187.5 211.5,-187.5 211.5,-168.5 128.5,-168.5"/>
<text text-anchor="middle" x="170" y="-175.5" font-family="Helvetica,sans-Serif" font-size="10.00">sphere_ops.H</text>
</a>
</g>
</g>
<!-- Node2&#45;&gt;Node8 -->
<g id="edge7" class="edge">
<title>Node2&#45;&gt;Node8</title>
<path fill="none" stroke="midnightblue" d="M248.17,-219.59C228.94,-209.61 203.26,-196.27 186.67,-187.65"/>
<polygon fill="midnightblue" stroke="midnightblue" points="246.8,-222.82 257.29,-224.32 250.03,-216.61 246.8,-222.82"/>
</g>
<!-- Node5 -->
<g id="node5" class="node">
<title>Node5</title>
<g id="a_node5"><a xlink:href="_box_8cpp.html" target="_top" xlink:title=" ">
<polygon fill="white" stroke="black" points="358,-112.5 358,-131.5 414,-131.5 414,-112.5 358,-112.5"/>
<text text-anchor="middle" x="386" y="-119.5" font-family="Helvetica,sans-Serif" font-size="10.00">Box.cpp</text>
</a>
</g>
</g>
<!-- Node4&#45;&gt;Node5 -->
<g id="edge4" class="edge">
<title>Node4&#45;&gt;Node5</title>
<path fill="none" stroke="midnightblue" d="M436.69,-162.1C424.09,-152.38 408.07,-140.03 397.45,-131.83"/>
<polygon fill="midnightblue" stroke="midnightblue" points="434.7,-164.99 444.75,-168.32 438.97,-159.44 434.7,-164.99"/>
</g>
<!-- Node7 -->
<g id="node7" class="node">
<title>Node7</title>
<g id="a_node7"><a xlink:href="_cylinder_8cpp.html" target="_top" xlink:title=" ">
<polygon fill="white" stroke="black" points="248.5,-112.5 248.5,-131.5 325.5,-131.5 325.5,-112.5 248.5,-112.5"/>
<text text-anchor="middle" x="287" y="-119.5" font-family="Helvetica,sans-Serif" font-size="10.00">Cylinder.cpp</text>
</a>
</g>
</g>
<!-- Node6&#45;&gt;Node7 -->
<g id="edge6" class="edge">
<title>Node6&#45;&gt;Node7</title>
<path fill="none" stroke="midnightblue" d="M278.55,-158.1C280.71,-149.14 283.18,-138.86 284.89,-131.75"/>
<polygon fill="midnightblue" stroke="midnightblue" points="275.08,-157.54 276.15,-168.08 281.89,-159.18 275.08,-157.54"/>
</g>
<!-- Node9 -->
<g id="node9" class="node">
<title>Node9</title>
<g id="a_node9"><a xlink:href="_sphere_8cpp.html" target="_top" xlink:title=" ">
<polygon fill="white" stroke="black" points="153.5,-112.5 153.5,-131.5 224.5,-131.5 224.5,-112.5 153.5,-112.5"/>
<text text-anchor="middle" x="189" y="-119.5" font-family="Helvetica,sans-Serif" font-size="10.00">Sphere.cpp</text>
</a>
</g>
</g>
<!-- Node8&#45;&gt;Node9 -->
<g id="edge8" class="edge">
<title>Node8&#45;&gt;Node9</title>
<path fill="none" stroke="midnightblue" d="M176.55,-158.4C179.72,-149.36 183.39,-138.94 185.92,-131.75"/>
<polygon fill="midnightblue" stroke="midnightblue" points="173.15,-157.49 173.14,-168.08 179.76,-159.81 173.15,-157.49"/>
</g>
<!-- Node10&#45;&gt;Node5 -->
<g id="edge11" class="edge">
<title>Node10&#45;&gt;Node5</title>
<path fill="none" stroke="midnightblue" d="M375.51,-158.4C378.19,-149.36 381.28,-138.94 383.41,-131.75"/>
<polygon fill="midnightblue" stroke="midnightblue" points="372.13,-157.5 372.64,-168.08 378.84,-159.49 372.13,-157.5"/>
</g>
<!-- Node10&#45;&gt;Node7 -->
<g id="edge12" class="edge">
<title>Node10&#45;&gt;Node7</title>
<path fill="none" stroke="midnightblue" d="M347.9,-162.62C332.74,-152.76 313.12,-139.99 300.3,-131.65"/>
<polygon fill="midnightblue" stroke="midnightblue" points="346.37,-165.8 356.66,-168.32 350.19,-159.94 346.37,-165.8"/>
</g>
<!-- Node10&#45;&gt;Node9 -->
<g id="edge13" class="edge">
<title>Node10&#45;&gt;Node9</title>
<path fill="none" stroke="midnightblue" d="M331.68,-165.57C297.54,-155.38 248.34,-140.7 217.55,-131.52"/>
<polygon fill="midnightblue" stroke="midnightblue" points="330.74,-168.94 341.32,-168.44 332.74,-162.23 330.74,-168.94"/>
</g>
<!-- Node10&#45;&gt;Node11 -->
<g id="edge14" class="edge">
<title>Node10&#45;&gt;Node11</title>
<path fill="none" stroke="midnightblue" d="M395.33,-163.59C414.19,-153.61 439.38,-140.27 455.65,-131.65"/>
<polygon fill="midnightblue" stroke="midnightblue" points="393.59,-160.55 386.39,-168.32 396.86,-166.74 393.59,-160.55"/>
</g>
<!-- Node13 -->
<g id="node13" class="node">
<title>Node13</title>
<g id="a_node13"><a xlink:href="actuator__ops_8_h.html" target="_top" xlink:title=" ">
<polygon fill="white" stroke="black" points="1013,-168.5 1013,-187.5 1103,-187.5 1103,-168.5 1013,-168.5"/>
<text text-anchor="middle" x="1058" y="-175.5" font-family="Helvetica,sans-Serif" font-size="10.00">actuator_ops.H</text>
</a>
</g>
</g>
<!-- Node12&#45;&gt;Node13 -->
<g id="edge17" class="edge">
<title>Node12&#45;&gt;Node13</title>
<path fill="none" stroke="midnightblue" d="M1058,-213.8C1058,-204.91 1058,-194.78 1058,-187.75"/>
<polygon fill="midnightblue" stroke="midnightblue" points="1054.5,-214.08 1058,-224.08 1061.5,-214.08 1054.5,-214.08"/>
</g>
<!-- Node15 -->
<g id="node15" class="node">
<title>Node15</title>
<g id="a_node15"><a xlink:href="_actuator_model_8_h.html" target="_top" xlink:title=" ">
<polygon fill="white" stroke="black" points="928,-56.5 928,-75.5 1026,-75.5 1026,-56.5 928,-56.5"/>
<text text-anchor="middle" x="977" y="-63.5" font-family="Helvetica,sans-Serif" font-size="10.00">ActuatorModel.H</text>
</a>
</g>
</g>
<!-- Node12&#45;&gt;Node15 -->
<g id="edge48" class="edge">
<title>Node12&#45;&gt;Node15</title>
<path fill="none" stroke="midnightblue" d="M1012.05,-226.88C924.4,-214.16 738.7,-181.85 701,-132 695.64,-124.91 695.24,-118.77 701,-112 704.67,-107.69 849.47,-85.78 927.83,-74.2"/>
<polygon fill="midnightblue" stroke="midnightblue" points="1011.58,-230.35 1021.98,-228.3 1012.57,-223.42 1011.58,-230.35"/>
</g>
<!-- Node16 -->
<g id="node16" class="node">
<title>Node16</title>
<g id="a_node16"><a xlink:href="_actuator_8cpp.html" target="_top" xlink:title=" ">
<polygon fill="white" stroke="black" points="517.5,-0.5 517.5,-19.5 594.5,-19.5 594.5,-0.5 517.5,-0.5"/>
<text text-anchor="middle" x="556" y="-7.5" font-family="Helvetica,sans-Serif" font-size="10.00">Actuator.cpp</text>
</a>
</g>
</g>
<!-- Node12&#45;&gt;Node16 -->
<g id="edge49" class="edge">
<title>Node12&#45;&gt;Node16</title>
<path fill="none" stroke="midnightblue" d="M1011.72,-230.24C902.21,-222.67 632.03,-197.61 575,-132 546.4,-99.1 551.42,-41.3 554.56,-19.58"/>
<polygon fill="midnightblue" stroke="midnightblue" points="1011.6,-233.74 1021.81,-230.92 1012.07,-226.75 1011.6,-233.74"/>
</g>
<!-- Node31 -->
<g id="node31" class="node">
<title>Node31</title>
<g id="a_node31"><a xlink:href="wing__ops_8_h.html" target="_top" xlink:title=" ">
<polygon fill="white" stroke="black" points="1198.5,-112.5 1198.5,-131.5 1271.5,-131.5 1271.5,-112.5 1198.5,-112.5"/>
<text text-anchor="middle" x="1235" y="-119.5" font-family="Helvetica,sans-Serif" font-size="10.00">wing_ops.H</text>
</a>
</g>
</g>
<!-- Node12&#45;&gt;Node31 -->
<g id="edge53" class="edge">
<title>Node12&#45;&gt;Node31</title>
<path fill="none" stroke="midnightblue" d="M1080.51,-219.01C1117.67,-195.92 1190.73,-150.51 1221.18,-131.59"/>
<polygon fill="midnightblue" stroke="midnightblue" points="1078.53,-216.12 1071.89,-224.37 1082.23,-222.06 1078.53,-216.12"/>
</g>
<!-- Node33 -->
<g id="node33" class="node">
<title>Node33</title>
<g id="a_node33"><a xlink:href="wing__ops_8cpp.html" target="_top" xlink:title=" ">
<polygon fill="white" stroke="black" points="1424.5,-56.5 1424.5,-75.5 1507.5,-75.5 1507.5,-56.5 1424.5,-56.5"/>
<text text-anchor="middle" x="1466" y="-63.5" font-family="Helvetica,sans-Serif" font-size="10.00">wing_ops.cpp</text>
</a>
</g>
</g>
<!-- Node12&#45;&gt;Node33 -->
<g id="edge54" class="edge">
<title>Node12&#45;&gt;Node33</title>
<path fill="none" stroke="midnightblue" d="M1104.46,-230.8C1212.98,-224.51 1477.42,-202.14 1523,-132 1537.39,-109.85 1505.06,-87.43 1483.44,-75.59"/>
<polygon fill="midnightblue" stroke="midnightblue" points="1103.94,-227.32 1094.15,-231.38 1104.33,-234.31 1103.94,-227.32"/>
</g>
<!-- Node34 -->
<g id="node34" class="node">
<title>Node34</title>
<g id="a_node34"><a xlink:href="turbine__utils_8_h.html" target="_top" xlink:title=" ">
<polygon fill="white" stroke="black" points="1300,-168.5 1300,-187.5 1388,-187.5 1388,-168.5 1300,-168.5"/>
<text text-anchor="middle" x="1344" y="-175.5" font-family="Helvetica,sans-Serif" font-size="10.00">turbine_utils.H</text>
</a>
</g>
</g>
<!-- Node12&#45;&gt;Node34 -->
<g id="edge50" class="edge">
<title>Node12&#45;&gt;Node34</title>
<path fill="none" stroke="midnightblue" d="M1104.19,-224.28C1158.08,-214.1 1246.54,-197.4 1299.64,-187.38"/>
<polygon fill="midnightblue" stroke="midnightblue" points="1103.4,-220.87 1094.22,-226.16 1104.7,-227.74 1103.4,-220.87"/>
</g>
<!-- Node14 -->
<g id="node14" class="node">
<title>Node14</title>
<g id="a_node14"><a xlink:href="_act_src_line_op_8_h.html" target="_top" xlink:title=" ">
<polygon fill="white" stroke="black" points="1012,-112.5 1012,-131.5 1104,-131.5 1104,-112.5 1012,-112.5"/>
<text text-anchor="middle" x="1058" y="-119.5" font-family="Helvetica,sans-Serif" font-size="10.00">ActSrcLineOp.H</text>
</a>
</g>
</g>
<!-- Node13&#45;&gt;Node14 -->
<g id="edge18" class="edge">
<title>Node13&#45;&gt;Node14</title>
<path fill="none" stroke="midnightblue" d="M1058,-157.8C1058,-148.91 1058,-138.78 1058,-131.75"/>
<polygon fill="midnightblue" stroke="midnightblue" points="1054.5,-158.08 1058,-168.08 1061.5,-158.08 1054.5,-158.08"/>
</g>
<!-- Node13&#45;&gt;Node15 -->
<g id="edge25" class="edge">
<title>Node13&#45;&gt;Node15</title>
<path fill="none" stroke="midnightblue" d="M1035.32,-162.49C1024.37,-154.56 1011.75,-143.93 1003,-132 989.92,-114.16 982.3,-88.83 978.98,-75.68"/>
<polygon fill="midnightblue" stroke="midnightblue" points="1033.42,-165.43 1043.63,-168.24 1037.4,-159.67 1033.42,-165.43"/>
</g>
<!-- Node21 -->
<g id="node21" class="node">
<title>Node21</title>
<g id="a_node21"><a xlink:href="_act_src_disk_op___turbine_8_h.html" target="_top" xlink:title=" ">
<polygon fill="white" stroke="black" points="710,-112.5 710,-131.5 844,-131.5 844,-112.5 710,-112.5"/>
<text text-anchor="middle" x="777" y="-119.5" font-family="Helvetica,sans-Serif" font-size="10.00">ActSrcDiskOp_Turbine.H</text>
</a>
</g>
</g>
<!-- Node13&#45;&gt;Node21 -->
<g id="edge26" class="edge">
<title>Node13&#45;&gt;Node21</title>
<path fill="none" stroke="midnightblue" d="M1003.55,-166.54C950.45,-156.33 870.66,-141 821.32,-131.52"/>
<polygon fill="midnightblue" stroke="midnightblue" points="1002.99,-169.99 1013.47,-168.44 1004.31,-163.12 1002.99,-169.99"/>
</g>
<!-- Node22 -->
<g id="node22" class="node">
<title>Node22</title>
<g id="a_node22"><a xlink:href="_act_src_disk_op_8_h.html" target="_top" xlink:title=" ">
<polygon fill="white" stroke="black" points="862.5,-112.5 862.5,-131.5 955.5,-131.5 955.5,-112.5 862.5,-112.5"/>
<text text-anchor="middle" x="909" y="-119.5" font-family="Helvetica,sans-Serif" font-size="10.00">ActSrcDiskOp.H</text>
</a>
</g>
</g>
<!-- Node13&#45;&gt;Node22 -->
<g id="edge28" class="edge">
<title>Node13&#45;&gt;Node22</title>
<path fill="none" stroke="midnightblue" d="M1024.63,-164.91C996.62,-154.75 957.3,-140.51 932.5,-131.52"/>
<polygon fill="midnightblue" stroke="midnightblue" points="1023.8,-168.33 1034.39,-168.44 1026.18,-161.75 1023.8,-168.33"/>
</g>
<!-- Node23 -->
<g id="node23" class="node">
<title>Node23</title>
<g id="a_node23"><a xlink:href="disk__ops_8_h.html" target="_top" xlink:title=" ">
<polygon fill="white" stroke="black" points="584,-112.5 584,-131.5 654,-131.5 654,-112.5 584,-112.5"/>
<text text-anchor="middle" x="619" y="-119.5" font-family="Helvetica,sans-Serif" font-size="10.00">disk_ops.H</text>
</a>
</g>
</g>
<!-- Node13&#45;&gt;Node23 -->
<g id="edge30" class="edge">
<title>Node13&#45;&gt;Node23</title>
<path fill="none" stroke="midnightblue" d="M1002.47,-170.17C910.75,-158.89 730.17,-136.67 654.1,-127.32"/>
<polygon fill="midnightblue" stroke="midnightblue" points="1002.32,-173.68 1012.67,-171.42 1003.17,-166.73 1002.32,-173.68"/>
</g>
<!-- Node29 -->
<g id="node29" class="node">
<title>Node29</title>
<g id="a_node29"><a xlink:href="turbine__fast__ops_8_h.html" target="_top" xlink:title=" ">
<polygon fill="white" stroke="black" points="1290,-112.5 1290,-131.5 1398,-131.5 1398,-112.5 1290,-112.5"/>
<text text-anchor="middle" x="1344" y="-119.5" font-family="Helvetica,sans-Serif" font-size="10.00">turbine_fast_ops.H</text>
</a>
</g>
</g>
<!-- Node13&#45;&gt;Node29 -->
<g id="edge38" class="edge">
<title>Node13&#45;&gt;Node29</title>
<path fill="none" stroke="midnightblue" d="M1113.09,-166.6C1167.1,-156.4 1248.46,-141.04 1298.79,-131.54"/>
<polygon fill="midnightblue" stroke="midnightblue" points="1112.18,-163.21 1103,-168.5 1113.48,-170.09 1112.18,-163.21"/>
</g>
<!-- Node30 -->
<g id="node30" class="node">
<title>Node30</title>
<g id="a_node30"><a xlink:href="fixed__wing__ops_8_h.html" target="_top" xlink:title=" ">
<polygon fill="white" stroke="black" points="1056.5,-56.5 1056.5,-75.5 1157.5,-75.5 1157.5,-56.5 1056.5,-56.5"/>
<text text-anchor="middle" x="1107" y="-63.5" font-family="Helvetica,sans-Serif" font-size="10.00">fixed_wing_ops.H</text>
</a>
</g>
</g>
<!-- Node13&#45;&gt;Node30 -->
<g id="edge40" class="edge">
<title>Node13&#45;&gt;Node30</title>
<path fill="none" stroke="midnightblue" d="M1083.86,-162.95C1095.01,-155.38 1106.87,-144.93 1113,-132 1121.74,-113.57 1115.22,-88.92 1110.58,-75.91"/>
<polygon fill="midnightblue" stroke="midnightblue" points="1081.81,-160.1 1075.2,-168.39 1085.53,-166.03 1081.81,-160.1"/>
</g>
<!-- Node13&#45;&gt;Node31 -->
<g id="edge42" class="edge">
<title>Node13&#45;&gt;Node31</title>
<path fill="none" stroke="midnightblue" d="M1095.9,-165.44C1129.28,-155.26 1177.1,-140.66 1207.09,-131.52"/>
<polygon fill="midnightblue" stroke="midnightblue" points="1094.59,-162.18 1086.05,-168.44 1096.63,-168.87 1094.59,-162.18"/>
</g>
<!-- Node32 -->
<g id="node32" class="node">
<title>Node32</title>
<g id="a_node32"><a xlink:href="flat__plate__ops_8_h.html" target="_top" xlink:title=" ">
<polygon fill="white" stroke="black" points="1175.5,-56.5 1175.5,-75.5 1270.5,-75.5 1270.5,-56.5 1175.5,-56.5"/>
<text text-anchor="middle" x="1223" y="-63.5" font-family="Helvetica,sans-Serif" font-size="10.00">flat_plate_ops.H</text>
</a>
</g>
</g>
<!-- Node13&#45;&gt;Node32 -->
<g id="edge47" class="edge">
<title>Node13&#45;&gt;Node32</title>
<path fill="none" stroke="midnightblue" d="M1080.51,-163.05C1094.54,-154.28 1112.93,-142.64 1129,-132 1158.78,-112.28 1193.15,-88.16 1210.94,-75.57"/>
<polygon fill="midnightblue" stroke="midnightblue" points="1078.62,-160.11 1071.98,-168.37 1082.32,-166.05 1078.62,-160.11"/>
</g>
<!-- Node14&#45;&gt;Node15 -->
<g id="edge19" class="edge">
<title>Node14&#45;&gt;Node15</title>
<path fill="none" stroke="midnightblue" d="M1036.43,-106.62C1021.64,-96.76 1002.49,-83.99 989.98,-75.65"/>
<polygon fill="midnightblue" stroke="midnightblue" points="1034.72,-109.69 1044.99,-112.32 1038.61,-103.86 1034.72,-109.69"/>
</g>
<!-- Node15&#45;&gt;Node16 -->
<g id="edge20" class="edge">
<title>Node15&#45;&gt;Node16</title>
<path fill="none" stroke="midnightblue" d="M917.54,-56.59C916.01,-56.39 914.5,-56.19 913,-56 775.87,-38.37 740.7,-40.75 604,-20 600.98,-19.54 597.86,-19.03 594.73,-18.5"/>
<polygon fill="midnightblue" stroke="midnightblue" points="917.37,-60.1 927.75,-57.95 918.3,-53.16 917.37,-60.1"/>
</g>
<!-- Node17 -->
<g id="node17" class="node">
<title>Node17</title>
<g id="a_node17"><a xlink:href="_actuator_disk_8cpp.html" target="_top" xlink:title=" ">
<polygon fill="white" stroke="black" points="892,-0.5 892,-19.5 992,-19.5 992,-0.5 892,-0.5"/>
<text text-anchor="middle" x="942" y="-7.5" font-family="Helvetica,sans-Serif" font-size="10.00">ActuatorDisk.cpp</text>
</a>
</g>
</g>
<!-- Node15&#45;&gt;Node17 -->
<g id="edge21" class="edge">
<title>Node15&#45;&gt;Node17</title>
<path fill="none" stroke="midnightblue" d="M965.7,-47.57C959.68,-38.27 952.53,-27.25 947.67,-19.75"/>
<polygon fill="midnightblue" stroke="midnightblue" points="962.84,-49.6 971.22,-56.08 968.72,-45.79 962.84,-49.6"/>
</g>
<!-- Node18 -->
<g id="node18" class="node">
<title>Node18</title>
<g id="a_node18"><a xlink:href="_turbine_fast_8cpp.html" target="_top" xlink:title=" ">
<polygon fill="white" stroke="black" points="1232,-0.5 1232,-19.5 1324,-19.5 1324,-0.5 1232,-0.5"/>
<text text-anchor="middle" x="1278" y="-7.5" font-family="Helvetica,sans-Serif" font-size="10.00">TurbineFast.cpp</text>
</a>
</g>
</g>
<!-- Node15&#45;&gt;Node18 -->
<g id="edge22" class="edge">
<title>Node15&#45;&gt;Node18</title>
<path fill="none" stroke="midnightblue" d="M1034.67,-54.65C1091.91,-44.38 1178.54,-28.84 1231.52,-19.34"/>
<polygon fill="midnightblue" stroke="midnightblue" points="1033.92,-51.23 1024.69,-56.44 1035.16,-58.12 1033.92,-51.23"/>
</g>
<!-- Node19 -->
<g id="node19" class="node">
<title>Node19</title>
<g id="a_node19"><a xlink:href="_fixed_wing_8cpp.html" target="_top" xlink:title=" ">
<polygon fill="white" stroke="black" points="1020.5,-0.5 1020.5,-19.5 1107.5,-19.5 1107.5,-0.5 1020.5,-0.5"/>
<text text-anchor="middle" x="1064" y="-7.5" font-family="Helvetica,sans-Serif" font-size="10.00">FixedWing.cpp</text>
</a>
</g>
</g>
<!-- Node15&#45;&gt;Node19 -->
<g id="edge23" class="edge">
<title>Node15&#45;&gt;Node19</title>
<path fill="none" stroke="midnightblue" d="M999.72,-50.9C1015.67,-41 1036.5,-28.07 1050.06,-19.65"/>
<polygon fill="midnightblue" stroke="midnightblue" points="997.63,-48.08 990.98,-56.32 1001.32,-54.02 997.63,-48.08"/>
</g>
<!-- Node20 -->
<g id="node20" class="node">
<title>Node20</title>
<g id="a_node20"><a xlink:href="_flat_plate_8cpp.html" target="_top" xlink:title=" ">
<polygon fill="white" stroke="black" points="1131,-0.5 1131,-19.5 1211,-19.5 1211,-0.5 1131,-0.5"/>
<text text-anchor="middle" x="1171" y="-7.5" font-family="Helvetica,sans-Serif" font-size="10.00">FlatPlate.cpp</text>
</a>
</g>
</g>
<!-- Node15&#45;&gt;Node20 -->
<g id="edge24" class="edge">
<title>Node15&#45;&gt;Node20</title>
<path fill="none" stroke="midnightblue" d="M1017.6,-53.7C1054.22,-43.51 1107.26,-28.74 1140.4,-19.52"/>
<polygon fill="midnightblue" stroke="midnightblue" points="1016.44,-50.39 1007.74,-56.44 1018.31,-57.13 1016.44,-50.39"/>
</g>
<!-- Node21&#45;&gt;Node15 -->
<g id="edge27" class="edge">
<title>Node21&#45;&gt;Node15</title>
<path fill="none" stroke="midnightblue" d="M818.37,-109.83C856.14,-99.63 911.14,-84.78 945.46,-75.52"/>
<polygon fill="midnightblue" stroke="midnightblue" points="817.43,-106.46 808.69,-112.44 819.26,-113.22 817.43,-106.46"/>
</g>
<!-- Node22&#45;&gt;Node15 -->
<g id="edge29" class="edge">
<title>Node22&#45;&gt;Node15</title>
<path fill="none" stroke="midnightblue" d="M927.76,-106.1C940,-96.38 955.56,-84.03 965.88,-75.83"/>
<polygon fill="midnightblue" stroke="midnightblue" points="925.58,-103.36 919.93,-112.32 929.93,-108.85 925.58,-103.36"/>
</g>
<!-- Node24 -->
<g id="node24" class="node">
<title>Node24</title>
<g id="a_node24"><a xlink:href="uniform__ct__ops_8_h.html" target="_top" xlink:title=" ">
<polygon fill="white" stroke="black" points="584,-56.5 584,-75.5 686,-75.5 686,-56.5 584,-56.5"/>
<text text-anchor="middle" x="635" y="-63.5" font-family="Helvetica,sans-Serif" font-size="10.00">uniform_ct_ops.H</text>
</a>
</g>
</g>
<!-- Node23&#45;&gt;Node24 -->
<g id="edge31" class="edge">
<title>Node23&#45;&gt;Node24</title>
<path fill="none" stroke="midnightblue" d="M624.51,-102.4C627.19,-93.36 630.28,-82.94 632.41,-75.75"/>
<polygon fill="midnightblue" stroke="midnightblue" points="621.13,-101.5 621.64,-112.08 627.84,-103.49 621.13,-101.5"/>
</g>
<!-- Node26 -->
<g id="node26" class="node">
<title>Node26</title>
<g id="a_node26"><a xlink:href="_joukowsky__ops_8_h.html" target="_top" xlink:title=" ">
<polygon fill="white" stroke="black" points="802.5,-56.5 802.5,-75.5 903.5,-75.5 903.5,-56.5 802.5,-56.5"/>
<text text-anchor="middle" x="853" y="-63.5" font-family="Helvetica,sans-Serif" font-size="10.00">Joukowsky_ops.H</text>
</a>
</g>
</g>
<!-- Node23&#45;&gt;Node26 -->
<g id="edge34" class="edge">
<title>Node23&#45;&gt;Node26</title>
<path fill="none" stroke="midnightblue" d="M663.91,-110.64C708.02,-100.46 774.54,-85.11 815.79,-75.59"/>
<polygon fill="midnightblue" stroke="midnightblue" points="662.99,-107.26 654.03,-112.92 664.56,-114.08 662.99,-107.26"/>
</g>
<!-- Node28 -->
<g id="node28" class="node">
<title>Node28</title>
<g id="a_node28"><a xlink:href="disk__ops_8cpp.html" target="_top" xlink:title=" ">
<polygon fill="white" stroke="black" points="704,-56.5 704,-75.5 784,-75.5 784,-56.5 704,-56.5"/>
<text text-anchor="middle" x="744" y="-63.5" font-family="Helvetica,sans-Serif" font-size="10.00">disk_ops.cpp</text>
</a>
</g>
</g>
<!-- Node23&#45;&gt;Node28 -->
<g id="edge37" class="edge">
<title>Node23&#45;&gt;Node28</title>
<path fill="none" stroke="midnightblue" d="M648.24,-108.37C671.65,-98.26 703.84,-84.35 724.29,-75.52"/>
<polygon fill="midnightblue" stroke="midnightblue" points="646.6,-105.26 638.81,-112.44 649.37,-111.69 646.6,-105.26"/>
</g>
<!-- Node24&#45;&gt;Node17 -->
<g id="edge32" class="edge">
<title>Node24&#45;&gt;Node17</title>
<path fill="none" stroke="midnightblue" d="M693.76,-54.66C751.78,-44.46 839.45,-29.04 893.58,-19.52"/>
<polygon fill="midnightblue" stroke="midnightblue" points="692.89,-51.26 683.65,-56.44 694.1,-58.16 692.89,-51.26"/>
</g>
<!-- Node25 -->
<g id="node25" class="node">
<title>Node25</title>
<g id="a_node25"><a xlink:href="uniform__ct__ops_8cpp.html" target="_top" xlink:title=" ">
<polygon fill="white" stroke="black" points="613,-0.5 613,-19.5 725,-19.5 725,-0.5 613,-0.5"/>
<text text-anchor="middle" x="669" y="-7.5" font-family="Helvetica,sans-Serif" font-size="10.00">uniform_ct_ops.cpp</text>
</a>
</g>
</g>
<!-- Node24&#45;&gt;Node25 -->
<g id="edge33" class="edge">
<title>Node24&#45;&gt;Node25</title>
<path fill="none" stroke="midnightblue" d="M645.98,-47.57C651.83,-38.27 658.77,-27.25 663.49,-19.75"/>
<polygon fill="midnightblue" stroke="midnightblue" points="642.98,-45.76 640.61,-56.08 648.9,-49.49 642.98,-45.76"/>
</g>
<!-- Node26&#45;&gt;Node17 -->
<g id="edge35" class="edge">
<title>Node26&#45;&gt;Node17</title>
<path fill="none" stroke="midnightblue" d="M876.24,-50.9C892.56,-41 913.87,-28.07 927.74,-19.65"/>
<polygon fill="midnightblue" stroke="midnightblue" points="874.03,-48.14 867.3,-56.32 877.66,-54.13 874.03,-48.14"/>
</g>
<!-- Node27 -->
<g id="node27" class="node">
<title>Node27</title>
<g id="a_node27"><a xlink:href="_joukowsky__ops_8cpp.html" target="_top" xlink:title=" ">
<polygon fill="white" stroke="black" points="764,-0.5 764,-19.5 874,-19.5 874,-0.5 764,-0.5"/>
<text text-anchor="middle" x="819" y="-7.5" font-family="Helvetica,sans-Serif" font-size="10.00">Joukowsky_ops.cpp</text>
</a>
</g>
</g>
<!-- Node26&#45;&gt;Node27 -->
<g id="edge36" class="edge">
<title>Node26&#45;&gt;Node27</title>
<path fill="none" stroke="midnightblue" d="M842.02,-47.57C836.17,-38.27 829.23,-27.25 824.51,-19.75"/>
<polygon fill="midnightblue" stroke="midnightblue" points="839.1,-49.49 847.39,-56.08 845.02,-45.76 839.1,-49.49"/>
</g>
<!-- Node29&#45;&gt;Node18 -->
<g id="edge39" class="edge">
<title>Node29&#45;&gt;Node18</title>
<path fill="none" stroke="midnightblue" d="M1333.58,-103.64C1319.25,-79.74 1293.98,-37.63 1283.15,-19.59"/>
<polygon fill="midnightblue" stroke="midnightblue" points="1330.67,-105.59 1338.82,-112.37 1336.68,-101.99 1330.67,-105.59"/>
</g>
<!-- Node30&#45;&gt;Node19 -->
<g id="edge41" class="edge">
<title>Node30&#45;&gt;Node19</title>
<path fill="none" stroke="midnightblue" d="M1093.58,-48.14C1086.09,-38.74 1077.06,-27.4 1070.97,-19.75"/>
<polygon fill="midnightblue" stroke="midnightblue" points="1090.93,-50.44 1099.9,-56.08 1096.41,-46.08 1090.93,-50.44"/>
</g>
<!-- Node31&#45;&gt;Node30 -->
<g id="edge43" class="edge">
<title>Node31&#45;&gt;Node30</title>
<path fill="none" stroke="midnightblue" d="M1205.38,-108.5C1181.38,-98.38 1148.22,-84.39 1127.19,-75.52"/>
<polygon fill="midnightblue" stroke="midnightblue" points="1204.14,-111.78 1214.72,-112.44 1206.86,-105.33 1204.14,-111.78"/>
</g>
<!-- Node31&#45;&gt;Node32 -->
<g id="edge44" class="edge">
<title>Node31&#45;&gt;Node32</title>
<path fill="none" stroke="midnightblue" d="M1230.8,-102.1C1228.81,-93.14 1226.52,-82.86 1224.94,-75.75"/>
<polygon fill="midnightblue" stroke="midnightblue" points="1227.43,-103.08 1233.02,-112.08 1234.27,-101.56 1227.43,-103.08"/>
</g>
<!-- Node31&#45;&gt;Node33 -->
<g id="edge46" class="edge">
<title>Node31&#45;&gt;Node33</title>
<path fill="none" stroke="midnightblue" d="M1281.4,-110.15C1325.05,-99.95 1389.51,-84.88 1429.57,-75.52"/>
<polygon fill="midnightblue" stroke="midnightblue" points="1280.54,-106.76 1271.6,-112.44 1282.14,-113.58 1280.54,-106.76"/>
</g>
<!-- Node32&#45;&gt;Node20 -->
<g id="edge45" class="edge">
<title>Node32&#45;&gt;Node20</title>
<path fill="none" stroke="midnightblue" d="M1207.32,-48.72C1198.16,-39.2 1186.95,-27.56 1179.43,-19.75"/>
<polygon fill="midnightblue" stroke="midnightblue" points="1204.96,-51.31 1214.41,-56.08 1210,-46.45 1204.96,-51.31"/>
</g>
<!-- Node34&#45;&gt;Node29 -->
<g id="edge51" class="edge">
<title>Node34&#45;&gt;Node29</title>
<path fill="none" stroke="midnightblue" d="M1344,-157.8C1344,-148.91 1344,-138.78 1344,-131.75"/>
<polygon fill="midnightblue" stroke="midnightblue" points="1340.5,-158.08 1344,-168.08 1347.5,-158.08 1340.5,-158.08"/>
</g>
<!-- Node35 -->
<g id="node35" class="node">
<title>Node35</title>
<g id="a_node35"><a xlink:href="turbine__utils_8cpp.html" target="_top" xlink:title=" ">
<polygon fill="white" stroke="black" points="1416,-112.5 1416,-131.5 1514,-131.5 1514,-112.5 1416,-112.5"/>
<text text-anchor="middle" x="1465" y="-119.5" font-family="Helvetica,sans-Serif" font-size="10.00">turbine_utils.cpp</text>
</a>
</g>
</g>
<!-- Node34&#45;&gt;Node35 -->
<g id="edge52" class="edge">
<title>Node34&#45;&gt;Node35</title>
<path fill="none" stroke="midnightblue" d="M1372.31,-164.37C1394.97,-154.26 1426.13,-140.35 1445.92,-131.52"/>
<polygon fill="midnightblue" stroke="midnightblue" points="1370.88,-161.17 1363.17,-168.44 1373.73,-167.56 1370.88,-161.17"/>
</g>
</g>
</svg>
        <g id="navigator" transform="translate(0 0)" fill="#404254">
                <rect fill="#f2f5e9" fill-opacity="0.5" stroke="#606060" stroke-width=".5" x="0" y="0" width="60" height="60"/>
                <use id="zoomplus" xlink:href="#zoomPlus" x="17" y="9" onmousedown="handleZoom(evt,'in')"/>
                <use id="zoomminus" xlink:href="#zoomMin" x="42" y="9" onmousedown="handleZoom(evt,'out')"/>
                <use id="reset" xlink:href="#resetDef" x="30" y="36" onmousedown="handleReset()"/>
                <g id="arrowUp" xlink:href="#dirArrow" transform="translate(30 24)" onmousedown="handlePan(0,-1)">
                  <use xlink:href="#rim" fill="#404040">
                        <set attributeName="fill" to="#808080" begin="arrowUp.mouseover" end="arrowUp.mouseout"/>
                  </use>
                  <path fill="none" stroke="white" stroke-width="1.5" d="M0,-3.0v7 M-2.5,-0.5L0,-3.0L2.5,-0.5"/>
                </g>
                <g id="arrowRight" xlink:href="#dirArrow" transform="rotate(90) translate(36 -43)" onmousedown="handlePan(1,0)">
                  <use xlink:href="#rim" fill="#404040">
                        <set attributeName="fill" to="#808080" begin="arrowRight.mouseover" end="arrowRight.mouseout"/>
                  </use>
                  <path fill="none" stroke="white" stroke-width="1.5" d="M0,-3.0v7 M-2.5,-0.5L0,-3.0L2.5,-0.5"/>
                </g>
                <g id="arrowDown" xlink:href="#dirArrow" transform="rotate(180) translate(-30 -48)" onmousedown="handlePan(0,1)">
                  <use xlink:href="#rim" fill="#404040">
                        <set attributeName="fill" to="#808080" begin="arrowDown.mouseover" end="arrowDown.mouseout"/>
                  </use>
                  <path fill="none" stroke="white" stroke-width="1.5" d="M0,-3.0v7 M-2.5,-0.5L0,-3.0L2.5,-0.5"/>
                </g>
                <g id="arrowLeft" xlink:href="#dirArrow" transform="rotate(270) translate(-36 17)" onmousedown="handlePan(-1,0)">
                  <use xlink:href="#rim" fill="#404040">
                        <set attributeName="fill" to="#808080" begin="arrowLeft.mouseover" end="arrowLeft.mouseout"/>
                  </use>
                  <path fill="none" stroke="white" stroke-width="1.5" d="M0,-3.0v7 M-2.5,-0.5L0,-3.0L2.5,-0.5"/>
                </g>
        </g>
        <svg viewBox="0 0 15 15" width="100%" height="30px" preserveAspectRatio="xMaxYMin meet">
         <g id="arrow_out" transform="scale(0.3 0.3)">
          <a xlink:href="_multi_parser_8_h__dep__incl_org.svg" target="_base">
           <rect id="button" ry="5" rx="5" y="6" x="6" height="38" width="38"
                fill="#f2f5e9" fill-opacity="0.5" stroke="#606060" stroke-width="1.0"/>
           <path id="arrow"
             d="M 11.500037,31.436501 C 11.940474,20.09759 22.043105,11.32322 32.158766,21.979434 L 37.068811,17.246167 C 37.068811,17.246167 37.088388,32 37.088388,32 L 22.160133,31.978069 C 22.160133,31.978069 26.997745,27.140456 26.997745,27.140456 C 18.528582,18.264221 13.291696,25.230495 11.500037,31.436501 z"
             style="fill:#404040;"/>
          </a>
         </g>
        </svg>
</svg>
