<?xml version="1.0" encoding="UTF-8" standalone="no"?>
<!DOCTYPE svg PUBLIC "-//W3C//DTD SVG 1.1//EN"
 "http://www.w3.org/Graphics/SVG/1.1/DTD/svg11.dtd">
<!-- Generated by graphviz version 2.43.0 (0)
 -->
<!-- Title: actuator_types.H Pages: 1 -->
<!--zoomable 420 -->
<svg id="main" version="1.1" xmlns="http://www.w3.org/2000/svg" xmlns:xlink="http://www.w3.org/1999/xlink" xml:space="preserve" onload="init(evt)">
<style type="text/css"><![CDATA[
.edge:hover path { stroke: red; }
.edge:hover polygon { stroke: red; fill: red; }
]]></style>
<script type="text/javascript"><![CDATA[
var edges = document.getElementsByTagName('g');
if (edges && edges.length) {
  for (var i=0;i<edges.length;i++) {
    if (edges[i].id.substr(0,4)=='edge') {
      edges[i].setAttribute('class','edge');
    }
  }
}
]]></script>
        <defs>
                <circle id="rim" cx="0" cy="0" r="7"/>
                <circle id="rim2" cx="0" cy="0" r="3.5"/>
                <g id="zoomPlus">
                        <use xlink:href="#rim" fill="#404040">
                                <set attributeName="fill" to="#808080" begin="zoomplus.mouseover" end="zoomplus.mouseout"/>
                        </use>
                        <path d="M-4,0h8M0,-4v8" fill="none" stroke="white" stroke-width="1.5" pointer-events="none"/>
                </g>
                <g id="zoomMin">
                        <use xlink:href="#rim" fill="#404040">
                                <set attributeName="fill" to="#808080" begin="zoomminus.mouseover" end="zoomminus.mouseout"/>
                        </use>
                        <path d="M-4,0h8" fill="none" stroke="white" stroke-width="1.5" pointer-events="none"/>
                </g>
                <g id="dirArrow">
                        <path fill="none" stroke="white" stroke-width="1.5" d="M0,-3.0v7 M-2.5,-0.5L0,-3.0L2.5,-0.5"/>
                </g>
               <g id="resetDef">
                       <use xlink:href="#rim2" fill="#404040">
                               <set attributeName="fill" to="#808080" begin="reset.mouseover" end="reset.mouseout"/>
                       </use>
               </g>
        </defs>

<script type="text/javascript">
var viewWidth = 1710;
var viewHeight = 420;
var sectionId = 'dynsection-1';
</script>
<script xlink:href="svgpan.js"/>
<svg id="graph" class="graph">
<g id="viewport">
<title>actuator_types.H</title>
<polygon fill="white" stroke="transparent" points="-4,4 -4,-416 1705.8,-416 1705.8,4 -4,4"/>
<!-- Node1 -->
<g id="node1" class="node">
<title>Node1</title>
<g id="a_node1"><a xlink:title=" ">
<polygon fill="#bfbfbf" stroke="black" points="1054.8,-392.5 1054.8,-411.5 1154.8,-411.5 1154.8,-392.5 1054.8,-392.5"/>
<text text-anchor="middle" x="1104.8" y="-399.5" font-family="Helvetica,sans-Serif" font-size="10.00">actuator_types.H</text>
</a>
</g>
</g>
<!-- Node2 -->
<g id="node2" class="node">
<title>Node2</title>
<g id="a_node2"><a xlink:href="_act_src_line_op_8_h.html" target="_top" xlink:title=" ">
<polygon fill="white" stroke="black" points="1006.8,-112.5 1006.8,-131.5 1098.8,-131.5 1098.8,-112.5 1006.8,-112.5"/>
<text text-anchor="middle" x="1052.8" y="-119.5" font-family="Helvetica,sans-Serif" font-size="10.00">ActSrcLineOp.H</text>
</a>
</g>
</g>
<!-- Node1&#45;&gt;Node2 -->
<g id="edge1" class="edge">
<title>Node1&#45;&gt;Node2</title>
<path fill="none" stroke="midnightblue" d="M1086.05,-385.68C1064.42,-366.16 1031.8,-330.22 1031.8,-291 1031.8,-291 1031.8,-291 1031.8,-233 1031.8,-194.7 1044.24,-150.21 1049.97,-131.73"/>
<polygon fill="midnightblue" stroke="midnightblue" points="1083.87,-388.42 1093.71,-392.33 1088.45,-383.13 1083.87,-388.42"/>
</g>
<!-- Node3 -->
<g id="node3" class="node">
<title>Node3</title>
<g id="a_node3"><a xlink:href="_actuator_model_8_h.html" target="_top" xlink:title=" ">
<polygon fill="white" stroke="black" points="929.8,-56.5 929.8,-75.5 1027.8,-75.5 1027.8,-56.5 929.8,-56.5"/>
<text text-anchor="middle" x="978.8" y="-63.5" font-family="Helvetica,sans-Serif" font-size="10.00">ActuatorModel.H</text>
</a>
</g>
</g>
<!-- Node1&#45;&gt;Node3 -->
<g id="edge33" class="edge">
<title>Node1&#45;&gt;Node3</title>
<path fill="none" stroke="midnightblue" d="M1070.97,-388.5C1033.65,-372.26 978.8,-340.05 978.8,-291 978.8,-291 978.8,-291 978.8,-177 978.8,-139.19 978.8,-94.06 978.8,-75.56"/>
<polygon fill="midnightblue" stroke="midnightblue" points="1069.93,-391.86 1080.51,-392.47 1072.62,-385.39 1069.93,-391.86"/>
</g>
<!-- Node9 -->
<g id="node9" class="node">
<title>Node9</title>
<g id="a_node9"><a xlink:href="actuator__ops_8_h.html" target="_top" xlink:title=" ">
<polygon fill="white" stroke="black" points="1059.8,-168.5 1059.8,-187.5 1149.8,-187.5 1149.8,-168.5 1059.8,-168.5"/>
<text text-anchor="middle" x="1104.8" y="-175.5" font-family="Helvetica,sans-Serif" font-size="10.00">actuator_ops.H</text>
</a>
</g>
</g>
<!-- Node1&#45;&gt;Node9 -->
<g id="edge8" class="edge">
<title>Node1&#45;&gt;Node9</title>
<path fill="none" stroke="midnightblue" d="M1104.8,-382.3C1104.8,-336.64 1104.8,-220.85 1104.8,-187.88"/>
<polygon fill="midnightblue" stroke="midnightblue" points="1101.3,-382.3 1104.8,-392.3 1108.3,-382.3 1101.3,-382.3"/>
</g>
<!-- Node20 -->
<g id="node20" class="node">
<title>Node20</title>
<g id="a_node20"><a xlink:href="wing__ops_8_h.html" target="_top" xlink:title=" ">
<polygon fill="white" stroke="black" points="1231.3,-112.5 1231.3,-131.5 1304.3,-131.5 1304.3,-112.5 1231.3,-112.5"/>
<text text-anchor="middle" x="1267.8" y="-119.5" font-family="Helvetica,sans-Serif" font-size="10.00">wing_ops.H</text>
</a>
</g>
</g>
<!-- Node1&#45;&gt;Node20 -->
<g id="edge72" class="edge">
<title>Node1&#45;&gt;Node20</title>
<path fill="none" stroke="midnightblue" d="M1123.55,-385.68C1145.18,-366.16 1177.8,-330.22 1177.8,-291 1177.8,-291 1177.8,-291 1177.8,-233 1177.8,-185.87 1227.9,-147.84 1253.34,-131.56"/>
<polygon fill="midnightblue" stroke="midnightblue" points="1121.14,-383.13 1115.89,-392.33 1125.73,-388.42 1121.14,-383.13"/>
</g>
<!-- Node23 -->
<g id="node23" class="node">
<title>Node23</title>
<g id="a_node23"><a xlink:href="turbine__types_8_h.html" target="_top" xlink:title=" ">
<polygon fill="white" stroke="black" points="140.8,-168.5 140.8,-187.5 234.8,-187.5 234.8,-168.5 140.8,-168.5"/>
<text text-anchor="middle" x="187.8" y="-175.5" font-family="Helvetica,sans-Serif" font-size="10.00">turbine_types.H</text>
</a>
</g>
</g>
<!-- Node1&#45;&gt;Node23 -->
<g id="edge34" class="edge">
<title>Node1&#45;&gt;Node23</title>
<path fill="none" stroke="midnightblue" d="M1044.16,-397.2C963.78,-391.52 817.75,-378.93 694.8,-356 599.42,-338.21 575.78,-330.86 483.8,-300 376.69,-264.06 252.83,-208.8 206.53,-187.64"/>
<polygon fill="midnightblue" stroke="midnightblue" points="1044.37,-400.72 1054.59,-397.93 1044.85,-393.74 1044.37,-400.72"/>
</g>
<!-- Node27 -->
<g id="node27" class="node">
<title>Node27</title>
<g id="a_node27"><a xlink:href="disk__types_8_h.html" target="_top" xlink:title=" ">
<polygon fill="white" stroke="black" points="703.8,-336.5 703.8,-355.5 783.8,-355.5 783.8,-336.5 703.8,-336.5"/>
<text text-anchor="middle" x="743.8" y="-343.5" font-family="Helvetica,sans-Serif" font-size="10.00">disk_types.H</text>
</a>
</g>
</g>
<!-- Node1&#45;&gt;Node27 -->
<g id="edge42" class="edge">
<title>Node1&#45;&gt;Node27</title>
<path fill="none" stroke="midnightblue" d="M1044.5,-391.98C970.5,-380.91 847.08,-362.45 783.84,-352.99"/>
<polygon fill="midnightblue" stroke="midnightblue" points="1044.2,-395.47 1054.6,-393.49 1045.23,-388.55 1044.2,-395.47"/>
</g>
<!-- Node32 -->
<g id="node32" class="node">
<title>Node32</title>
<g id="a_node32"><a xlink:href="actuator__utils_8cpp.html" target="_top" xlink:title=" ">
<polygon fill="white" stroke="black" points="1281.8,-336.5 1281.8,-355.5 1385.8,-355.5 1385.8,-336.5 1281.8,-336.5"/>
<text text-anchor="middle" x="1333.8" y="-343.5" font-family="Helvetica,sans-Serif" font-size="10.00">actuator_utils.cpp</text>
</a>
</g>
</g>
<!-- Node1&#45;&gt;Node32 -->
<g id="edge56" class="edge">
<title>Node1&#45;&gt;Node32</title>
<path fill="none" stroke="midnightblue" d="M1151.07,-390.09C1194.34,-379.89 1258.06,-364.86 1297.68,-355.52"/>
<polygon fill="midnightblue" stroke="midnightblue" points="1150.02,-386.74 1141.09,-392.44 1151.62,-393.55 1150.02,-386.74"/>
</g>
<!-- Node33 -->
<g id="node33" class="node">
<title>Node33</title>
<g id="a_node33"><a xlink:href="_airfoil_table_8_h.html" target="_top" xlink:title=" ">
<polygon fill="white" stroke="black" points="1408.8,-168.5 1408.8,-187.5 1490.8,-187.5 1490.8,-168.5 1408.8,-168.5"/>
<text text-anchor="middle" x="1449.8" y="-175.5" font-family="Helvetica,sans-Serif" font-size="10.00">AirfoilTable.H</text>
</a>
</g>
</g>
<!-- Node1&#45;&gt;Node33 -->
<g id="edge57" class="edge">
<title>Node1&#45;&gt;Node33</title>
<path fill="none" stroke="midnightblue" d="M1139.2,-388.96C1160.69,-380.86 1188.58,-369.26 1211.8,-356 1307.05,-301.62 1408.56,-215.2 1439.97,-187.7"/>
<polygon fill="midnightblue" stroke="midnightblue" points="1137.99,-385.68 1129.82,-392.43 1140.41,-392.25 1137.99,-385.68"/>
</g>
<!-- Node38 -->
<g id="node38" class="node">
<title>Node38</title>
<g id="a_node38"><a xlink:href="_actuator_wing_8_h.html" target="_top" xlink:title=" ">
<polygon fill="white" stroke="black" points="1259.3,-168.5 1259.3,-187.5 1352.3,-187.5 1352.3,-168.5 1259.3,-168.5"/>
<text text-anchor="middle" x="1305.8" y="-175.5" font-family="Helvetica,sans-Serif" font-size="10.00">ActuatorWing.H</text>
</a>
</g>
</g>
<!-- Node1&#45;&gt;Node38 -->
<g id="edge68" class="edge">
<title>Node1&#45;&gt;Node38</title>
<path fill="none" stroke="midnightblue" d="M1143,-388.52C1159.9,-381.33 1178.85,-370.73 1191.8,-356 1233.01,-309.11 1201.5,-273.29 1239.8,-224 1252.39,-207.79 1272.48,-195.28 1287.2,-187.62"/>
<polygon fill="midnightblue" stroke="midnightblue" points="1141.33,-385.41 1133.34,-392.37 1143.92,-391.92 1141.33,-385.41"/>
</g>
<!-- Node2&#45;&gt;Node3 -->
<g id="edge2" class="edge">
<title>Node2&#45;&gt;Node3</title>
<path fill="none" stroke="midnightblue" d="M1032.77,-106.38C1019.39,-96.62 1002.24,-84.11 990.91,-75.83"/>
<polygon fill="midnightblue" stroke="midnightblue" points="1030.77,-109.26 1040.91,-112.32 1034.9,-103.6 1030.77,-109.26"/>
</g>
<!-- Node4 -->
<g id="node4" class="node">
<title>Node4</title>
<g id="a_node4"><a xlink:href="_actuator_8cpp.html" target="_top" xlink:title=" ">
<polygon fill="white" stroke="black" points="940.3,-0.5 940.3,-19.5 1017.3,-19.5 1017.3,-0.5 940.3,-0.5"/>
<text text-anchor="middle" x="978.8" y="-7.5" font-family="Helvetica,sans-Serif" font-size="10.00">Actuator.cpp</text>
</a>
</g>
</g>
<!-- Node3&#45;&gt;Node4 -->
<g id="edge3" class="edge">
<title>Node3&#45;&gt;Node4</title>
<path fill="none" stroke="midnightblue" d="M978.8,-45.8C978.8,-36.91 978.8,-26.78 978.8,-19.75"/>
<polygon fill="midnightblue" stroke="midnightblue" points="975.3,-46.08 978.8,-56.08 982.3,-46.08 975.3,-46.08"/>
</g>
<!-- Node5 -->
<g id="node5" class="node">
<title>Node5</title>
<g id="a_node5"><a xlink:href="_actuator_disk_8cpp.html" target="_top" xlink:title=" ">
<polygon fill="white" stroke="black" points="591.8,-0.5 591.8,-19.5 691.8,-19.5 691.8,-0.5 591.8,-0.5"/>
<text text-anchor="middle" x="641.8" y="-7.5" font-family="Helvetica,sans-Serif" font-size="10.00">ActuatorDisk.cpp</text>
</a>
</g>
</g>
<!-- Node3&#45;&gt;Node5 -->
<g id="edge4" class="edge">
<title>Node3&#45;&gt;Node5</title>
<path fill="none" stroke="midnightblue" d="M919.77,-55.54C855.19,-45.19 752.8,-28.79 691.96,-19.04"/>
<polygon fill="midnightblue" stroke="midnightblue" points="919.37,-59.02 929.8,-57.15 920.48,-52.11 919.37,-59.02"/>
</g>
<!-- Node6 -->
<g id="node6" class="node">
<title>Node6</title>
<g id="a_node6"><a xlink:href="_turbine_fast_8cpp.html" target="_top" xlink:title=" ">
<polygon fill="white" stroke="black" points="137.8,-0.5 137.8,-19.5 229.8,-19.5 229.8,-0.5 137.8,-0.5"/>
<text text-anchor="middle" x="183.8" y="-7.5" font-family="Helvetica,sans-Serif" font-size="10.00">TurbineFast.cpp</text>
</a>
</g>
</g>
<!-- Node3&#45;&gt;Node6 -->
<g id="edge5" class="edge">
<title>Node3&#45;&gt;Node6</title>
<path fill="none" stroke="midnightblue" d="M919.57,-61.75C799.18,-55.01 517.24,-38.59 280.8,-20 264.28,-18.7 246.19,-17.08 230.16,-15.57"/>
<polygon fill="midnightblue" stroke="midnightblue" points="919.5,-65.25 929.68,-62.31 919.89,-58.26 919.5,-65.25"/>
</g>
<!-- Node7 -->
<g id="node7" class="node">
<title>Node7</title>
<g id="a_node7"><a xlink:href="_fixed_wing_8cpp.html" target="_top" xlink:title=" ">
<polygon fill="white" stroke="black" points="1327.3,-0.5 1327.3,-19.5 1414.3,-19.5 1414.3,-0.5 1327.3,-0.5"/>
<text text-anchor="middle" x="1370.8" y="-7.5" font-family="Helvetica,sans-Serif" font-size="10.00">FixedWing.cpp</text>
</a>
</g>
</g>
<!-- Node3&#45;&gt;Node7 -->
<g id="edge6" class="edge">
<title>Node3&#45;&gt;Node7</title>
<path fill="none" stroke="midnightblue" d="M1038.39,-56.79C1117.87,-45.84 1256.74,-26.71 1327.17,-17.01"/>
<polygon fill="midnightblue" stroke="midnightblue" points="1037.48,-53.38 1028.05,-58.22 1038.43,-60.32 1037.48,-53.38"/>
</g>
<!-- Node8 -->
<g id="node8" class="node">
<title>Node8</title>
<g id="a_node8"><a xlink:href="_flat_plate_8cpp.html" target="_top" xlink:title=" ">
<polygon fill="white" stroke="black" points="1175.8,-0.5 1175.8,-19.5 1255.8,-19.5 1255.8,-0.5 1175.8,-0.5"/>
<text text-anchor="middle" x="1215.8" y="-7.5" font-family="Helvetica,sans-Serif" font-size="10.00">FlatPlate.cpp</text>
</a>
</g>
</g>
<!-- Node3&#45;&gt;Node8 -->
<g id="edge7" class="edge">
<title>Node3&#45;&gt;Node8</title>
<path fill="none" stroke="midnightblue" d="M1026.12,-54.22C1070.91,-44.01 1137.24,-28.9 1178.42,-19.52"/>
<polygon fill="midnightblue" stroke="midnightblue" points="1025.33,-50.81 1016.35,-56.44 1026.88,-57.63 1025.33,-50.81"/>
</g>
<!-- Node9&#45;&gt;Node2 -->
<g id="edge9" class="edge">
<title>Node9&#45;&gt;Node2</title>
<path fill="none" stroke="midnightblue" d="M1089.12,-160.72C1079.96,-151.2 1068.75,-139.56 1061.23,-131.75"/>
<polygon fill="midnightblue" stroke="midnightblue" points="1086.76,-163.31 1096.21,-168.08 1091.8,-158.45 1086.76,-163.31"/>
</g>
<!-- Node9&#45;&gt;Node3 -->
<g id="edge10" class="edge">
<title>Node9&#45;&gt;Node3</title>
<path fill="none" stroke="midnightblue" d="M1111.23,-158.94C1115.01,-144.86 1117.39,-125.5 1107.8,-112 1089.74,-86.57 1056.19,-75.39 1027.84,-70.53"/>
<polygon fill="midnightblue" stroke="midnightblue" points="1107.89,-157.9 1108.23,-168.49 1114.56,-159.99 1107.89,-157.9"/>
</g>
<!-- Node10 -->
<g id="node10" class="node">
<title>Node10</title>
<g id="a_node10"><a xlink:href="_act_src_disk_op___turbine_8_h.html" target="_top" xlink:title=" ">
<polygon fill="white" stroke="black" points="666.8,-112.5 666.8,-131.5 800.8,-131.5 800.8,-112.5 666.8,-112.5"/>
<text text-anchor="middle" x="733.8" y="-119.5" font-family="Helvetica,sans-Serif" font-size="10.00">ActSrcDiskOp_Turbine.H</text>
</a>
</g>
</g>
<!-- Node9&#45;&gt;Node10 -->
<g id="edge11" class="edge">
<title>Node9&#45;&gt;Node10</title>
<path fill="none" stroke="midnightblue" d="M1049.44,-168.94C980.38,-158.89 862.82,-141.78 792.32,-131.52"/>
<polygon fill="midnightblue" stroke="midnightblue" points="1049.28,-172.46 1059.68,-170.43 1050.29,-165.53 1049.28,-172.46"/>
</g>
<!-- Node11 -->
<g id="node11" class="node">
<title>Node11</title>
<g id="a_node11"><a xlink:href="_act_src_disk_op_8_h.html" target="_top" xlink:title=" ">
<polygon fill="white" stroke="black" points="819.3,-112.5 819.3,-131.5 912.3,-131.5 912.3,-112.5 819.3,-112.5"/>
<text text-anchor="middle" x="865.8" y="-119.5" font-family="Helvetica,sans-Serif" font-size="10.00">ActSrcDiskOp.H</text>
</a>
</g>
</g>
<!-- Node9&#45;&gt;Node11 -->
<g id="edge13" class="edge">
<title>Node9&#45;&gt;Node11</title>
<path fill="none" stroke="midnightblue" d="M1057.08,-166.22C1011.91,-156.01 945.03,-140.9 903.49,-131.52"/>
<polygon fill="midnightblue" stroke="midnightblue" points="1056.4,-169.65 1066.93,-168.44 1057.95,-162.83 1056.4,-169.65"/>
</g>
<!-- Node12 -->
<g id="node12" class="node">
<title>Node12</title>
<g id="a_node12"><a xlink:href="disk__ops_8_h.html" target="_top" xlink:title=" ">
<polygon fill="white" stroke="black" points="464.8,-112.5 464.8,-131.5 534.8,-131.5 534.8,-112.5 464.8,-112.5"/>
<text text-anchor="middle" x="499.8" y="-119.5" font-family="Helvetica,sans-Serif" font-size="10.00">disk_ops.H</text>
</a>
</g>
</g>
<!-- Node9&#45;&gt;Node12 -->
<g id="edge15" class="edge">
<title>Node9&#45;&gt;Node12</title>
<path fill="none" stroke="midnightblue" d="M1049.03,-172.02C926.25,-161.06 635.52,-135.11 534.84,-126.13"/>
<polygon fill="midnightblue" stroke="midnightblue" points="1049.05,-175.54 1059.33,-172.94 1049.68,-168.57 1049.05,-175.54"/>
</g>
<!-- Node18 -->
<g id="node18" class="node">
<title>Node18</title>
<g id="a_node18"><a xlink:href="turbine__fast__ops_8_h.html" target="_top" xlink:title=" ">
<polygon fill="white" stroke="black" points="129.8,-56.5 129.8,-75.5 237.8,-75.5 237.8,-56.5 129.8,-56.5"/>
<text text-anchor="middle" x="183.8" y="-63.5" font-family="Helvetica,sans-Serif" font-size="10.00">turbine_fast_ops.H</text>
</a>
</g>
</g>
<!-- Node9&#45;&gt;Node18 -->
<g id="edge23" class="edge">
<title>Node9&#45;&gt;Node18</title>
<path fill="none" stroke="midnightblue" d="M1077.01,-164.38C1041.58,-148.96 978.03,-123.49 920.8,-112 643.22,-56.29 567.17,-96.57 284.8,-76 269.61,-74.89 253.16,-73.51 238.02,-72.16"/>
<polygon fill="midnightblue" stroke="midnightblue" points="1075.67,-167.62 1086.23,-168.45 1078.49,-161.21 1075.67,-167.62"/>
</g>
<!-- Node19 -->
<g id="node19" class="node">
<title>Node19</title>
<g id="a_node19"><a xlink:href="fixed__wing__ops_8_h.html" target="_top" xlink:title=" ">
<polygon fill="white" stroke="black" points="1320.3,-56.5 1320.3,-75.5 1421.3,-75.5 1421.3,-56.5 1320.3,-56.5"/>
<text text-anchor="middle" x="1370.8" y="-63.5" font-family="Helvetica,sans-Serif" font-size="10.00">fixed_wing_ops.H</text>
</a>
</g>
</g>
<!-- Node9&#45;&gt;Node19 -->
<g id="edge25" class="edge">
<title>Node9&#45;&gt;Node19</title>
<path fill="none" stroke="midnightblue" d="M1126.85,-163.03C1150.04,-148.77 1187.95,-126.71 1222.8,-112 1260.16,-96.23 1304.94,-83.41 1335.39,-75.54"/>
<polygon fill="midnightblue" stroke="midnightblue" points="1124.79,-160.19 1118.14,-168.44 1128.48,-166.13 1124.79,-160.19"/>
</g>
<!-- Node9&#45;&gt;Node20 -->
<g id="edge27" class="edge">
<title>Node9&#45;&gt;Node20</title>
<path fill="none" stroke="midnightblue" d="M1140.5,-165.17C1171.2,-155 1214.72,-140.59 1242.09,-131.52"/>
<polygon fill="midnightblue" stroke="midnightblue" points="1139.02,-161.98 1130.63,-168.44 1141.22,-168.62 1139.02,-161.98"/>
</g>
<!-- Node21 -->
<g id="node21" class="node">
<title>Node21</title>
<g id="a_node21"><a xlink:href="flat__plate__ops_8_h.html" target="_top" xlink:title=" ">
<polygon fill="white" stroke="black" points="1168.3,-56.5 1168.3,-75.5 1263.3,-75.5 1263.3,-56.5 1168.3,-56.5"/>
<text text-anchor="middle" x="1215.8" y="-63.5" font-family="Helvetica,sans-Serif" font-size="10.00">flat_plate_ops.H</text>
</a>
</g>
</g>
<!-- Node9&#45;&gt;Node21 -->
<g id="edge32" class="edge">
<title>Node9&#45;&gt;Node21</title>
<path fill="none" stroke="midnightblue" d="M1120.74,-161.21C1144.53,-137.63 1188.52,-94.03 1207.13,-75.59"/>
<polygon fill="midnightblue" stroke="midnightblue" points="1118.15,-158.84 1113.51,-168.37 1123.08,-163.82 1118.15,-158.84"/>
</g>
<!-- Node10&#45;&gt;Node3 -->
<g id="edge12" class="edge">
<title>Node10&#45;&gt;Node3</title>
<path fill="none" stroke="midnightblue" d="M782.43,-110.28C828.73,-100.08 897.49,-84.92 940.16,-75.52"/>
<polygon fill="midnightblue" stroke="midnightblue" points="781.63,-106.87 772.62,-112.44 783.14,-113.71 781.63,-106.87"/>
</g>
<!-- Node11&#45;&gt;Node3 -->
<g id="edge14" class="edge">
<title>Node11&#45;&gt;Node3</title>
<path fill="none" stroke="midnightblue" d="M892.8,-108.1C913.91,-98.01 942.66,-84.27 960.98,-75.52"/>
<polygon fill="midnightblue" stroke="midnightblue" points="891.22,-104.97 883.71,-112.44 894.24,-111.29 891.22,-104.97"/>
</g>
<!-- Node13 -->
<g id="node13" class="node">
<title>Node13</title>
<g id="a_node13"><a xlink:href="uniform__ct__ops_8_h.html" target="_top" xlink:title=" ">
<polygon fill="white" stroke="black" points="511.8,-56.5 511.8,-75.5 613.8,-75.5 613.8,-56.5 511.8,-56.5"/>
<text text-anchor="middle" x="562.8" y="-63.5" font-family="Helvetica,sans-Serif" font-size="10.00">uniform_ct_ops.H</text>
</a>
</g>
</g>
<!-- Node12&#45;&gt;Node13 -->
<g id="edge16" class="edge">
<title>Node12&#45;&gt;Node13</title>
<path fill="none" stroke="midnightblue" d="M517.84,-105.54C529.07,-95.91 543.12,-83.87 552.49,-75.83"/>
<polygon fill="midnightblue" stroke="midnightblue" points="515.24,-103.16 509.92,-112.32 519.79,-108.47 515.24,-103.16"/>
</g>
<!-- Node15 -->
<g id="node15" class="node">
<title>Node15</title>
<g id="a_node15"><a xlink:href="_joukowsky__ops_8_h.html" target="_top" xlink:title=" ">
<polygon fill="white" stroke="black" points="294.3,-56.5 294.3,-75.5 395.3,-75.5 395.3,-56.5 294.3,-56.5"/>
<text text-anchor="middle" x="344.8" y="-63.5" font-family="Helvetica,sans-Serif" font-size="10.00">Joukowsky_ops.H</text>
</a>
</g>
</g>
<!-- Node12&#45;&gt;Node15 -->
<g id="edge19" class="edge">
<title>Node12&#45;&gt;Node15</title>
<path fill="none" stroke="midnightblue" d="M465.47,-109.04C436.3,-98.88 395.16,-84.55 369.25,-75.52"/>
<polygon fill="midnightblue" stroke="midnightblue" points="464.64,-112.46 475.24,-112.44 466.95,-105.85 464.64,-112.46"/>
</g>
<!-- Node17 -->
<g id="node17" class="node">
<title>Node17</title>
<g id="a_node17"><a xlink:href="disk__ops_8cpp.html" target="_top" xlink:title=" ">
<polygon fill="white" stroke="black" points="413.8,-56.5 413.8,-75.5 493.8,-75.5 493.8,-56.5 413.8,-56.5"/>
<text text-anchor="middle" x="453.8" y="-63.5" font-family="Helvetica,sans-Serif" font-size="10.00">disk_ops.cpp</text>
</a>
</g>
</g>
<!-- Node12&#45;&gt;Node17 -->
<g id="edge22" class="edge">
<title>Node12&#45;&gt;Node17</title>
<path fill="none" stroke="midnightblue" d="M485.69,-104.43C477.62,-94.97 467.84,-83.48 461.25,-75.75"/>
<polygon fill="midnightblue" stroke="midnightblue" points="483.05,-106.74 492.2,-112.08 488.38,-102.2 483.05,-106.74"/>
</g>
<!-- Node13&#45;&gt;Node5 -->
<g id="edge17" class="edge">
<title>Node13&#45;&gt;Node5</title>
<path fill="none" stroke="midnightblue" d="M583.83,-50.62C598.27,-40.76 616.94,-27.99 629.14,-19.65"/>
<polygon fill="midnightblue" stroke="midnightblue" points="581.77,-47.79 575.49,-56.32 585.72,-53.57 581.77,-47.79"/>
</g>
<!-- Node14 -->
<g id="node14" class="node">
<title>Node14</title>
<g id="a_node14"><a xlink:href="uniform__ct__ops_8cpp.html" target="_top" xlink:title=" ">
<polygon fill="white" stroke="black" points="461.8,-0.5 461.8,-19.5 573.8,-19.5 573.8,-0.5 461.8,-0.5"/>
<text text-anchor="middle" x="517.8" y="-7.5" font-family="Helvetica,sans-Serif" font-size="10.00">uniform_ct_ops.cpp</text>
</a>
</g>
</g>
<!-- Node13&#45;&gt;Node14 -->
<g id="edge18" class="edge">
<title>Node13&#45;&gt;Node14</title>
<path fill="none" stroke="midnightblue" d="M548.75,-48.14C540.91,-38.74 531.47,-27.4 525.09,-19.75"/>
<polygon fill="midnightblue" stroke="midnightblue" points="546.28,-50.64 555.37,-56.08 551.66,-46.16 546.28,-50.64"/>
</g>
<!-- Node15&#45;&gt;Node5 -->
<g id="edge20" class="edge">
<title>Node15&#45;&gt;Node5</title>
<path fill="none" stroke="midnightblue" d="M402,-54.6C458.13,-44.4 542.7,-29.02 594.96,-19.52"/>
<polygon fill="midnightblue" stroke="midnightblue" points="401.07,-51.21 391.86,-56.44 402.33,-58.1 401.07,-51.21"/>
</g>
<!-- Node16 -->
<g id="node16" class="node">
<title>Node16</title>
<g id="a_node16"><a xlink:href="_joukowsky__ops_8cpp.html" target="_top" xlink:title=" ">
<polygon fill="white" stroke="black" points="289.8,-0.5 289.8,-19.5 399.8,-19.5 399.8,-0.5 289.8,-0.5"/>
<text text-anchor="middle" x="344.8" y="-7.5" font-family="Helvetica,sans-Serif" font-size="10.00">Joukowsky_ops.cpp</text>
</a>
</g>
</g>
<!-- Node15&#45;&gt;Node16 -->
<g id="edge21" class="edge">
<title>Node15&#45;&gt;Node16</title>
<path fill="none" stroke="midnightblue" d="M344.8,-45.8C344.8,-36.91 344.8,-26.78 344.8,-19.75"/>
<polygon fill="midnightblue" stroke="midnightblue" points="341.3,-46.08 344.8,-56.08 348.3,-46.08 341.3,-46.08"/>
</g>
<!-- Node18&#45;&gt;Node6 -->
<g id="edge24" class="edge">
<title>Node18&#45;&gt;Node6</title>
<path fill="none" stroke="midnightblue" d="M183.8,-45.8C183.8,-36.91 183.8,-26.78 183.8,-19.75"/>
<polygon fill="midnightblue" stroke="midnightblue" points="180.3,-46.08 183.8,-56.08 187.3,-46.08 180.3,-46.08"/>
</g>
<!-- Node19&#45;&gt;Node7 -->
<g id="edge26" class="edge">
<title>Node19&#45;&gt;Node7</title>
<path fill="none" stroke="midnightblue" d="M1370.8,-45.8C1370.8,-36.91 1370.8,-26.78 1370.8,-19.75"/>
<polygon fill="midnightblue" stroke="midnightblue" points="1367.3,-46.08 1370.8,-56.08 1374.3,-46.08 1367.3,-46.08"/>
</g>
<!-- Node20&#45;&gt;Node19 -->
<g id="edge28" class="edge">
<title>Node20&#45;&gt;Node19</title>
<path fill="none" stroke="midnightblue" d="M1293.38,-107.59C1312.42,-97.61 1337.86,-84.27 1354.29,-75.65"/>
<polygon fill="midnightblue" stroke="midnightblue" points="1291.58,-104.58 1284.35,-112.32 1294.83,-110.78 1291.58,-104.58"/>
</g>
<!-- Node20&#45;&gt;Node21 -->
<g id="edge29" class="edge">
<title>Node20&#45;&gt;Node21</title>
<path fill="none" stroke="midnightblue" d="M1252.12,-104.72C1242.96,-95.2 1231.75,-83.56 1224.23,-75.75"/>
<polygon fill="midnightblue" stroke="midnightblue" points="1249.76,-107.31 1259.21,-112.08 1254.8,-102.45 1249.76,-107.31"/>
</g>
<!-- Node22 -->
<g id="node22" class="node">
<title>Node22</title>
<g id="a_node22"><a xlink:href="wing__ops_8cpp.html" target="_top" xlink:title=" ">
<polygon fill="white" stroke="black" points="1067.3,-56.5 1067.3,-75.5 1150.3,-75.5 1150.3,-56.5 1067.3,-56.5"/>
<text text-anchor="middle" x="1108.8" y="-63.5" font-family="Helvetica,sans-Serif" font-size="10.00">wing_ops.cpp</text>
</a>
</g>
</g>
<!-- Node20&#45;&gt;Node22 -->
<g id="edge31" class="edge">
<title>Node20&#45;&gt;Node22</title>
<path fill="none" stroke="midnightblue" d="M1232.97,-109.17C1203.03,-99 1160.58,-84.59 1133.88,-75.52"/>
<polygon fill="midnightblue" stroke="midnightblue" points="1232.01,-112.54 1242.61,-112.44 1234.26,-105.91 1232.01,-112.54"/>
</g>
<!-- Node21&#45;&gt;Node8 -->
<g id="edge30" class="edge">
<title>Node21&#45;&gt;Node8</title>
<path fill="none" stroke="midnightblue" d="M1215.8,-45.8C1215.8,-36.91 1215.8,-26.78 1215.8,-19.75"/>
<polygon fill="midnightblue" stroke="midnightblue" points="1212.3,-46.08 1215.8,-56.08 1219.3,-46.08 1212.3,-46.08"/>
</g>
<!-- Node23&#45;&gt;Node10 -->
<g id="edge35" class="edge">
<title>Node23&#45;&gt;Node10</title>
<path fill="none" stroke="midnightblue" d="M244.89,-171.35C346.48,-161.31 558.13,-140.37 666.58,-129.65"/>
<polygon fill="midnightblue" stroke="midnightblue" points="244.43,-167.88 234.82,-172.35 245.12,-174.85 244.43,-167.88"/>
</g>
<!-- Node24 -->
<g id="node24" class="node">
<title>Node24</title>
<g id="a_node24"><a xlink:href="_turbine_fast_8_h.html" target="_top" xlink:title=" ">
<polygon fill="white" stroke="black" points="41.8,-112.5 41.8,-131.5 123.8,-131.5 123.8,-112.5 41.8,-112.5"/>
<text text-anchor="middle" x="82.8" y="-119.5" font-family="Helvetica,sans-Serif" font-size="10.00">TurbineFast.H</text>
</a>
</g>
</g>
<!-- Node23&#45;&gt;Node24 -->
<g id="edge36" class="edge">
<title>Node23&#45;&gt;Node24</title>
<path fill="none" stroke="midnightblue" d="M161.99,-163.73C142.55,-153.73 116.45,-140.31 99.63,-131.65"/>
<polygon fill="midnightblue" stroke="midnightblue" points="160.44,-166.86 170.93,-168.32 163.64,-160.64 160.44,-166.86"/>
</g>
<!-- Node25 -->
<g id="node25" class="node">
<title>Node25</title>
<g id="a_node25"><a xlink:href="turbine__utils_8_h.html" target="_top" xlink:title=" ">
<polygon fill="white" stroke="black" points="141.8,-112.5 141.8,-131.5 229.8,-131.5 229.8,-112.5 141.8,-112.5"/>
<text text-anchor="middle" x="185.8" y="-119.5" font-family="Helvetica,sans-Serif" font-size="10.00">turbine_utils.H</text>
</a>
</g>
</g>
<!-- Node23&#45;&gt;Node25 -->
<g id="edge39" class="edge">
<title>Node23&#45;&gt;Node25</title>
<path fill="none" stroke="midnightblue" d="M187.09,-157.8C186.76,-148.91 186.38,-138.78 186.12,-131.75"/>
<polygon fill="midnightblue" stroke="midnightblue" points="183.6,-158.22 187.47,-168.08 190.6,-157.96 183.6,-158.22"/>
</g>
<!-- Node24&#45;&gt;Node6 -->
<g id="edge38" class="edge">
<title>Node24&#45;&gt;Node6</title>
<path fill="none" stroke="midnightblue" d="M47.74,-108.53C19.85,-96.66 -11.93,-77.45 4.8,-56 21.01,-35.22 90.29,-22.56 137.76,-16.17"/>
<polygon fill="midnightblue" stroke="midnightblue" points="46.77,-111.92 57.35,-112.42 49.39,-105.43 46.77,-111.92"/>
</g>
<!-- Node24&#45;&gt;Node18 -->
<g id="edge37" class="edge">
<title>Node24&#45;&gt;Node18</title>
<path fill="none" stroke="midnightblue" d="M107.88,-107.59C126.56,-97.61 151.5,-84.27 167.61,-75.65"/>
<polygon fill="midnightblue" stroke="midnightblue" points="106.2,-104.52 99.03,-112.32 109.5,-110.7 106.2,-104.52"/>
</g>
<!-- Node25&#45;&gt;Node18 -->
<g id="edge40" class="edge">
<title>Node25&#45;&gt;Node18</title>
<path fill="none" stroke="midnightblue" d="M185.09,-101.8C184.76,-92.91 184.38,-82.78 184.12,-75.75"/>
<polygon fill="midnightblue" stroke="midnightblue" points="181.6,-102.22 185.47,-112.08 188.6,-101.96 181.6,-102.22"/>
</g>
<!-- Node26 -->
<g id="node26" class="node">
<title>Node26</title>
<g id="a_node26"><a xlink:href="turbine__utils_8cpp.html" target="_top" xlink:title=" ">
<polygon fill="white" stroke="black" points="13.8,-56.5 13.8,-75.5 111.8,-75.5 111.8,-56.5 13.8,-56.5"/>
<text text-anchor="middle" x="62.8" y="-63.5" font-family="Helvetica,sans-Serif" font-size="10.00">turbine_utils.cpp</text>
</a>
</g>
</g>
<!-- Node25&#45;&gt;Node26 -->
<g id="edge41" class="edge">
<title>Node25&#45;&gt;Node26</title>
<path fill="none" stroke="midnightblue" d="M157.03,-108.37C133.99,-98.26 102.32,-84.35 82.2,-75.52"/>
<polygon fill="midnightblue" stroke="midnightblue" points="155.75,-111.63 166.31,-112.44 158.56,-105.22 155.75,-111.63"/>
</g>
<!-- Node27&#45;&gt;Node11 -->
<g id="edge43" class="edge">
<title>Node27&#45;&gt;Node11</title>
<path fill="none" stroke="midnightblue" d="M753.45,-327.44C778.08,-282.61 842.65,-165.13 860.92,-131.88"/>
<polygon fill="midnightblue" stroke="midnightblue" points="750.33,-325.85 748.58,-336.3 756.47,-329.22 750.33,-325.85"/>
</g>
<!-- Node28 -->
<g id="node28" class="node">
<title>Node28</title>
<g id="a_node28"><a xlink:href="_actuator_disk_8_h.html" target="_top" xlink:title=" ">
<polygon fill="white" stroke="black" points="525.8,-280.5 525.8,-299.5 615.8,-299.5 615.8,-280.5 525.8,-280.5"/>
<text text-anchor="middle" x="570.8" y="-287.5" font-family="Helvetica,sans-Serif" font-size="10.00">ActuatorDisk.H</text>
</a>
</g>
</g>
<!-- Node27&#45;&gt;Node28 -->
<g id="edge44" class="edge">
<title>Node27&#45;&gt;Node28</title>
<path fill="none" stroke="midnightblue" d="M706.75,-333.44C674.14,-323.26 627.39,-308.66 598.08,-299.52"/>
<polygon fill="midnightblue" stroke="midnightblue" points="705.8,-336.8 716.39,-336.44 707.88,-330.12 705.8,-336.8"/>
</g>
<!-- Node31 -->
<g id="node31" class="node">
<title>Node31</title>
<g id="a_node31"><a xlink:href="_joukowsky_8_h.html" target="_top" xlink:title=" ">
<polygon fill="white" stroke="black" points="404.3,-224.5 404.3,-243.5 481.3,-243.5 481.3,-224.5 404.3,-224.5"/>
<text text-anchor="middle" x="442.8" y="-231.5" font-family="Helvetica,sans-Serif" font-size="10.00">Joukowsky.H</text>
</a>
</g>
</g>
<!-- Node27&#45;&gt;Node31 -->
<g id="edge55" class="edge">
<title>Node27&#45;&gt;Node31</title>
<path fill="none" stroke="midnightblue" d="M693.58,-342.53C645.91,-338.5 573.36,-327.9 516.8,-300 488.28,-285.93 462.14,-257.99 449.97,-243.77"/>
<polygon fill="midnightblue" stroke="midnightblue" points="693.41,-346.03 703.65,-343.32 693.95,-339.05 693.41,-346.03"/>
</g>
<!-- Node28&#45;&gt;Node12 -->
<g id="edge54" class="edge">
<title>Node28&#45;&gt;Node12</title>
<path fill="none" stroke="midnightblue" d="M558.54,-272.09C552.95,-263.88 546.53,-253.71 541.8,-244 522.23,-203.82 507.5,-152.14 502.07,-131.79"/>
<polygon fill="midnightblue" stroke="midnightblue" points="555.76,-274.23 564.37,-280.4 561.49,-270.21 555.76,-274.23"/>
</g>
<!-- Node29 -->
<g id="node29" class="node">
<title>Node29</title>
<g id="a_node29"><a xlink:href="_uniform_ct_8_h.html" target="_top" xlink:title=" ">
<polygon fill="white" stroke="black" points="551.3,-224.5 551.3,-243.5 628.3,-243.5 628.3,-224.5 551.3,-224.5"/>
<text text-anchor="middle" x="589.8" y="-231.5" font-family="Helvetica,sans-Serif" font-size="10.00">UniformCt.H</text>
</a>
</g>
</g>
<!-- Node28&#45;&gt;Node29 -->
<g id="edge45" class="edge">
<title>Node28&#45;&gt;Node29</title>
<path fill="none" stroke="midnightblue" d="M577.35,-270.4C580.52,-261.36 584.19,-250.94 586.72,-243.75"/>
<polygon fill="midnightblue" stroke="midnightblue" points="573.95,-269.49 573.94,-280.08 580.56,-271.81 573.95,-269.49"/>
</g>
<!-- Node28&#45;&gt;Node31 -->
<g id="edge51" class="edge">
<title>Node28&#45;&gt;Node31</title>
<path fill="none" stroke="midnightblue" d="M541.18,-276.5C517.18,-266.38 484.02,-252.39 462.99,-243.52"/>
<polygon fill="midnightblue" stroke="midnightblue" points="539.94,-279.78 550.52,-280.44 542.66,-273.33 539.94,-279.78"/>
</g>
<!-- Node29&#45;&gt;Node5 -->
<g id="edge49" class="edge">
<title>Node29&#45;&gt;Node5</title>
<path fill="none" stroke="midnightblue" d="M594.18,-214.3C604.87,-168.64 632,-52.85 639.72,-19.88"/>
<polygon fill="midnightblue" stroke="midnightblue" points="590.71,-213.76 591.84,-224.3 597.53,-215.36 590.71,-213.76"/>
</g>
<!-- Node29&#45;&gt;Node13 -->
<g id="edge50" class="edge">
<title>Node29&#45;&gt;Node13</title>
<path fill="none" stroke="midnightblue" d="M586.7,-213.93C580.84,-177.92 568.37,-101.23 564.19,-75.57"/>
<polygon fill="midnightblue" stroke="midnightblue" points="583.29,-214.77 588.35,-224.08 590.2,-213.64 583.29,-214.77"/>
</g>
<!-- Node30 -->
<g id="node30" class="node">
<title>Node30</title>
<g id="a_node30"><a xlink:href="disk__spreading_8_h.html" target="_top" xlink:title=" ">
<polygon fill="white" stroke="black" points="629.3,-168.5 629.3,-187.5 730.3,-187.5 730.3,-168.5 629.3,-168.5"/>
<text text-anchor="middle" x="679.8" y="-175.5" font-family="Helvetica,sans-Serif" font-size="10.00">disk_spreading.H</text>
</a>
</g>
</g>
<!-- Node29&#45;&gt;Node30 -->
<g id="edge46" class="edge">
<title>Node29&#45;&gt;Node30</title>
<path fill="none" stroke="midnightblue" d="M612.84,-219.18C629.4,-209.24 651.22,-196.15 665.38,-187.65"/>
<polygon fill="midnightblue" stroke="midnightblue" points="611.03,-216.18 604.26,-224.32 614.64,-222.18 611.03,-216.18"/>
</g>
<!-- Node30&#45;&gt;Node5 -->
<g id="edge48" class="edge">
<title>Node30&#45;&gt;Node5</title>
<path fill="none" stroke="midnightblue" d="M669.15,-159.66C664.76,-151.56 660.16,-141.61 657.8,-132 649.75,-99.18 661.32,-89.34 655.8,-56 653.66,-43.08 648.73,-28.74 645.33,-19.79"/>
<polygon fill="midnightblue" stroke="midnightblue" points="666.21,-161.55 674.24,-168.46 672.27,-158.05 666.21,-161.55"/>
</g>
<!-- Node30&#45;&gt;Node11 -->
<g id="edge47" class="edge">
<title>Node30&#45;&gt;Node11</title>
<path fill="none" stroke="midnightblue" d="M719.18,-165.57C754.27,-155.38 804.82,-140.7 836.47,-131.52"/>
<polygon fill="midnightblue" stroke="midnightblue" points="717.9,-162.29 709.27,-168.44 719.85,-169.02 717.9,-162.29"/>
</g>
<!-- Node31&#45;&gt;Node5 -->
<g id="edge52" class="edge">
<title>Node31&#45;&gt;Node5</title>
<path fill="none" stroke="midnightblue" d="M415.05,-219.88C356.56,-190.56 230.32,-117.46 284.8,-56 329.05,-6.09 516.71,-29.03 582.8,-20 585.67,-19.61 588.63,-19.19 591.6,-18.77"/>
<polygon fill="midnightblue" stroke="midnightblue" points="413.63,-223.08 424.15,-224.36 416.73,-216.8 413.63,-223.08"/>
</g>
<!-- Node31&#45;&gt;Node15 -->
<g id="edge53" class="edge">
<title>Node31&#45;&gt;Node15</title>
<path fill="none" stroke="midnightblue" d="M432.36,-215.31C411.46,-179.92 365.21,-101.56 349.86,-75.57"/>
<polygon fill="midnightblue" stroke="midnightblue" points="429.43,-217.24 437.53,-224.08 435.46,-213.68 429.43,-217.24"/>
</g>
<!-- Node33&#45;&gt;Node20 -->
<g id="edge64" class="edge">
<title>Node33&#45;&gt;Node20</title>
<path fill="none" stroke="midnightblue" d="M1411.27,-165.57C1376.94,-155.38 1327.47,-140.7 1296.5,-131.52"/>
<polygon fill="midnightblue" stroke="midnightblue" points="1410.38,-168.95 1420.96,-168.44 1412.37,-162.24 1410.38,-168.95"/>
</g>
<!-- Node34 -->
<g id="node34" class="node">
<title>Node34</title>
<g id="a_node34"><a xlink:href="_airfoil_table_8cpp.html" target="_top" xlink:title=" ">
<polygon fill="white" stroke="black" points="1609.8,-112.5 1609.8,-131.5 1701.8,-131.5 1701.8,-112.5 1609.8,-112.5"/>
<text text-anchor="middle" x="1655.8" y="-119.5" font-family="Helvetica,sans-Serif" font-size="10.00">AirfoilTable.cpp</text>
</a>
</g>
</g>
<!-- Node33&#45;&gt;Node34 -->
<g id="edge58" class="edge">
<title>Node33&#45;&gt;Node34</title>
<path fill="none" stroke="midnightblue" d="M1492.41,-165.83C1531.31,-155.63 1587.96,-140.78 1623.31,-131.52"/>
<polygon fill="midnightblue" stroke="midnightblue" points="1491.23,-162.52 1482.44,-168.44 1493,-169.29 1491.23,-162.52"/>
</g>
<!-- Node35 -->
<g id="node35" class="node">
<title>Node35</title>
<g id="a_node35"><a xlink:href="_airfoil_table_i_8_h.html" target="_top" xlink:title=" ">
<polygon fill="white" stroke="black" points="1506.3,-112.5 1506.3,-131.5 1591.3,-131.5 1591.3,-112.5 1506.3,-112.5"/>
<text text-anchor="middle" x="1548.8" y="-119.5" font-family="Helvetica,sans-Serif" font-size="10.00">AirfoilTableI.H</text>
</a>
</g>
</g>
<!-- Node33&#45;&gt;Node35 -->
<g id="edge59" class="edge">
<title>Node33&#45;&gt;Node35</title>
<path fill="none" stroke="midnightblue" d="M1469.64,-162.9C1486.57,-153 1510.57,-140.07 1527.82,-131.65"/>
<polygon fill="midnightblue" stroke="midnightblue" points="1467.37,-160.18 1460.59,-168.32 1470.97,-166.18 1467.37,-160.18"/>
</g>
<!-- Node36 -->
<g id="node36" class="node">
<title>Node36</title>
<g id="a_node36"><a xlink:href="_fixed_wing_8_h.html" target="_top" xlink:title=" ">
<polygon fill="white" stroke="black" points="1411.3,-112.5 1411.3,-131.5 1488.3,-131.5 1488.3,-112.5 1411.3,-112.5"/>
<text text-anchor="middle" x="1449.8" y="-119.5" font-family="Helvetica,sans-Serif" font-size="10.00">FixedWing.H</text>
</a>
</g>
</g>
<!-- Node33&#45;&gt;Node36 -->
<g id="edge61" class="edge">
<title>Node33&#45;&gt;Node36</title>
<path fill="none" stroke="midnightblue" d="M1449.8,-157.8C1449.8,-148.91 1449.8,-138.78 1449.8,-131.75"/>
<polygon fill="midnightblue" stroke="midnightblue" points="1446.3,-158.08 1449.8,-168.08 1453.3,-158.08 1446.3,-158.08"/>
</g>
<!-- Node37 -->
<g id="node37" class="node">
<title>Node37</title>
<g id="a_node37"><a xlink:href="_flat_plate_8_h.html" target="_top" xlink:title=" ">
<polygon fill="white" stroke="black" points="1322.3,-112.5 1322.3,-131.5 1393.3,-131.5 1393.3,-112.5 1322.3,-112.5"/>
<text text-anchor="middle" x="1357.8" y="-119.5" font-family="Helvetica,sans-Serif" font-size="10.00">FlatPlate.H</text>
</a>
</g>
</g>
<!-- Node33&#45;&gt;Node37 -->
<g id="edge65" class="edge">
<title>Node33&#45;&gt;Node37</title>
<path fill="none" stroke="midnightblue" d="M1426.25,-163.18C1409.32,-153.24 1387.02,-140.15 1372.54,-131.65"/>
<polygon fill="midnightblue" stroke="midnightblue" points="1424.62,-166.28 1435.02,-168.32 1428.17,-160.24 1424.62,-166.28"/>
</g>
<!-- Node35&#45;&gt;Node33 -->
<g id="edge60" class="edge">
<title>Node35&#45;&gt;Node33</title>
<path fill="none" stroke="midnightblue" d="M1529.01,-137.07C1512.09,-146.97 1488.09,-159.9 1470.82,-168.32"/>
<polygon fill="midnightblue" stroke="midnightblue" points="1531.27,-139.8 1538.04,-131.65 1527.67,-133.8 1531.27,-139.8"/>
</g>
<!-- Node36&#45;&gt;Node7 -->
<g id="edge63" class="edge">
<title>Node36&#45;&gt;Node7</title>
<path fill="none" stroke="midnightblue" d="M1447.52,-102.03C1445.13,-88.27 1440.32,-69.74 1430.8,-56 1419.75,-40.05 1401.24,-27.42 1387.69,-19.65"/>
<polygon fill="midnightblue" stroke="midnightblue" points="1444.1,-102.87 1449.01,-112.26 1451.03,-101.85 1444.1,-102.87"/>
</g>
<!-- Node36&#45;&gt;Node19 -->
<g id="edge62" class="edge">
<title>Node36&#45;&gt;Node19</title>
<path fill="none" stroke="midnightblue" d="M1428.77,-106.62C1414.33,-96.76 1395.66,-83.99 1383.46,-75.65"/>
<polygon fill="midnightblue" stroke="midnightblue" points="1426.88,-109.57 1437.11,-112.32 1430.83,-103.79 1426.88,-109.57"/>
</g>
<!-- Node37&#45;&gt;Node8 -->
<g id="edge67" class="edge">
<title>Node37&#45;&gt;Node8</title>
<path fill="none" stroke="midnightblue" d="M1338.59,-106.12C1308.45,-82.77 1251,-38.27 1226.89,-19.59"/>
<polygon fill="midnightblue" stroke="midnightblue" points="1336.61,-109.01 1346.66,-112.37 1340.9,-103.48 1336.61,-109.01"/>
</g>
<!-- Node37&#45;&gt;Node21 -->
<g id="edge66" class="edge">
<title>Node37&#45;&gt;Node21</title>
<path fill="none" stroke="midnightblue" d="M1325.64,-108.77C1298.97,-98.63 1261.73,-84.47 1238.19,-75.52"/>
<polygon fill="midnightblue" stroke="midnightblue" points="1324.71,-112.16 1335.3,-112.44 1327.2,-105.62 1324.71,-112.16"/>
</g>
<!-- Node38&#45;&gt;Node20 -->
<g id="edge70" class="edge">
<title>Node38&#45;&gt;Node20</title>
<path fill="none" stroke="midnightblue" d="M1293.74,-159.86C1287.16,-150.5 1279.29,-139.33 1273.96,-131.75"/>
<polygon fill="midnightblue" stroke="midnightblue" points="1290.91,-161.92 1299.52,-168.08 1296.63,-157.89 1290.91,-161.92"/>
</g>
<!-- Node38&#45;&gt;Node36 -->
<g id="edge69" class="edge">
<title>Node38&#45;&gt;Node36</title>
<path fill="none" stroke="midnightblue" d="M1338.05,-164.91C1365.12,-154.75 1403.12,-140.51 1427.09,-131.52"/>
<polygon fill="midnightblue" stroke="midnightblue" points="1336.75,-161.66 1328.62,-168.44 1339.21,-168.21 1336.75,-161.66"/>
</g>
<!-- Node38&#45;&gt;Node37 -->
<g id="edge71" class="edge">
<title>Node38&#45;&gt;Node37</title>
<path fill="none" stroke="midnightblue" d="M1321.48,-160.72C1330.64,-151.2 1341.85,-139.56 1349.37,-131.75"/>
<polygon fill="midnightblue" stroke="midnightblue" points="1318.8,-158.45 1314.39,-168.08 1323.84,-163.31 1318.8,-158.45"/>
</g>
</g>
</svg>
        <g id="navigator" transform="translate(0 0)" fill="#404254">
                <rect fill="#f2f5e9" fill-opacity="0.5" stroke="#606060" stroke-width=".5" x="0" y="0" width="60" height="60"/>
                <use id="zoomplus" xlink:href="#zoomPlus" x="17" y="9" onmousedown="handleZoom(evt,'in')"/>
                <use id="zoomminus" xlink:href="#zoomMin" x="42" y="9" onmousedown="handleZoom(evt,'out')"/>
                <use id="reset" xlink:href="#resetDef" x="30" y="36" onmousedown="handleReset()"/>
                <g id="arrowUp" xlink:href="#dirArrow" transform="translate(30 24)" onmousedown="handlePan(0,-1)">
                  <use xlink:href="#rim" fill="#404040">
                        <set attributeName="fill" to="#808080" begin="arrowUp.mouseover" end="arrowUp.mouseout"/>
                  </use>
                  <path fill="none" stroke="white" stroke-width="1.5" d="M0,-3.0v7 M-2.5,-0.5L0,-3.0L2.5,-0.5"/>
                </g>
                <g id="arrowRight" xlink:href="#dirArrow" transform="rotate(90) translate(36 -43)" onmousedown="handlePan(1,0)">
                  <use xlink:href="#rim" fill="#404040">
                        <set attributeName="fill" to="#808080" begin="arrowRight.mouseover" end="arrowRight.mouseout"/>
                  </use>
                  <path fill="none" stroke="white" stroke-width="1.5" d="M0,-3.0v7 M-2.5,-0.5L0,-3.0L2.5,-0.5"/>
                </g>
                <g id="arrowDown" xlink:href="#dirArrow" transform="rotate(180) translate(-30 -48)" onmousedown="handlePan(0,1)">
                  <use xlink:href="#rim" fill="#404040">
                        <set attributeName="fill" to="#808080" begin="arrowDown.mouseover" end="arrowDown.mouseout"/>
                  </use>
                  <path fill="none" stroke="white" stroke-width="1.5" d="M0,-3.0v7 M-2.5,-0.5L0,-3.0L2.5,-0.5"/>
                </g>
                <g id="arrowLeft" xlink:href="#dirArrow" transform="rotate(270) translate(-36 17)" onmousedown="handlePan(-1,0)">
                  <use xlink:href="#rim" fill="#404040">
                        <set attributeName="fill" to="#808080" begin="arrowLeft.mouseover" end="arrowLeft.mouseout"/>
                  </use>
                  <path fill="none" stroke="white" stroke-width="1.5" d="M0,-3.0v7 M-2.5,-0.5L0,-3.0L2.5,-0.5"/>
                </g>
        </g>
        <svg viewBox="0 0 15 15" width="100%" height="30px" preserveAspectRatio="xMaxYMin meet">
         <g id="arrow_out" transform="scale(0.3 0.3)">
          <a xlink:href="actuator__types_8_h__dep__incl_org.svg" target="_base">
           <rect id="button" ry="5" rx="5" y="6" x="6" height="38" width="38"
                fill="#f2f5e9" fill-opacity="0.5" stroke="#606060" stroke-width="1.0"/>
           <path id="arrow"
             d="M 11.500037,31.436501 C 11.940474,20.09759 22.043105,11.32322 32.158766,21.979434 L 37.068811,17.246167 C 37.068811,17.246167 37.088388,32 37.088388,32 L 22.160133,31.978069 C 22.160133,31.978069 26.997745,27.140456 26.997745,27.140456 C 18.528582,18.264221 13.291696,25.230495 11.500037,31.436501 z"
             style="fill:#404040;"/>
          </a>
         </g>
        </svg>
</svg>
