<?xml version="1.0" encoding="UTF-8" standalone="no"?>
<!DOCTYPE svg PUBLIC "-//W3C//DTD SVG 1.1//EN"
 "http://www.w3.org/Graphics/SVG/1.1/DTD/svg11.dtd">
<!-- Generated by graphviz version 2.43.0 (0)
 -->
<!-- Title: actuator_utils.H Pages: 1 -->
<svg width="1002pt" height="308pt"
 viewBox="0.00 0.00 1001.50 308.00" xmlns="http://www.w3.org/2000/svg" xmlns:xlink="http://www.w3.org/1999/xlink">
<g id="graph0" class="graph" transform="scale(1 1) rotate(0) translate(4 304)">
<title>actuator_utils.H</title>
<polygon fill="white" stroke="transparent" points="-4,4 -4,-304 997.5,-304 997.5,4 -4,4"/>
<!-- Node1 -->
<g id="node1" class="node">
<title>Node1</title>
<g id="a_node1"><a xlink:title=" ">
<polygon fill="#bfbfbf" stroke="black" points="656.5,-280.5 656.5,-299.5 750.5,-299.5 750.5,-280.5 656.5,-280.5"/>
<text text-anchor="middle" x="703.5" y="-287.5" font-family="Helvetica,sans-Serif" font-size="10.00">actuator_utils.H</text>
</a>
</g>
</g>
<!-- Node2 -->
<g id="node2" class="node">
<title>Node2</title>
<g id="a_node2"><a xlink:href="actuator__ops_i_8_h.html" target="_top" xlink:title=" ">
<polygon fill="white" stroke="black" points="429,-224.5 429,-243.5 522,-243.5 522,-224.5 429,-224.5"/>
<text text-anchor="middle" x="475.5" y="-231.5" font-family="Helvetica,sans-Serif" font-size="10.00">actuator_opsI.H</text>
</a>
</g>
</g>
<!-- Node1&#45;&gt;Node2 -->
<g id="edge1" class="edge">
<title>Node1&#45;&gt;Node2</title>
<path fill="none" stroke="midnightblue" d="M657.43,-278.09C614.35,-267.89 550.91,-252.86 511.46,-243.52"/>
<polygon fill="midnightblue" stroke="midnightblue" points="656.84,-281.54 667.37,-280.44 658.45,-274.73 656.84,-281.54"/>
</g>
<!-- Node4 -->
<g id="node4" class="node">
<title>Node4</title>
<g id="a_node4"><a xlink:href="_act_src_line_op_8_h.html" target="_top" xlink:title=" ">
<polygon fill="white" stroke="black" points="473.5,-112.5 473.5,-131.5 565.5,-131.5 565.5,-112.5 473.5,-112.5"/>
<text text-anchor="middle" x="519.5" y="-119.5" font-family="Helvetica,sans-Serif" font-size="10.00">ActSrcLineOp.H</text>
</a>
</g>
</g>
<!-- Node1&#45;&gt;Node4 -->
<g id="edge33" class="edge">
<title>Node1&#45;&gt;Node4</title>
<path fill="none" stroke="midnightblue" d="M686.18,-273.37C648.16,-239.07 558.47,-158.16 529.04,-131.61"/>
<polygon fill="midnightblue" stroke="midnightblue" points="684.1,-276.21 693.87,-280.31 688.79,-271.01 684.1,-276.21"/>
</g>
<!-- Node11 -->
<g id="node11" class="node">
<title>Node11</title>
<g id="a_node11"><a xlink:href="_act_src_disk_op___turbine_8_h.html" target="_top" xlink:title=" ">
<polygon fill="white" stroke="black" points="583.5,-112.5 583.5,-131.5 717.5,-131.5 717.5,-112.5 583.5,-112.5"/>
<text text-anchor="middle" x="650.5" y="-119.5" font-family="Helvetica,sans-Serif" font-size="10.00">ActSrcDiskOp_Turbine.H</text>
</a>
</g>
</g>
<!-- Node1&#45;&gt;Node11 -->
<g id="edge34" class="edge">
<title>Node1&#45;&gt;Node11</title>
<path fill="none" stroke="midnightblue" d="M697.56,-270.39C686.13,-234.59 661.46,-157.34 653.24,-131.57"/>
<polygon fill="midnightblue" stroke="midnightblue" points="694.27,-271.61 700.65,-280.08 700.94,-269.48 694.27,-271.61"/>
</g>
<!-- Node12 -->
<g id="node12" class="node">
<title>Node12</title>
<g id="a_node12"><a xlink:href="_act_src_disk_op_8_h.html" target="_top" xlink:title=" ">
<polygon fill="white" stroke="black" points="736,-112.5 736,-131.5 829,-131.5 829,-112.5 736,-112.5"/>
<text text-anchor="middle" x="782.5" y="-119.5" font-family="Helvetica,sans-Serif" font-size="10.00">ActSrcDiskOp.H</text>
</a>
</g>
</g>
<!-- Node1&#45;&gt;Node12 -->
<g id="edge35" class="edge">
<title>Node1&#45;&gt;Node12</title>
<path fill="none" stroke="midnightblue" d="M702.47,-270.02C701.99,-244.88 704.27,-199.98 723.5,-168 733.33,-151.66 751.51,-139.17 765.1,-131.55"/>
<polygon fill="midnightblue" stroke="midnightblue" points="698.99,-270.49 702.85,-280.35 705.98,-270.23 698.99,-270.49"/>
</g>
<!-- Node19 -->
<g id="node19" class="node">
<title>Node19</title>
<g id="a_node19"><a xlink:href="turbine__fast__ops_8_h.html" target="_top" xlink:title=" ">
<polygon fill="white" stroke="black" points="885.5,-112.5 885.5,-131.5 993.5,-131.5 993.5,-112.5 885.5,-112.5"/>
<text text-anchor="middle" x="939.5" y="-119.5" font-family="Helvetica,sans-Serif" font-size="10.00">turbine_fast_ops.H</text>
</a>
</g>
</g>
<!-- Node1&#45;&gt;Node19 -->
<g id="edge40" class="edge">
<title>Node1&#45;&gt;Node19</title>
<path fill="none" stroke="midnightblue" d="M724.21,-274.44C772.06,-240.78 889.12,-158.44 927.27,-131.61"/>
<polygon fill="midnightblue" stroke="midnightblue" points="722.02,-271.69 715.86,-280.31 726.05,-277.42 722.02,-271.69"/>
</g>
<!-- Node24 -->
<g id="node24" class="node">
<title>Node24</title>
<g id="a_node24"><a xlink:href="disk__spreading_8_h.html" target="_top" xlink:title=" ">
<polygon fill="white" stroke="black" points="732,-168.5 732,-187.5 833,-187.5 833,-168.5 732,-168.5"/>
<text text-anchor="middle" x="782.5" y="-175.5" font-family="Helvetica,sans-Serif" font-size="10.00">disk_spreading.H</text>
</a>
</g>
</g>
<!-- Node1&#45;&gt;Node24 -->
<g id="edge36" class="edge">
<title>Node1&#45;&gt;Node24</title>
<path fill="none" stroke="midnightblue" d="M715.74,-271.96C732.86,-248.12 763.32,-205.71 776.33,-187.59"/>
<polygon fill="midnightblue" stroke="midnightblue" points="712.69,-270.2 709.7,-280.37 718.38,-274.29 712.69,-270.2"/>
</g>
<!-- Node25 -->
<g id="node25" class="node">
<title>Node25</title>
<g id="a_node25"><a xlink:href="actuator__utils_8cpp.html" target="_top" xlink:title=" ">
<polygon fill="white" stroke="black" points="889.5,-224.5 889.5,-243.5 993.5,-243.5 993.5,-224.5 889.5,-224.5"/>
<text text-anchor="middle" x="941.5" y="-231.5" font-family="Helvetica,sans-Serif" font-size="10.00">actuator_utils.cpp</text>
</a>
</g>
</g>
<!-- Node1&#45;&gt;Node25 -->
<g id="edge39" class="edge">
<title>Node1&#45;&gt;Node25</title>
<path fill="none" stroke="midnightblue" d="M751.02,-278.22C796,-268.01 862.6,-252.9 903.96,-243.52"/>
<polygon fill="midnightblue" stroke="midnightblue" points="750.19,-274.82 741.21,-280.44 751.74,-281.64 750.19,-274.82"/>
</g>
<!-- Node3 -->
<g id="node3" class="node">
<title>Node3</title>
<g id="a_node3"><a xlink:href="actuator__ops_8_h.html" target="_top" xlink:title=" ">
<polygon fill="white" stroke="black" points="411.5,-168.5 411.5,-187.5 501.5,-187.5 501.5,-168.5 411.5,-168.5"/>
<text text-anchor="middle" x="456.5" y="-175.5" font-family="Helvetica,sans-Serif" font-size="10.00">actuator_ops.H</text>
</a>
</g>
</g>
<!-- Node2&#45;&gt;Node3 -->
<g id="edge2" class="edge">
<title>Node2&#45;&gt;Node3</title>
<path fill="none" stroke="midnightblue" d="M468.95,-214.4C465.78,-205.36 462.11,-194.94 459.58,-187.75"/>
<polygon fill="midnightblue" stroke="midnightblue" points="465.74,-215.81 472.36,-224.08 472.35,-213.49 465.74,-215.81"/>
</g>
<!-- Node3&#45;&gt;Node4 -->
<g id="edge3" class="edge">
<title>Node3&#45;&gt;Node4</title>
<path fill="none" stroke="midnightblue" d="M474.54,-161.54C485.77,-151.91 499.82,-139.87 509.19,-131.83"/>
<polygon fill="midnightblue" stroke="midnightblue" points="471.94,-159.16 466.62,-168.32 476.49,-164.47 471.94,-159.16"/>
</g>
<!-- Node5 -->
<g id="node5" class="node">
<title>Node5</title>
<g id="a_node5"><a xlink:href="_actuator_model_8_h.html" target="_top" xlink:title=" ">
<polygon fill="white" stroke="black" points="671.5,-56.5 671.5,-75.5 769.5,-75.5 769.5,-56.5 671.5,-56.5"/>
<text text-anchor="middle" x="720.5" y="-63.5" font-family="Helvetica,sans-Serif" font-size="10.00">ActuatorModel.H</text>
</a>
</g>
</g>
<!-- Node3&#45;&gt;Node5 -->
<g id="edge10" class="edge">
<title>Node3&#45;&gt;Node5</title>
<path fill="none" stroke="midnightblue" d="M453.31,-157.73C452.09,-143.27 453.13,-123.97 464.5,-112 468.06,-108.25 598.05,-86.75 671.39,-74.88"/>
<polygon fill="midnightblue" stroke="midnightblue" points="449.89,-158.59 454.62,-168.07 456.83,-157.71 449.89,-158.59"/>
</g>
<!-- Node3&#45;&gt;Node11 -->
<g id="edge11" class="edge">
<title>Node3&#45;&gt;Node11</title>
<path fill="none" stroke="midnightblue" d="M497.1,-165.7C533.72,-155.51 586.76,-140.74 619.9,-131.52"/>
<polygon fill="midnightblue" stroke="midnightblue" points="495.94,-162.39 487.24,-168.44 497.81,-169.13 495.94,-162.39"/>
</g>
<!-- Node3&#45;&gt;Node12 -->
<g id="edge13" class="edge">
<title>Node3&#45;&gt;Node12</title>
<path fill="none" stroke="midnightblue" d="M511.99,-167.81C575.06,-157.36 676.89,-140.49 735.98,-130.71"/>
<polygon fill="midnightblue" stroke="midnightblue" points="511.12,-164.4 501.83,-169.49 512.27,-171.31 511.12,-164.4"/>
</g>
<!-- Node13 -->
<g id="node13" class="node">
<title>Node13</title>
<g id="a_node13"><a xlink:href="disk__ops_8_h.html" target="_top" xlink:title=" ">
<polygon fill="white" stroke="black" points="347.5,-112.5 347.5,-131.5 417.5,-131.5 417.5,-112.5 347.5,-112.5"/>
<text text-anchor="middle" x="382.5" y="-119.5" font-family="Helvetica,sans-Serif" font-size="10.00">disk_ops.H</text>
</a>
</g>
</g>
<!-- Node3&#45;&gt;Node13 -->
<g id="edge15" class="edge">
<title>Node3&#45;&gt;Node13</title>
<path fill="none" stroke="midnightblue" d="M436.47,-162.38C423.09,-152.62 405.94,-140.11 394.61,-131.83"/>
<polygon fill="midnightblue" stroke="midnightblue" points="434.47,-165.26 444.61,-168.32 438.6,-159.6 434.47,-165.26"/>
</g>
<!-- Node3&#45;&gt;Node19 -->
<g id="edge23" class="edge">
<title>Node3&#45;&gt;Node19</title>
<path fill="none" stroke="midnightblue" d="M511.58,-170.84C604.83,-160.42 792.65,-139.42 885.3,-129.06"/>
<polygon fill="midnightblue" stroke="midnightblue" points="511.05,-167.38 501.51,-171.97 511.83,-174.34 511.05,-167.38"/>
</g>
<!-- Node20 -->
<g id="node20" class="node">
<title>Node20</title>
<g id="a_node20"><a xlink:href="fixed__wing__ops_8_h.html" target="_top" xlink:title=" ">
<polygon fill="white" stroke="black" points="0,-56.5 0,-75.5 101,-75.5 101,-56.5 0,-56.5"/>
<text text-anchor="middle" x="50.5" y="-63.5" font-family="Helvetica,sans-Serif" font-size="10.00">fixed_wing_ops.H</text>
</a>
</g>
</g>
<!-- Node3&#45;&gt;Node20 -->
<g id="edge25" class="edge">
<title>Node3&#45;&gt;Node20</title>
<path fill="none" stroke="midnightblue" d="M401.11,-177.66C335.29,-176.57 223.34,-168.73 135.5,-132 103.62,-118.67 73.2,-90.4 58.94,-75.93"/>
<polygon fill="midnightblue" stroke="midnightblue" points="401.23,-181.16 411.27,-177.78 401.31,-174.16 401.23,-181.16"/>
</g>
<!-- Node21 -->
<g id="node21" class="node">
<title>Node21</title>
<g id="a_node21"><a xlink:href="wing__ops_8_h.html" target="_top" xlink:title=" ">
<polygon fill="white" stroke="black" points="145,-112.5 145,-131.5 218,-131.5 218,-112.5 145,-112.5"/>
<text text-anchor="middle" x="181.5" y="-119.5" font-family="Helvetica,sans-Serif" font-size="10.00">wing_ops.H</text>
</a>
</g>
</g>
<!-- Node3&#45;&gt;Node21 -->
<g id="edge27" class="edge">
<title>Node3&#45;&gt;Node21</title>
<path fill="none" stroke="midnightblue" d="M403.11,-166.52C348.7,-155.83 265.74,-139.54 218.27,-130.22"/>
<polygon fill="midnightblue" stroke="midnightblue" points="402.44,-169.95 412.93,-168.44 403.79,-163.08 402.44,-169.95"/>
</g>
<!-- Node22 -->
<g id="node22" class="node">
<title>Node22</title>
<g id="a_node22"><a xlink:href="flat__plate__ops_8_h.html" target="_top" xlink:title=" ">
<polygon fill="white" stroke="black" points="220,-56.5 220,-75.5 315,-75.5 315,-56.5 220,-56.5"/>
<text text-anchor="middle" x="267.5" y="-63.5" font-family="Helvetica,sans-Serif" font-size="10.00">flat_plate_ops.H</text>
</a>
</g>
</g>
<!-- Node3&#45;&gt;Node22 -->
<g id="edge32" class="edge">
<title>Node3&#45;&gt;Node22</title>
<path fill="none" stroke="midnightblue" d="M415.03,-165.43C391.57,-157.87 362.26,-146.66 338.5,-132 312.33,-115.85 287.1,-89.34 274.98,-75.7"/>
<polygon fill="midnightblue" stroke="midnightblue" points="414.11,-168.81 424.7,-168.45 416.2,-162.13 414.11,-168.81"/>
</g>
<!-- Node4&#45;&gt;Node5 -->
<g id="edge4" class="edge">
<title>Node4&#45;&gt;Node5</title>
<path fill="none" stroke="midnightblue" d="M561.08,-109.83C599.03,-99.63 654.31,-84.78 688.8,-75.52"/>
<polygon fill="midnightblue" stroke="midnightblue" points="560.1,-106.47 551.35,-112.44 561.91,-113.23 560.1,-106.47"/>
</g>
<!-- Node6 -->
<g id="node6" class="node">
<title>Node6</title>
<g id="a_node6"><a xlink:href="_actuator_8cpp.html" target="_top" xlink:title=" ">
<polygon fill="white" stroke="black" points="789,-0.5 789,-19.5 866,-19.5 866,-0.5 789,-0.5"/>
<text text-anchor="middle" x="827.5" y="-7.5" font-family="Helvetica,sans-Serif" font-size="10.00">Actuator.cpp</text>
</a>
</g>
</g>
<!-- Node5&#45;&gt;Node6 -->
<g id="edge5" class="edge">
<title>Node5&#45;&gt;Node6</title>
<path fill="none" stroke="midnightblue" d="M746.8,-51.73C766.61,-41.73 793.21,-28.31 810.35,-19.65"/>
<polygon fill="midnightblue" stroke="midnightblue" points="745.04,-48.69 737.69,-56.32 748.2,-54.94 745.04,-48.69"/>
</g>
<!-- Node7 -->
<g id="node7" class="node">
<title>Node7</title>
<g id="a_node7"><a xlink:href="_actuator_disk_8cpp.html" target="_top" xlink:title=" ">
<polygon fill="white" stroke="black" points="670.5,-0.5 670.5,-19.5 770.5,-19.5 770.5,-0.5 670.5,-0.5"/>
<text text-anchor="middle" x="720.5" y="-7.5" font-family="Helvetica,sans-Serif" font-size="10.00">ActuatorDisk.cpp</text>
</a>
</g>
</g>
<!-- Node5&#45;&gt;Node7 -->
<g id="edge6" class="edge">
<title>Node5&#45;&gt;Node7</title>
<path fill="none" stroke="midnightblue" d="M720.5,-45.8C720.5,-36.91 720.5,-26.78 720.5,-19.75"/>
<polygon fill="midnightblue" stroke="midnightblue" points="717,-46.08 720.5,-56.08 724,-46.08 717,-46.08"/>
</g>
<!-- Node8 -->
<g id="node8" class="node">
<title>Node8</title>
<g id="a_node8"><a xlink:href="_turbine_fast_8cpp.html" target="_top" xlink:title=" ">
<polygon fill="white" stroke="black" points="889.5,-0.5 889.5,-19.5 981.5,-19.5 981.5,-0.5 889.5,-0.5"/>
<text text-anchor="middle" x="935.5" y="-7.5" font-family="Helvetica,sans-Serif" font-size="10.00">TurbineFast.cpp</text>
</a>
</g>
</g>
<!-- Node5&#45;&gt;Node8 -->
<g id="edge7" class="edge">
<title>Node5&#45;&gt;Node8</title>
<path fill="none" stroke="midnightblue" d="M764.46,-53.96C805.07,-43.76 864.54,-28.82 901.59,-19.52"/>
<polygon fill="midnightblue" stroke="midnightblue" points="763.41,-50.61 754.57,-56.44 765.12,-57.4 763.41,-50.61"/>
</g>
<!-- Node9 -->
<g id="node9" class="node">
<title>Node9</title>
<g id="a_node9"><a xlink:href="_fixed_wing_8cpp.html" target="_top" xlink:title=" ">
<polygon fill="white" stroke="black" points="339,-0.5 339,-19.5 426,-19.5 426,-0.5 339,-0.5"/>
<text text-anchor="middle" x="382.5" y="-7.5" font-family="Helvetica,sans-Serif" font-size="10.00">FixedWing.cpp</text>
</a>
</g>
</g>
<!-- Node5&#45;&gt;Node9 -->
<g id="edge8" class="edge">
<title>Node5&#45;&gt;Node9</title>
<path fill="none" stroke="midnightblue" d="M661.19,-55.72C590.84,-44.69 477.79,-26.93 435.5,-20 432.46,-19.5 429.32,-18.98 426.17,-18.46"/>
<polygon fill="midnightblue" stroke="midnightblue" points="660.82,-59.2 671.25,-57.29 661.91,-52.29 660.82,-59.2"/>
</g>
<!-- Node10 -->
<g id="node10" class="node">
<title>Node10</title>
<g id="a_node10"><a xlink:href="_flat_plate_8cpp.html" target="_top" xlink:title=" ">
<polygon fill="white" stroke="black" points="572.5,-0.5 572.5,-19.5 652.5,-19.5 652.5,-0.5 572.5,-0.5"/>
<text text-anchor="middle" x="612.5" y="-7.5" font-family="Helvetica,sans-Serif" font-size="10.00">FlatPlate.cpp</text>
</a>
</g>
</g>
<!-- Node5&#45;&gt;Node10 -->
<g id="edge9" class="edge">
<title>Node5&#45;&gt;Node10</title>
<path fill="none" stroke="midnightblue" d="M693.95,-51.73C673.95,-41.73 647.11,-28.31 629.81,-19.65"/>
<polygon fill="midnightblue" stroke="midnightblue" points="692.64,-54.98 703.15,-56.32 695.77,-48.72 692.64,-54.98"/>
</g>
<!-- Node11&#45;&gt;Node5 -->
<g id="edge12" class="edge">
<title>Node11&#45;&gt;Node5</title>
<path fill="none" stroke="midnightblue" d="M669.81,-106.1C682.41,-96.38 698.43,-84.03 709.05,-75.83"/>
<polygon fill="midnightblue" stroke="midnightblue" points="667.53,-103.44 661.75,-112.32 671.8,-108.99 667.53,-103.44"/>
</g>
<!-- Node12&#45;&gt;Node5 -->
<g id="edge14" class="edge">
<title>Node12&#45;&gt;Node5</title>
<path fill="none" stroke="midnightblue" d="M764.75,-105.54C753.69,-95.91 739.87,-83.87 730.64,-75.83"/>
<polygon fill="midnightblue" stroke="midnightblue" points="762.7,-108.4 772.54,-112.32 767.3,-103.12 762.7,-108.4"/>
</g>
<!-- Node14 -->
<g id="node14" class="node">
<title>Node14</title>
<g id="a_node14"><a xlink:href="uniform__ct__ops_8_h.html" target="_top" xlink:title=" ">
<polygon fill="white" stroke="black" points="333.5,-56.5 333.5,-75.5 435.5,-75.5 435.5,-56.5 333.5,-56.5"/>
<text text-anchor="middle" x="384.5" y="-63.5" font-family="Helvetica,sans-Serif" font-size="10.00">uniform_ct_ops.H</text>
</a>
</g>
</g>
<!-- Node13&#45;&gt;Node14 -->
<g id="edge16" class="edge">
<title>Node13&#45;&gt;Node14</title>
<path fill="none" stroke="midnightblue" d="M383.21,-101.8C383.54,-92.91 383.92,-82.78 384.18,-75.75"/>
<polygon fill="midnightblue" stroke="midnightblue" points="379.7,-101.96 382.83,-112.08 386.7,-102.22 379.7,-101.96"/>
</g>
<!-- Node16 -->
<g id="node16" class="node">
<title>Node16</title>
<g id="a_node16"><a xlink:href="_joukowsky__ops_8_h.html" target="_top" xlink:title=" ">
<polygon fill="white" stroke="black" points="552,-56.5 552,-75.5 653,-75.5 653,-56.5 552,-56.5"/>
<text text-anchor="middle" x="602.5" y="-63.5" font-family="Helvetica,sans-Serif" font-size="10.00">Joukowsky_ops.H</text>
</a>
</g>
</g>
<!-- Node13&#45;&gt;Node16 -->
<g id="edge19" class="edge">
<title>Node13&#45;&gt;Node16</title>
<path fill="none" stroke="midnightblue" d="M427.22,-110.02C468.78,-99.82 529.81,-84.84 567.8,-75.52"/>
<polygon fill="midnightblue" stroke="midnightblue" points="426.24,-106.66 417.36,-112.44 427.91,-113.46 426.24,-106.66"/>
</g>
<!-- Node18 -->
<g id="node18" class="node">
<title>Node18</title>
<g id="a_node18"><a xlink:href="disk__ops_8cpp.html" target="_top" xlink:title=" ">
<polygon fill="white" stroke="black" points="453.5,-56.5 453.5,-75.5 533.5,-75.5 533.5,-56.5 453.5,-56.5"/>
<text text-anchor="middle" x="493.5" y="-63.5" font-family="Helvetica,sans-Serif" font-size="10.00">disk_ops.cpp</text>
</a>
</g>
</g>
<!-- Node13&#45;&gt;Node18 -->
<g id="edge22" class="edge">
<title>Node13&#45;&gt;Node18</title>
<path fill="none" stroke="midnightblue" d="M409.51,-107.86C430.09,-97.85 457.84,-84.35 475.71,-75.65"/>
<polygon fill="midnightblue" stroke="midnightblue" points="407.8,-104.8 400.33,-112.32 410.86,-111.1 407.8,-104.8"/>
</g>
<!-- Node14&#45;&gt;Node7 -->
<g id="edge17" class="edge">
<title>Node14&#45;&gt;Node7</title>
<path fill="none" stroke="midnightblue" d="M445.55,-55.19C510,-44.83 610.38,-28.7 670.36,-19.06"/>
<polygon fill="midnightblue" stroke="midnightblue" points="444.85,-51.76 435.53,-56.8 445.96,-58.67 444.85,-51.76"/>
</g>
<!-- Node15 -->
<g id="node15" class="node">
<title>Node15</title>
<g id="a_node15"><a xlink:href="uniform__ct__ops_8cpp.html" target="_top" xlink:title=" ">
<polygon fill="white" stroke="black" points="208.5,-0.5 208.5,-19.5 320.5,-19.5 320.5,-0.5 208.5,-0.5"/>
<text text-anchor="middle" x="264.5" y="-7.5" font-family="Helvetica,sans-Serif" font-size="10.00">uniform_ct_ops.cpp</text>
</a>
</g>
</g>
<!-- Node14&#45;&gt;Node15 -->
<g id="edge18" class="edge">
<title>Node14&#45;&gt;Node15</title>
<path fill="none" stroke="midnightblue" d="M356.13,-52.23C333.68,-42.13 302.96,-28.31 283.43,-19.52"/>
<polygon fill="midnightblue" stroke="midnightblue" points="354.93,-55.53 365.49,-56.44 357.8,-49.15 354.93,-55.53"/>
</g>
<!-- Node16&#45;&gt;Node7 -->
<g id="edge20" class="edge">
<title>Node16&#45;&gt;Node7</title>
<path fill="none" stroke="midnightblue" d="M630.4,-52.23C652.47,-42.13 682.68,-28.31 701.89,-19.52"/>
<polygon fill="midnightblue" stroke="midnightblue" points="628.83,-49.1 621.2,-56.44 631.75,-55.46 628.83,-49.1"/>
</g>
<!-- Node17 -->
<g id="node17" class="node">
<title>Node17</title>
<g id="a_node17"><a xlink:href="_joukowsky__ops_8cpp.html" target="_top" xlink:title=" ">
<polygon fill="white" stroke="black" points="444.5,-0.5 444.5,-19.5 554.5,-19.5 554.5,-0.5 444.5,-0.5"/>
<text text-anchor="middle" x="499.5" y="-7.5" font-family="Helvetica,sans-Serif" font-size="10.00">Joukowsky_ops.cpp</text>
</a>
</g>
</g>
<!-- Node16&#45;&gt;Node17 -->
<g id="edge21" class="edge">
<title>Node16&#45;&gt;Node17</title>
<path fill="none" stroke="midnightblue" d="M576.92,-51.59C557.88,-41.61 532.44,-28.27 516.01,-19.65"/>
<polygon fill="midnightblue" stroke="midnightblue" points="575.47,-54.78 585.95,-56.32 578.72,-48.58 575.47,-54.78"/>
</g>
<!-- Node19&#45;&gt;Node8 -->
<g id="edge24" class="edge">
<title>Node19&#45;&gt;Node8</title>
<path fill="none" stroke="midnightblue" d="M938.82,-102.35C937.95,-78.25 936.46,-37.31 935.81,-19.59"/>
<polygon fill="midnightblue" stroke="midnightblue" points="935.32,-102.5 939.19,-112.37 942.32,-102.25 935.32,-102.5"/>
</g>
<!-- Node20&#45;&gt;Node9 -->
<g id="edge26" class="edge">
<title>Node20&#45;&gt;Node9</title>
<path fill="none" stroke="midnightblue" d="M111.38,-55.33C167.91,-46.31 254.43,-32.43 329.5,-20 332.54,-19.5 335.67,-18.97 338.83,-18.44"/>
<polygon fill="midnightblue" stroke="midnightblue" points="110.5,-51.93 101.18,-56.96 111.6,-58.84 110.5,-51.93"/>
</g>
<!-- Node21&#45;&gt;Node20 -->
<g id="edge28" class="edge">
<title>Node21&#45;&gt;Node20</title>
<path fill="none" stroke="midnightblue" d="M151.18,-108.5C126.62,-98.38 92.68,-84.39 71.16,-75.52"/>
<polygon fill="midnightblue" stroke="midnightblue" points="150.16,-111.87 160.74,-112.44 152.83,-105.4 150.16,-111.87"/>
</g>
<!-- Node21&#45;&gt;Node22 -->
<g id="edge29" class="edge">
<title>Node21&#45;&gt;Node22</title>
<path fill="none" stroke="midnightblue" d="M203.95,-106.9C219.72,-97 240.31,-84.07 253.72,-75.65"/>
<polygon fill="midnightblue" stroke="midnightblue" points="201.93,-104.04 195.32,-112.32 205.65,-109.97 201.93,-104.04"/>
</g>
<!-- Node23 -->
<g id="node23" class="node">
<title>Node23</title>
<g id="a_node23"><a xlink:href="wing__ops_8cpp.html" target="_top" xlink:title=" ">
<polygon fill="white" stroke="black" points="119,-56.5 119,-75.5 202,-75.5 202,-56.5 119,-56.5"/>
<text text-anchor="middle" x="160.5" y="-63.5" font-family="Helvetica,sans-Serif" font-size="10.00">wing_ops.cpp</text>
</a>
</g>
</g>
<!-- Node21&#45;&gt;Node23 -->
<g id="edge31" class="edge">
<title>Node21&#45;&gt;Node23</title>
<path fill="none" stroke="midnightblue" d="M174.38,-102.69C170.84,-93.59 166.73,-83.01 163.9,-75.75"/>
<polygon fill="midnightblue" stroke="midnightblue" points="171.15,-104.03 178.03,-112.08 177.67,-101.49 171.15,-104.03"/>
</g>
<!-- Node22&#45;&gt;Node10 -->
<g id="edge30" class="edge">
<title>Node22&#45;&gt;Node10</title>
<path fill="none" stroke="midnightblue" d="M325.02,-55.93C432.31,-39.5 460.65,-37.19 563.5,-20 566.4,-19.52 569.39,-19 572.41,-18.47"/>
<polygon fill="midnightblue" stroke="midnightblue" points="324.43,-52.48 315.08,-57.46 325.5,-59.4 324.43,-52.48"/>
</g>
<!-- Node24&#45;&gt;Node7 -->
<g id="edge38" class="edge">
<title>Node24&#45;&gt;Node7</title>
<path fill="none" stroke="midnightblue" d="M808.18,-163.18C826.83,-151.12 847.37,-132.4 838.5,-112 818.73,-66.49 766.42,-34.23 738.56,-19.68"/>
<polygon fill="midnightblue" stroke="midnightblue" points="806.32,-160.21 799.58,-168.39 809.95,-166.2 806.32,-160.21"/>
</g>
<!-- Node24&#45;&gt;Node12 -->
<g id="edge37" class="edge">
<title>Node24&#45;&gt;Node12</title>
<path fill="none" stroke="midnightblue" d="M782.5,-157.8C782.5,-148.91 782.5,-138.78 782.5,-131.75"/>
<polygon fill="midnightblue" stroke="midnightblue" points="779,-158.08 782.5,-168.08 786,-158.08 779,-158.08"/>
</g>
</g>
</svg>
