<?xml version="1.0" encoding="UTF-8" standalone="no"?>
<!DOCTYPE svg PUBLIC "-//W3C//DTD SVG 1.1//EN"
 "http://www.w3.org/Graphics/SVG/1.1/DTD/svg11.dtd">
<!-- Generated by graphviz version 2.43.0 (0)
 -->
<!-- Title: actuator_opsI.H Pages: 1 -->
<svg width="936pt" height="252pt"
 viewBox="0.00 0.00 935.50 252.00" xmlns="http://www.w3.org/2000/svg" xmlns:xlink="http://www.w3.org/1999/xlink">
<g id="graph0" class="graph" transform="scale(1 1) rotate(0) translate(4 248)">
<title>actuator_opsI.H</title>
<polygon fill="white" stroke="transparent" points="-4,4 -4,-248 931.5,-248 931.5,4 -4,4"/>
<!-- Node1 -->
<g id="node1" class="node">
<title>Node1</title>
<g id="a_node1"><a xlink:title=" ">
<polygon fill="#bfbfbf" stroke="black" points="477.5,-224.5 477.5,-243.5 570.5,-243.5 570.5,-224.5 477.5,-224.5"/>
<text text-anchor="middle" x="524" y="-231.5" font-family="Helvetica,sans-Serif" font-size="10.00">actuator_opsI.H</text>
</a>
</g>
</g>
<!-- Node2 -->
<g id="node2" class="node">
<title>Node2</title>
<g id="a_node2"><a xlink:href="actuator__ops_8_h.html" target="_top" xlink:title=" ">
<polygon fill="white" stroke="black" points="479,-168.5 479,-187.5 569,-187.5 569,-168.5 479,-168.5"/>
<text text-anchor="middle" x="524" y="-175.5" font-family="Helvetica,sans-Serif" font-size="10.00">actuator_ops.H</text>
</a>
</g>
</g>
<!-- Node1&#45;&gt;Node2 -->
<g id="edge1" class="edge">
<title>Node1&#45;&gt;Node2</title>
<path fill="none" stroke="midnightblue" d="M524,-213.8C524,-204.91 524,-194.78 524,-187.75"/>
<polygon fill="midnightblue" stroke="midnightblue" points="520.5,-214.08 524,-224.08 527.5,-214.08 520.5,-214.08"/>
</g>
<!-- Node3 -->
<g id="node3" class="node">
<title>Node3</title>
<g id="a_node3"><a xlink:href="_act_src_line_op_8_h.html" target="_top" xlink:title=" ">
<polygon fill="white" stroke="black" points="478,-112.5 478,-131.5 570,-131.5 570,-112.5 478,-112.5"/>
<text text-anchor="middle" x="524" y="-119.5" font-family="Helvetica,sans-Serif" font-size="10.00">ActSrcLineOp.H</text>
</a>
</g>
</g>
<!-- Node2&#45;&gt;Node3 -->
<g id="edge2" class="edge">
<title>Node2&#45;&gt;Node3</title>
<path fill="none" stroke="midnightblue" d="M524,-157.8C524,-148.91 524,-138.78 524,-131.75"/>
<polygon fill="midnightblue" stroke="midnightblue" points="520.5,-158.08 524,-168.08 527.5,-158.08 520.5,-158.08"/>
</g>
<!-- Node4 -->
<g id="node4" class="node">
<title>Node4</title>
<g id="a_node4"><a xlink:href="_actuator_model_8_h.html" target="_top" xlink:title=" ">
<polygon fill="white" stroke="black" points="475,-56.5 475,-75.5 573,-75.5 573,-56.5 475,-56.5"/>
<text text-anchor="middle" x="524" y="-63.5" font-family="Helvetica,sans-Serif" font-size="10.00">ActuatorModel.H</text>
</a>
</g>
</g>
<!-- Node2&#45;&gt;Node4 -->
<g id="edge9" class="edge">
<title>Node2&#45;&gt;Node4</title>
<path fill="none" stroke="midnightblue" d="M498.14,-162.95C486.99,-155.38 475.13,-144.93 469,-132 457.99,-108.76 487.35,-87.08 507.3,-75.58"/>
<polygon fill="midnightblue" stroke="midnightblue" points="496.47,-166.03 506.8,-168.39 500.19,-160.1 496.47,-166.03"/>
</g>
<!-- Node10 -->
<g id="node10" class="node">
<title>Node10</title>
<g id="a_node10"><a xlink:href="_act_src_disk_op___turbine_8_h.html" target="_top" xlink:title=" ">
<polygon fill="white" stroke="black" points="588,-112.5 588,-131.5 722,-131.5 722,-112.5 588,-112.5"/>
<text text-anchor="middle" x="655" y="-119.5" font-family="Helvetica,sans-Serif" font-size="10.00">ActSrcDiskOp_Turbine.H</text>
</a>
</g>
</g>
<!-- Node2&#45;&gt;Node10 -->
<g id="edge10" class="edge">
<title>Node2&#45;&gt;Node10</title>
<path fill="none" stroke="midnightblue" d="M554.32,-164.5C578.88,-154.38 612.82,-140.39 634.34,-131.52"/>
<polygon fill="midnightblue" stroke="midnightblue" points="552.67,-161.4 544.76,-168.44 555.34,-167.87 552.67,-161.4"/>
</g>
<!-- Node11 -->
<g id="node11" class="node">
<title>Node11</title>
<g id="a_node11"><a xlink:href="_act_src_disk_op_8_h.html" target="_top" xlink:title=" ">
<polygon fill="white" stroke="black" points="328.5,-112.5 328.5,-131.5 421.5,-131.5 421.5,-112.5 328.5,-112.5"/>
<text text-anchor="middle" x="375" y="-119.5" font-family="Helvetica,sans-Serif" font-size="10.00">ActSrcDiskOp.H</text>
</a>
</g>
</g>
<!-- Node2&#45;&gt;Node11 -->
<g id="edge12" class="edge">
<title>Node2&#45;&gt;Node11</title>
<path fill="none" stroke="midnightblue" d="M490.63,-164.91C462.62,-154.75 423.3,-140.51 398.5,-131.52"/>
<polygon fill="midnightblue" stroke="midnightblue" points="489.8,-168.33 500.39,-168.44 492.18,-161.75 489.8,-168.33"/>
</g>
<!-- Node12 -->
<g id="node12" class="node">
<title>Node12</title>
<g id="a_node12"><a xlink:href="disk__ops_8_h.html" target="_top" xlink:title=" ">
<polygon fill="white" stroke="black" points="114,-112.5 114,-131.5 184,-131.5 184,-112.5 114,-112.5"/>
<text text-anchor="middle" x="149" y="-119.5" font-family="Helvetica,sans-Serif" font-size="10.00">disk_ops.H</text>
</a>
</g>
</g>
<!-- Node2&#45;&gt;Node12 -->
<g id="edge14" class="edge">
<title>Node2&#45;&gt;Node12</title>
<path fill="none" stroke="midnightblue" d="M468.73,-170.63C402.87,-162.77 289.6,-148.43 193,-132 190.08,-131.5 187.06,-130.96 184.02,-130.38"/>
<polygon fill="midnightblue" stroke="midnightblue" points="468.54,-174.13 478.88,-171.83 469.37,-167.18 468.54,-174.13"/>
</g>
<!-- Node18 -->
<g id="node18" class="node">
<title>Node18</title>
<g id="a_node18"><a xlink:href="turbine__fast__ops_8_h.html" target="_top" xlink:title=" ">
<polygon fill="white" stroke="black" points="202,-112.5 202,-131.5 310,-131.5 310,-112.5 202,-112.5"/>
<text text-anchor="middle" x="256" y="-119.5" font-family="Helvetica,sans-Serif" font-size="10.00">turbine_fast_ops.H</text>
</a>
</g>
</g>
<!-- Node2&#45;&gt;Node18 -->
<g id="edge22" class="edge">
<title>Node2&#45;&gt;Node18</title>
<path fill="none" stroke="midnightblue" d="M471.44,-166.41C420.79,-156.2 345.13,-140.96 298.27,-131.52"/>
<polygon fill="midnightblue" stroke="midnightblue" points="471.04,-169.9 481.53,-168.44 472.42,-163.04 471.04,-169.9"/>
</g>
<!-- Node19 -->
<g id="node19" class="node">
<title>Node19</title>
<g id="a_node19"><a xlink:href="fixed__wing__ops_8_h.html" target="_top" xlink:title=" ">
<polygon fill="white" stroke="black" points="612.5,-56.5 612.5,-75.5 713.5,-75.5 713.5,-56.5 612.5,-56.5"/>
<text text-anchor="middle" x="663" y="-63.5" font-family="Helvetica,sans-Serif" font-size="10.00">fixed_wing_ops.H</text>
</a>
</g>
</g>
<!-- Node2&#45;&gt;Node19 -->
<g id="edge24" class="edge">
<title>Node2&#45;&gt;Node19</title>
<path fill="none" stroke="midnightblue" d="M579.61,-172.64C634.32,-167.06 712.3,-155.2 731,-132 749.04,-109.62 710.13,-87.29 684.06,-75.52"/>
<polygon fill="midnightblue" stroke="midnightblue" points="578.96,-169.19 569.35,-173.64 579.64,-176.16 578.96,-169.19"/>
</g>
<!-- Node20 -->
<g id="node20" class="node">
<title>Node20</title>
<g id="a_node20"><a xlink:href="wing__ops_8_h.html" target="_top" xlink:title=" ">
<polygon fill="white" stroke="black" points="778.5,-112.5 778.5,-131.5 851.5,-131.5 851.5,-112.5 778.5,-112.5"/>
<text text-anchor="middle" x="815" y="-119.5" font-family="Helvetica,sans-Serif" font-size="10.00">wing_ops.H</text>
</a>
</g>
</g>
<!-- Node2&#45;&gt;Node20 -->
<g id="edge26" class="edge">
<title>Node2&#45;&gt;Node20</title>
<path fill="none" stroke="midnightblue" d="M579.32,-166.73C637.8,-155.88 728.37,-139.08 778.5,-129.77"/>
<polygon fill="midnightblue" stroke="midnightblue" points="578.34,-163.36 569.15,-168.62 579.62,-170.24 578.34,-163.36"/>
</g>
<!-- Node21 -->
<g id="node21" class="node">
<title>Node21</title>
<g id="a_node21"><a xlink:href="flat__plate__ops_8_h.html" target="_top" xlink:title=" ">
<polygon fill="white" stroke="black" points="832.5,-56.5 832.5,-75.5 927.5,-75.5 927.5,-56.5 832.5,-56.5"/>
<text text-anchor="middle" x="880" y="-63.5" font-family="Helvetica,sans-Serif" font-size="10.00">flat_plate_ops.H</text>
</a>
</g>
</g>
<!-- Node2&#45;&gt;Node21 -->
<g id="edge31" class="edge">
<title>Node2&#45;&gt;Node21</title>
<path fill="none" stroke="midnightblue" d="M579.43,-176.72C664.02,-175.13 819.84,-167.35 861,-132 877.59,-117.75 880.1,-89.9 880.24,-75.73"/>
<polygon fill="midnightblue" stroke="midnightblue" points="579.17,-173.22 569.23,-176.88 579.29,-180.22 579.17,-173.22"/>
</g>
<!-- Node3&#45;&gt;Node4 -->
<g id="edge3" class="edge">
<title>Node3&#45;&gt;Node4</title>
<path fill="none" stroke="midnightblue" d="M524,-101.8C524,-92.91 524,-82.78 524,-75.75"/>
<polygon fill="midnightblue" stroke="midnightblue" points="520.5,-102.08 524,-112.08 527.5,-102.08 520.5,-102.08"/>
</g>
<!-- Node5 -->
<g id="node5" class="node">
<title>Node5</title>
<g id="a_node5"><a xlink:href="_actuator_8cpp.html" target="_top" xlink:title=" ">
<polygon fill="white" stroke="black" points="502.5,-0.5 502.5,-19.5 579.5,-19.5 579.5,-0.5 502.5,-0.5"/>
<text text-anchor="middle" x="541" y="-7.5" font-family="Helvetica,sans-Serif" font-size="10.00">Actuator.cpp</text>
</a>
</g>
</g>
<!-- Node4&#45;&gt;Node5 -->
<g id="edge4" class="edge">
<title>Node4&#45;&gt;Node5</title>
<path fill="none" stroke="midnightblue" d="M529.86,-46.4C532.7,-37.36 535.98,-26.94 538.25,-19.75"/>
<polygon fill="midnightblue" stroke="midnightblue" points="526.47,-45.49 526.81,-56.08 533.15,-47.6 526.47,-45.49"/>
</g>
<!-- Node6 -->
<g id="node6" class="node">
<title>Node6</title>
<g id="a_node6"><a xlink:href="_actuator_disk_8cpp.html" target="_top" xlink:title=" ">
<polygon fill="white" stroke="black" points="274,-0.5 274,-19.5 374,-19.5 374,-0.5 274,-0.5"/>
<text text-anchor="middle" x="324" y="-7.5" font-family="Helvetica,sans-Serif" font-size="10.00">ActuatorDisk.cpp</text>
</a>
</g>
</g>
<!-- Node4&#45;&gt;Node6 -->
<g id="edge5" class="edge">
<title>Node4&#45;&gt;Node6</title>
<path fill="none" stroke="midnightblue" d="M482.63,-53.83C444.86,-43.63 389.86,-28.78 355.54,-19.52"/>
<polygon fill="midnightblue" stroke="midnightblue" points="481.74,-57.22 492.31,-56.44 483.57,-50.46 481.74,-57.22"/>
</g>
<!-- Node7 -->
<g id="node7" class="node">
<title>Node7</title>
<g id="a_node7"><a xlink:href="_turbine_fast_8cpp.html" target="_top" xlink:title=" ">
<polygon fill="white" stroke="black" points="392,-0.5 392,-19.5 484,-19.5 484,-0.5 392,-0.5"/>
<text text-anchor="middle" x="438" y="-7.5" font-family="Helvetica,sans-Serif" font-size="10.00">TurbineFast.cpp</text>
</a>
</g>
</g>
<!-- Node4&#45;&gt;Node7 -->
<g id="edge6" class="edge">
<title>Node4&#45;&gt;Node7</title>
<path fill="none" stroke="midnightblue" d="M501.55,-50.9C485.78,-41 465.19,-28.07 451.78,-19.65"/>
<polygon fill="midnightblue" stroke="midnightblue" points="499.85,-53.97 510.18,-56.32 503.57,-48.04 499.85,-53.97"/>
</g>
<!-- Node8 -->
<g id="node8" class="node">
<title>Node8</title>
<g id="a_node8"><a xlink:href="_fixed_wing_8cpp.html" target="_top" xlink:title=" ">
<polygon fill="white" stroke="black" points="603.5,-0.5 603.5,-19.5 690.5,-19.5 690.5,-0.5 603.5,-0.5"/>
<text text-anchor="middle" x="647" y="-7.5" font-family="Helvetica,sans-Serif" font-size="10.00">FixedWing.cpp</text>
</a>
</g>
</g>
<!-- Node4&#45;&gt;Node8 -->
<g id="edge7" class="edge">
<title>Node4&#45;&gt;Node8</title>
<path fill="none" stroke="midnightblue" d="M552.77,-52.37C575.81,-42.26 607.48,-28.35 627.6,-19.52"/>
<polygon fill="midnightblue" stroke="midnightblue" points="551.24,-49.22 543.49,-56.44 554.05,-55.63 551.24,-49.22"/>
</g>
<!-- Node9 -->
<g id="node9" class="node">
<title>Node9</title>
<g id="a_node9"><a xlink:href="_flat_plate_8cpp.html" target="_top" xlink:title=" ">
<polygon fill="white" stroke="black" points="766,-0.5 766,-19.5 846,-19.5 846,-0.5 766,-0.5"/>
<text text-anchor="middle" x="806" y="-7.5" font-family="Helvetica,sans-Serif" font-size="10.00">FlatPlate.cpp</text>
</a>
</g>
</g>
<!-- Node4&#45;&gt;Node9 -->
<g id="edge8" class="edge">
<title>Node4&#45;&gt;Node9</title>
<path fill="none" stroke="midnightblue" d="M578.57,-54.55C633.37,-44.06 716.52,-28.13 765.64,-18.73"/>
<polygon fill="midnightblue" stroke="midnightblue" points="577.85,-51.13 568.68,-56.44 579.16,-58 577.85,-51.13"/>
</g>
<!-- Node10&#45;&gt;Node4 -->
<g id="edge11" class="edge">
<title>Node10&#45;&gt;Node4</title>
<path fill="none" stroke="midnightblue" d="M624.68,-108.5C600.12,-98.38 566.18,-84.39 544.66,-75.52"/>
<polygon fill="midnightblue" stroke="midnightblue" points="623.66,-111.87 634.24,-112.44 626.33,-105.4 623.66,-111.87"/>
</g>
<!-- Node11&#45;&gt;Node4 -->
<g id="edge13" class="edge">
<title>Node11&#45;&gt;Node4</title>
<path fill="none" stroke="midnightblue" d="M408.37,-108.91C436.38,-98.75 475.7,-84.51 500.5,-75.52"/>
<polygon fill="midnightblue" stroke="midnightblue" points="406.82,-105.75 398.61,-112.44 409.2,-112.33 406.82,-105.75"/>
</g>
<!-- Node13 -->
<g id="node13" class="node">
<title>Node13</title>
<g id="a_node13"><a xlink:href="uniform__ct__ops_8_h.html" target="_top" xlink:title=" ">
<polygon fill="white" stroke="black" points="218,-56.5 218,-75.5 320,-75.5 320,-56.5 218,-56.5"/>
<text text-anchor="middle" x="269" y="-63.5" font-family="Helvetica,sans-Serif" font-size="10.00">uniform_ct_ops.H</text>
</a>
</g>
</g>
<!-- Node12&#45;&gt;Node13 -->
<g id="edge15" class="edge">
<title>Node12&#45;&gt;Node13</title>
<path fill="none" stroke="midnightblue" d="M177.37,-108.23C199.82,-98.13 230.54,-84.31 250.07,-75.52"/>
<polygon fill="midnightblue" stroke="midnightblue" points="175.7,-105.15 168.01,-112.44 178.57,-111.53 175.7,-105.15"/>
</g>
<!-- Node15 -->
<g id="node15" class="node">
<title>Node15</title>
<g id="a_node15"><a xlink:href="_joukowsky__ops_8_h.html" target="_top" xlink:title=" ">
<polygon fill="white" stroke="black" points="98.5,-56.5 98.5,-75.5 199.5,-75.5 199.5,-56.5 98.5,-56.5"/>
<text text-anchor="middle" x="149" y="-63.5" font-family="Helvetica,sans-Serif" font-size="10.00">Joukowsky_ops.H</text>
</a>
</g>
</g>
<!-- Node12&#45;&gt;Node15 -->
<g id="edge18" class="edge">
<title>Node12&#45;&gt;Node15</title>
<path fill="none" stroke="midnightblue" d="M149,-101.8C149,-92.91 149,-82.78 149,-75.75"/>
<polygon fill="midnightblue" stroke="midnightblue" points="145.5,-102.08 149,-112.08 152.5,-102.08 145.5,-102.08"/>
</g>
<!-- Node17 -->
<g id="node17" class="node">
<title>Node17</title>
<g id="a_node17"><a xlink:href="disk__ops_8cpp.html" target="_top" xlink:title=" ">
<polygon fill="white" stroke="black" points="0,-56.5 0,-75.5 80,-75.5 80,-56.5 0,-56.5"/>
<text text-anchor="middle" x="40" y="-63.5" font-family="Helvetica,sans-Serif" font-size="10.00">disk_ops.cpp</text>
</a>
</g>
</g>
<!-- Node12&#45;&gt;Node17 -->
<g id="edge21" class="edge">
<title>Node12&#45;&gt;Node17</title>
<path fill="none" stroke="midnightblue" d="M122.48,-107.86C102.27,-97.85 75.01,-84.35 57.47,-75.65"/>
<polygon fill="midnightblue" stroke="midnightblue" points="120.97,-111.02 131.49,-112.32 124.08,-104.75 120.97,-111.02"/>
</g>
<!-- Node13&#45;&gt;Node6 -->
<g id="edge16" class="edge">
<title>Node13&#45;&gt;Node6</title>
<path fill="none" stroke="midnightblue" d="M285.29,-49C295.04,-39.43 307.05,-27.64 315.09,-19.75"/>
<polygon fill="midnightblue" stroke="midnightblue" points="282.77,-46.58 278.08,-56.08 287.67,-51.57 282.77,-46.58"/>
</g>
<!-- Node14 -->
<g id="node14" class="node">
<title>Node14</title>
<g id="a_node14"><a xlink:href="uniform__ct__ops_8cpp.html" target="_top" xlink:title=" ">
<polygon fill="white" stroke="black" points="144,-0.5 144,-19.5 256,-19.5 256,-0.5 144,-0.5"/>
<text text-anchor="middle" x="200" y="-7.5" font-family="Helvetica,sans-Serif" font-size="10.00">uniform_ct_ops.cpp</text>
</a>
</g>
</g>
<!-- Node13&#45;&gt;Node14 -->
<g id="edge17" class="edge">
<title>Node13&#45;&gt;Node14</title>
<path fill="none" stroke="midnightblue" d="M249.96,-50.1C237.54,-40.38 221.76,-28.03 211.29,-19.83"/>
<polygon fill="midnightblue" stroke="midnightblue" points="247.88,-52.92 257.91,-56.32 252.2,-47.4 247.88,-52.92"/>
</g>
<!-- Node15&#45;&gt;Node6 -->
<g id="edge19" class="edge">
<title>Node15&#45;&gt;Node6</title>
<path fill="none" stroke="midnightblue" d="M186.47,-53.44C219.47,-43.26 266.76,-28.66 296.4,-19.52"/>
<polygon fill="midnightblue" stroke="midnightblue" points="185.25,-50.15 176.73,-56.44 187.32,-56.84 185.25,-50.15"/>
</g>
<!-- Node16 -->
<g id="node16" class="node">
<title>Node16</title>
<g id="a_node16"><a xlink:href="_joukowsky__ops_8cpp.html" target="_top" xlink:title=" ">
<polygon fill="white" stroke="black" points="16,-0.5 16,-19.5 126,-19.5 126,-0.5 16,-0.5"/>
<text text-anchor="middle" x="71" y="-7.5" font-family="Helvetica,sans-Serif" font-size="10.00">Joukowsky_ops.cpp</text>
</a>
</g>
</g>
<!-- Node15&#45;&gt;Node16 -->
<g id="edge20" class="edge">
<title>Node15&#45;&gt;Node16</title>
<path fill="none" stroke="midnightblue" d="M128.23,-50.62C113.98,-40.76 95.54,-27.99 83.5,-19.65"/>
<polygon fill="midnightblue" stroke="midnightblue" points="126.25,-53.51 136.47,-56.32 130.24,-47.75 126.25,-53.51"/>
</g>
<!-- Node18&#45;&gt;Node7 -->
<g id="edge23" class="edge">
<title>Node18&#45;&gt;Node7</title>
<path fill="none" stroke="midnightblue" d="M279.15,-107.01C317.35,-83.92 392.48,-38.51 423.79,-19.59"/>
<polygon fill="midnightblue" stroke="midnightblue" points="277.03,-104.2 270.28,-112.37 280.65,-110.19 277.03,-104.2"/>
</g>
<!-- Node19&#45;&gt;Node8 -->
<g id="edge25" class="edge">
<title>Node19&#45;&gt;Node8</title>
<path fill="none" stroke="midnightblue" d="M657.49,-46.4C654.81,-37.36 651.72,-26.94 649.59,-19.75"/>
<polygon fill="midnightblue" stroke="midnightblue" points="654.16,-47.49 660.36,-56.08 660.87,-45.5 654.16,-47.49"/>
</g>
<!-- Node20&#45;&gt;Node19 -->
<g id="edge27" class="edge">
<title>Node20&#45;&gt;Node19</title>
<path fill="none" stroke="midnightblue" d="M781.33,-109.04C752.73,-98.88 712.39,-84.55 686.97,-75.52"/>
<polygon fill="midnightblue" stroke="midnightblue" points="780.32,-112.39 790.92,-112.44 782.66,-105.8 780.32,-112.39"/>
</g>
<!-- Node20&#45;&gt;Node21 -->
<g id="edge28" class="edge">
<title>Node20&#45;&gt;Node21</title>
<path fill="none" stroke="midnightblue" d="M833.27,-105.82C844.92,-96.15 859.6,-83.95 869.37,-75.83"/>
<polygon fill="midnightblue" stroke="midnightblue" points="830.9,-103.24 825.44,-112.32 835.37,-108.63 830.9,-103.24"/>
</g>
<!-- Node22 -->
<g id="node22" class="node">
<title>Node22</title>
<g id="a_node22"><a xlink:href="wing__ops_8cpp.html" target="_top" xlink:title=" ">
<polygon fill="white" stroke="black" points="731.5,-56.5 731.5,-75.5 814.5,-75.5 814.5,-56.5 731.5,-56.5"/>
<text text-anchor="middle" x="773" y="-63.5" font-family="Helvetica,sans-Serif" font-size="10.00">wing_ops.cpp</text>
</a>
</g>
</g>
<!-- Node20&#45;&gt;Node22 -->
<g id="edge30" class="edge">
<title>Node20&#45;&gt;Node22</title>
<path fill="none" stroke="midnightblue" d="M801.89,-104.14C794.57,-94.74 785.76,-83.4 779.81,-75.75"/>
<polygon fill="midnightblue" stroke="midnightblue" points="799.16,-106.34 808.06,-112.08 804.69,-102.04 799.16,-106.34"/>
</g>
<!-- Node21&#45;&gt;Node9 -->
<g id="edge29" class="edge">
<title>Node21&#45;&gt;Node9</title>
<path fill="none" stroke="midnightblue" d="M859.97,-50.38C846.59,-40.62 829.44,-28.11 818.11,-19.83"/>
<polygon fill="midnightblue" stroke="midnightblue" points="857.97,-53.26 868.11,-56.32 862.1,-47.6 857.97,-53.26"/>
</g>
</g>
</svg>
