<?xml version="1.0" encoding="UTF-8" standalone="no"?>
<!DOCTYPE svg PUBLIC "-//W3C//DTD SVG 1.1//EN"
 "http://www.w3.org/Graphics/SVG/1.1/DTD/svg11.dtd">
<!-- Generated by graphviz version 2.43.0 (0)
 -->
<!-- Title: disk_types.H Pages: 1 -->
<svg width="723pt" height="364pt"
 viewBox="0.00 0.00 723.36 364.00" xmlns="http://www.w3.org/2000/svg" xmlns:xlink="http://www.w3.org/1999/xlink">
<g id="graph0" class="graph" transform="scale(1 1) rotate(0) translate(4 360)">
<title>disk_types.H</title>
<polygon fill="white" stroke="transparent" points="-4,4 -4,-360 719.36,-360 719.36,4 -4,4"/>
<!-- Node1 -->
<g id="node1" class="node">
<title>Node1</title>
<g id="a_node1"><a xlink:title=" ">
<polygon fill="#bfbfbf" stroke="black" points="493.5,-336.5 493.5,-355.5 573.5,-355.5 573.5,-336.5 493.5,-336.5"/>
<text text-anchor="middle" x="533.5" y="-343.5" font-family="Helvetica,sans-Serif" font-size="10.00">disk_types.H</text>
</a>
</g>
</g>
<!-- Node2 -->
<g id="node2" class="node">
<title>Node2</title>
<g id="a_node2"><a xlink:href="_act_src_disk_op_8_h.html" target="_top" xlink:title=" ">
<polygon fill="white" stroke="black" points="184,-112.5 184,-131.5 277,-131.5 277,-112.5 184,-112.5"/>
<text text-anchor="middle" x="230.5" y="-119.5" font-family="Helvetica,sans-Serif" font-size="10.00">ActSrcDiskOp.H</text>
</a>
</g>
</g>
<!-- Node1&#45;&gt;Node2 -->
<g id="edge1" class="edge">
<title>Node1&#45;&gt;Node2</title>
<path fill="none" stroke="midnightblue" d="M483.15,-337.64C407.71,-323.61 267.68,-285.23 206.5,-188 194.84,-169.47 211.89,-144.43 222.72,-131.51"/>
<polygon fill="midnightblue" stroke="midnightblue" points="482.89,-341.15 493.35,-339.47 484.12,-334.26 482.89,-341.15"/>
</g>
<!-- Node9 -->
<g id="node9" class="node">
<title>Node9</title>
<g id="a_node9"><a xlink:href="_actuator_disk_8_h.html" target="_top" xlink:title=" ">
<polygon fill="white" stroke="black" points="488.5,-280.5 488.5,-299.5 578.5,-299.5 578.5,-280.5 488.5,-280.5"/>
<text text-anchor="middle" x="533.5" y="-287.5" font-family="Helvetica,sans-Serif" font-size="10.00">ActuatorDisk.H</text>
</a>
</g>
</g>
<!-- Node1&#45;&gt;Node9 -->
<g id="edge8" class="edge">
<title>Node1&#45;&gt;Node9</title>
<path fill="none" stroke="midnightblue" d="M533.5,-325.8C533.5,-316.91 533.5,-306.78 533.5,-299.75"/>
<polygon fill="midnightblue" stroke="midnightblue" points="530,-326.08 533.5,-336.08 537,-326.08 530,-326.08"/>
</g>
<!-- Node14 -->
<g id="node14" class="node">
<title>Node14</title>
<g id="a_node14"><a xlink:href="_joukowsky_8_h.html" target="_top" xlink:title=" ">
<polygon fill="white" stroke="black" points="595,-224.5 595,-243.5 672,-243.5 672,-224.5 595,-224.5"/>
<text text-anchor="middle" x="633.5" y="-231.5" font-family="Helvetica,sans-Serif" font-size="10.00">Joukowsky.H</text>
</a>
</g>
</g>
<!-- Node1&#45;&gt;Node14 -->
<g id="edge26" class="edge">
<title>Node1&#45;&gt;Node14</title>
<path fill="none" stroke="midnightblue" d="M553.4,-330.44C564.1,-322.14 577.17,-311.17 587.5,-300 604.58,-281.52 620.62,-256.46 628.47,-243.52"/>
<polygon fill="midnightblue" stroke="midnightblue" points="551.28,-327.66 545.43,-336.49 555.51,-333.24 551.28,-327.66"/>
</g>
<!-- Node3 -->
<g id="node3" class="node">
<title>Node3</title>
<g id="a_node3"><a xlink:href="_actuator_model_8_h.html" target="_top" xlink:title=" ">
<polygon fill="white" stroke="black" points="181.5,-56.5 181.5,-75.5 279.5,-75.5 279.5,-56.5 181.5,-56.5"/>
<text text-anchor="middle" x="230.5" y="-63.5" font-family="Helvetica,sans-Serif" font-size="10.00">ActuatorModel.H</text>
</a>
</g>
</g>
<!-- Node2&#45;&gt;Node3 -->
<g id="edge2" class="edge">
<title>Node2&#45;&gt;Node3</title>
<path fill="none" stroke="midnightblue" d="M230.5,-101.8C230.5,-92.91 230.5,-82.78 230.5,-75.75"/>
<polygon fill="midnightblue" stroke="midnightblue" points="227,-102.08 230.5,-112.08 234,-102.08 227,-102.08"/>
</g>
<!-- Node4 -->
<g id="node4" class="node">
<title>Node4</title>
<g id="a_node4"><a xlink:href="_actuator_8cpp.html" target="_top" xlink:title=" ">
<polygon fill="white" stroke="black" points="0,-0.5 0,-19.5 77,-19.5 77,-0.5 0,-0.5"/>
<text text-anchor="middle" x="38.5" y="-7.5" font-family="Helvetica,sans-Serif" font-size="10.00">Actuator.cpp</text>
</a>
</g>
</g>
<!-- Node3&#45;&gt;Node4 -->
<g id="edge3" class="edge">
<title>Node3&#45;&gt;Node4</title>
<path fill="none" stroke="midnightblue" d="M190.32,-53.7C154.08,-43.51 101.59,-28.74 68.78,-19.52"/>
<polygon fill="midnightblue" stroke="midnightblue" points="189.5,-57.11 200.08,-56.44 191.4,-50.37 189.5,-57.11"/>
</g>
<!-- Node5 -->
<g id="node5" class="node">
<title>Node5</title>
<g id="a_node5"><a xlink:href="_actuator_disk_8cpp.html" target="_top" xlink:title=" ">
<polygon fill="white" stroke="black" points="445.5,-0.5 445.5,-19.5 545.5,-19.5 545.5,-0.5 445.5,-0.5"/>
<text text-anchor="middle" x="495.5" y="-7.5" font-family="Helvetica,sans-Serif" font-size="10.00">ActuatorDisk.cpp</text>
</a>
</g>
</g>
<!-- Node3&#45;&gt;Node5 -->
<g id="edge4" class="edge">
<title>Node3&#45;&gt;Node5</title>
<path fill="none" stroke="midnightblue" d="M282.47,-54.41C332.55,-44.2 407.36,-28.96 453.71,-19.52"/>
<polygon fill="midnightblue" stroke="midnightblue" points="281.59,-51.02 272.49,-56.44 282.99,-57.88 281.59,-51.02"/>
</g>
<!-- Node6 -->
<g id="node6" class="node">
<title>Node6</title>
<g id="a_node6"><a xlink:href="_turbine_fast_8cpp.html" target="_top" xlink:title=" ">
<polygon fill="white" stroke="black" points="95.5,-0.5 95.5,-19.5 187.5,-19.5 187.5,-0.5 95.5,-0.5"/>
<text text-anchor="middle" x="141.5" y="-7.5" font-family="Helvetica,sans-Serif" font-size="10.00">TurbineFast.cpp</text>
</a>
</g>
</g>
<!-- Node3&#45;&gt;Node6 -->
<g id="edge5" class="edge">
<title>Node3&#45;&gt;Node6</title>
<path fill="none" stroke="midnightblue" d="M207.26,-50.9C190.94,-41 169.63,-28.07 155.76,-19.65"/>
<polygon fill="midnightblue" stroke="midnightblue" points="205.84,-54.13 216.2,-56.32 209.47,-48.14 205.84,-54.13"/>
</g>
<!-- Node7 -->
<g id="node7" class="node">
<title>Node7</title>
<g id="a_node7"><a xlink:href="_fixed_wing_8cpp.html" target="_top" xlink:title=" ">
<polygon fill="white" stroke="black" points="206,-0.5 206,-19.5 293,-19.5 293,-0.5 206,-0.5"/>
<text text-anchor="middle" x="249.5" y="-7.5" font-family="Helvetica,sans-Serif" font-size="10.00">FixedWing.cpp</text>
</a>
</g>
</g>
<!-- Node3&#45;&gt;Node7 -->
<g id="edge6" class="edge">
<title>Node3&#45;&gt;Node7</title>
<path fill="none" stroke="midnightblue" d="M237.05,-46.4C240.22,-37.36 243.89,-26.94 246.42,-19.75"/>
<polygon fill="midnightblue" stroke="midnightblue" points="233.65,-45.49 233.64,-56.08 240.26,-47.81 233.65,-45.49"/>
</g>
<!-- Node8 -->
<g id="node8" class="node">
<title>Node8</title>
<g id="a_node8"><a xlink:href="_flat_plate_8cpp.html" target="_top" xlink:title=" ">
<polygon fill="white" stroke="black" points="311.5,-0.5 311.5,-19.5 391.5,-19.5 391.5,-0.5 311.5,-0.5"/>
<text text-anchor="middle" x="351.5" y="-7.5" font-family="Helvetica,sans-Serif" font-size="10.00">FlatPlate.cpp</text>
</a>
</g>
</g>
<!-- Node3&#45;&gt;Node8 -->
<g id="edge7" class="edge">
<title>Node3&#45;&gt;Node8</title>
<path fill="none" stroke="midnightblue" d="M258.81,-52.37C281.47,-42.26 312.63,-28.35 332.42,-19.52"/>
<polygon fill="midnightblue" stroke="midnightblue" points="257.38,-49.17 249.67,-56.44 260.23,-55.56 257.38,-49.17"/>
</g>
<!-- Node10 -->
<g id="node10" class="node">
<title>Node10</title>
<g id="a_node10"><a xlink:href="_uniform_ct_8_h.html" target="_top" xlink:title=" ">
<polygon fill="white" stroke="black" points="346,-224.5 346,-243.5 423,-243.5 423,-224.5 346,-224.5"/>
<text text-anchor="middle" x="384.5" y="-231.5" font-family="Helvetica,sans-Serif" font-size="10.00">UniformCt.H</text>
</a>
</g>
</g>
<!-- Node9&#45;&gt;Node10 -->
<g id="edge9" class="edge">
<title>Node9&#45;&gt;Node10</title>
<path fill="none" stroke="midnightblue" d="M500.13,-276.91C472.12,-266.75 432.8,-252.51 408,-243.52"/>
<polygon fill="midnightblue" stroke="midnightblue" points="499.3,-280.33 509.89,-280.44 501.68,-273.75 499.3,-280.33"/>
</g>
<!-- Node9&#45;&gt;Node14 -->
<g id="edge17" class="edge">
<title>Node9&#45;&gt;Node14</title>
<path fill="none" stroke="midnightblue" d="M558.59,-275.45C577.05,-265.48 601.6,-252.23 617.47,-243.65"/>
<polygon fill="midnightblue" stroke="midnightblue" points="556.7,-272.49 549.57,-280.32 560.03,-278.65 556.7,-272.49"/>
</g>
<!-- Node17 -->
<g id="node17" class="node">
<title>Node17</title>
<g id="a_node17"><a xlink:href="disk__ops_8_h.html" target="_top" xlink:title=" ">
<polygon fill="white" stroke="black" points="498.5,-224.5 498.5,-243.5 568.5,-243.5 568.5,-224.5 498.5,-224.5"/>
<text text-anchor="middle" x="533.5" y="-231.5" font-family="Helvetica,sans-Serif" font-size="10.00">disk_ops.H</text>
</a>
</g>
</g>
<!-- Node9&#45;&gt;Node17 -->
<g id="edge22" class="edge">
<title>Node9&#45;&gt;Node17</title>
<path fill="none" stroke="midnightblue" d="M533.5,-269.8C533.5,-260.91 533.5,-250.78 533.5,-243.75"/>
<polygon fill="midnightblue" stroke="midnightblue" points="530,-270.08 533.5,-280.08 537,-270.08 530,-270.08"/>
</g>
<!-- Node10&#45;&gt;Node5 -->
<g id="edge13" class="edge">
<title>Node10&#45;&gt;Node5</title>
<path fill="none" stroke="midnightblue" d="M374.57,-215.3C370.6,-207.24 366.5,-197.41 364.5,-188 357.49,-154.96 349.6,-142.31 364.5,-112 387.63,-64.97 444.36,-33.66 475.02,-19.57"/>
<polygon fill="midnightblue" stroke="midnightblue" points="371.61,-217.19 379.37,-224.41 377.81,-213.93 371.61,-217.19"/>
</g>
<!-- Node11 -->
<g id="node11" class="node">
<title>Node11</title>
<g id="a_node11"><a xlink:href="disk__spreading_8_h.html" target="_top" xlink:title=" ">
<polygon fill="white" stroke="black" points="216,-168.5 216,-187.5 317,-187.5 317,-168.5 216,-168.5"/>
<text text-anchor="middle" x="266.5" y="-175.5" font-family="Helvetica,sans-Serif" font-size="10.00">disk_spreading.H</text>
</a>
</g>
</g>
<!-- Node10&#45;&gt;Node11 -->
<g id="edge10" class="edge">
<title>Node10&#45;&gt;Node11</title>
<path fill="none" stroke="midnightblue" d="M356.6,-220.23C334.53,-210.13 304.32,-196.31 285.11,-187.52"/>
<polygon fill="midnightblue" stroke="midnightblue" points="355.25,-223.46 365.8,-224.44 358.17,-217.1 355.25,-223.46"/>
</g>
<!-- Node12 -->
<g id="node12" class="node">
<title>Node12</title>
<g id="a_node12"><a xlink:href="uniform__ct__ops_8_h.html" target="_top" xlink:title=" ">
<polygon fill="white" stroke="black" points="373.5,-168.5 373.5,-187.5 475.5,-187.5 475.5,-168.5 373.5,-168.5"/>
<text text-anchor="middle" x="424.5" y="-175.5" font-family="Helvetica,sans-Serif" font-size="10.00">uniform_ct_ops.H</text>
</a>
</g>
</g>
<!-- Node10&#45;&gt;Node12 -->
<g id="edge14" class="edge">
<title>Node10&#45;&gt;Node12</title>
<path fill="none" stroke="midnightblue" d="M397.2,-215.86C404.13,-206.5 412.41,-195.33 418.02,-187.75"/>
<polygon fill="midnightblue" stroke="midnightblue" points="394.25,-213.96 391.11,-224.08 399.87,-218.13 394.25,-213.96"/>
</g>
<!-- Node11&#45;&gt;Node2 -->
<g id="edge11" class="edge">
<title>Node11&#45;&gt;Node2</title>
<path fill="none" stroke="midnightblue" d="M254.88,-159.57C248.68,-150.27 241.33,-139.25 236.33,-131.75"/>
<polygon fill="midnightblue" stroke="midnightblue" points="252.1,-161.7 260.56,-168.08 257.92,-157.82 252.1,-161.7"/>
</g>
<!-- Node11&#45;&gt;Node5 -->
<g id="edge12" class="edge">
<title>Node11&#45;&gt;Node5</title>
<path fill="none" stroke="midnightblue" d="M274.14,-158.81C287.17,-128.58 313.98,-69.96 331.5,-56 363.94,-30.15 410.17,-19.12 445.28,-14.43"/>
<polygon fill="midnightblue" stroke="midnightblue" points="270.84,-157.62 270.15,-168.2 277.28,-160.37 270.84,-157.62"/>
</g>
<!-- Node12&#45;&gt;Node5 -->
<g id="edge15" class="edge">
<title>Node12&#45;&gt;Node5</title>
<path fill="none" stroke="midnightblue" d="M458.27,-163.93C472.07,-156.73 486.62,-146.29 494.5,-132 515.09,-94.65 503.65,-40.45 498.04,-19.61"/>
<polygon fill="midnightblue" stroke="midnightblue" points="456.43,-160.93 448.92,-168.41 459.45,-167.25 456.43,-160.93"/>
</g>
<!-- Node13 -->
<g id="node13" class="node">
<title>Node13</title>
<g id="a_node13"><a xlink:href="uniform__ct__ops_8cpp.html" target="_top" xlink:title=" ">
<polygon fill="white" stroke="black" points="373.5,-112.5 373.5,-131.5 485.5,-131.5 485.5,-112.5 373.5,-112.5"/>
<text text-anchor="middle" x="429.5" y="-119.5" font-family="Helvetica,sans-Serif" font-size="10.00">uniform_ct_ops.cpp</text>
</a>
</g>
</g>
<!-- Node12&#45;&gt;Node13 -->
<g id="edge16" class="edge">
<title>Node12&#45;&gt;Node13</title>
<path fill="none" stroke="midnightblue" d="M426.25,-158.1C427.08,-149.14 428.03,-138.86 428.69,-131.75"/>
<polygon fill="midnightblue" stroke="midnightblue" points="422.76,-157.8 425.33,-168.08 429.73,-158.45 422.76,-157.8"/>
</g>
<!-- Node14&#45;&gt;Node5 -->
<g id="edge18" class="edge">
<title>Node14&#45;&gt;Node5</title>
<path fill="none" stroke="midnightblue" d="M666.56,-220.01C680.27,-212.78 694.75,-202.3 702.5,-188 718.59,-158.3 720.4,-140.65 702.5,-112 668.07,-56.89 593.94,-31.05 544.39,-19.52"/>
<polygon fill="midnightblue" stroke="midnightblue" points="664.76,-216.99 657.29,-224.5 667.81,-223.29 664.76,-216.99"/>
</g>
<!-- Node15 -->
<g id="node15" class="node">
<title>Node15</title>
<g id="a_node15"><a xlink:href="_joukowsky__ops_8_h.html" target="_top" xlink:title=" ">
<polygon fill="white" stroke="black" points="592,-168.5 592,-187.5 693,-187.5 693,-168.5 592,-168.5"/>
<text text-anchor="middle" x="642.5" y="-175.5" font-family="Helvetica,sans-Serif" font-size="10.00">Joukowsky_ops.H</text>
</a>
</g>
</g>
<!-- Node14&#45;&gt;Node15 -->
<g id="edge19" class="edge">
<title>Node14&#45;&gt;Node15</title>
<path fill="none" stroke="midnightblue" d="M636.65,-214.1C638.14,-205.14 639.86,-194.86 641.04,-187.75"/>
<polygon fill="midnightblue" stroke="midnightblue" points="633.18,-213.64 634.99,-224.08 640.08,-214.79 633.18,-213.64"/>
</g>
<!-- Node15&#45;&gt;Node5 -->
<g id="edge20" class="edge">
<title>Node15&#45;&gt;Node5</title>
<path fill="none" stroke="midnightblue" d="M616.88,-163.44C603.3,-155.45 586.91,-144.48 574.5,-132 555.93,-113.32 514.67,-43.86 500.44,-19.51"/>
<polygon fill="midnightblue" stroke="midnightblue" points="615.32,-166.58 625.75,-168.47 618.78,-160.49 615.32,-166.58"/>
</g>
<!-- Node16 -->
<g id="node16" class="node">
<title>Node16</title>
<g id="a_node16"><a xlink:href="_joukowsky__ops_8cpp.html" target="_top" xlink:title=" ">
<polygon fill="white" stroke="black" points="583.5,-112.5 583.5,-131.5 693.5,-131.5 693.5,-112.5 583.5,-112.5"/>
<text text-anchor="middle" x="638.5" y="-119.5" font-family="Helvetica,sans-Serif" font-size="10.00">Joukowsky_ops.cpp</text>
</a>
</g>
</g>
<!-- Node15&#45;&gt;Node16 -->
<g id="edge21" class="edge">
<title>Node15&#45;&gt;Node16</title>
<path fill="none" stroke="midnightblue" d="M641.1,-158.1C640.44,-149.14 639.67,-138.86 639.15,-131.75"/>
<polygon fill="midnightblue" stroke="midnightblue" points="637.61,-158.37 641.84,-168.08 644.59,-157.85 637.61,-158.37"/>
</g>
<!-- Node17&#45;&gt;Node12 -->
<g id="edge23" class="edge">
<title>Node17&#45;&gt;Node12</title>
<path fill="none" stroke="midnightblue" d="M506.98,-219.86C486.77,-209.85 459.51,-196.35 441.97,-187.65"/>
<polygon fill="midnightblue" stroke="midnightblue" points="505.47,-223.02 515.99,-224.32 508.58,-216.75 505.47,-223.02"/>
</g>
<!-- Node17&#45;&gt;Node15 -->
<g id="edge24" class="edge">
<title>Node17&#45;&gt;Node15</title>
<path fill="none" stroke="midnightblue" d="M560.02,-219.86C580.23,-209.85 607.49,-196.35 625.03,-187.65"/>
<polygon fill="midnightblue" stroke="midnightblue" points="558.42,-216.75 551.01,-224.32 561.53,-223.02 558.42,-216.75"/>
</g>
<!-- Node18 -->
<g id="node18" class="node">
<title>Node18</title>
<g id="a_node18"><a xlink:href="disk__ops_8cpp.html" target="_top" xlink:title=" ">
<polygon fill="white" stroke="black" points="493.5,-168.5 493.5,-187.5 573.5,-187.5 573.5,-168.5 493.5,-168.5"/>
<text text-anchor="middle" x="533.5" y="-175.5" font-family="Helvetica,sans-Serif" font-size="10.00">disk_ops.cpp</text>
</a>
</g>
</g>
<!-- Node17&#45;&gt;Node18 -->
<g id="edge25" class="edge">
<title>Node17&#45;&gt;Node18</title>
<path fill="none" stroke="midnightblue" d="M533.5,-213.8C533.5,-204.91 533.5,-194.78 533.5,-187.75"/>
<polygon fill="midnightblue" stroke="midnightblue" points="530,-214.08 533.5,-224.08 537,-214.08 530,-214.08"/>
</g>
</g>
</svg>
