<?xml version="1.0" encoding="UTF-8" standalone="no"?>
<!DOCTYPE svg PUBLIC "-//W3C//DTD SVG 1.1//EN"
 "http://www.w3.org/Graphics/SVG/1.1/DTD/svg11.dtd">
<!-- Generated by graphviz version 2.43.0 (0)
 -->
<!-- Title: linear_interpolation.H Pages: 1 -->
<svg width="716pt" height="196pt"
 viewBox="0.00 0.00 715.50 196.00" xmlns="http://www.w3.org/2000/svg" xmlns:xlink="http://www.w3.org/1999/xlink">
<g id="graph0" class="graph" transform="scale(1 1) rotate(0) translate(4 192)">
<title>linear_interpolation.H</title>
<polygon fill="white" stroke="transparent" points="-4,4 -4,-192 711.5,-192 711.5,4 -4,4"/>
<!-- Node1 -->
<g id="node1" class="node">
<title>Node1</title>
<g id="a_node1"><a xlink:title=" ">
<polygon fill="#bfbfbf" stroke="black" points="331,-168.5 331,-187.5 453,-187.5 453,-168.5 331,-168.5"/>
<text text-anchor="middle" x="392" y="-175.5" font-family="Helvetica,sans-Serif" font-size="10.00">linear_interpolation.H</text>
</a>
</g>
</g>
<!-- Node2 -->
<g id="node2" class="node">
<title>Node2</title>
<g id="a_node2"><a xlink:href="_d_t_u_spinner_sampler_8cpp.html" target="_top" xlink:title=" ">
<polygon fill="white" stroke="black" points="0,-112.5 0,-131.5 134,-131.5 134,-112.5 0,-112.5"/>
<text text-anchor="middle" x="67" y="-119.5" font-family="Helvetica,sans-Serif" font-size="10.00">DTUSpinnerSampler.cpp</text>
</a>
</g>
</g>
<!-- Node1&#45;&gt;Node2 -->
<g id="edge1" class="edge">
<title>Node1&#45;&gt;Node2</title>
<path fill="none" stroke="midnightblue" d="M330.56,-166.79C269.14,-156.59 175.8,-141.08 118.26,-131.52"/>
<polygon fill="midnightblue" stroke="midnightblue" points="330.06,-170.26 340.5,-168.44 331.21,-163.35 330.06,-170.26"/>
</g>
<!-- Node3 -->
<g id="node3" class="node">
<title>Node3</title>
<g id="a_node3"><a xlink:href="_lidar_sampler_8cpp.html" target="_top" xlink:title=" ">
<polygon fill="white" stroke="black" points="152.5,-112.5 152.5,-131.5 253.5,-131.5 253.5,-112.5 152.5,-112.5"/>
<text text-anchor="middle" x="203" y="-119.5" font-family="Helvetica,sans-Serif" font-size="10.00">LidarSampler.cpp</text>
</a>
</g>
</g>
<!-- Node1&#45;&gt;Node3 -->
<g id="edge2" class="edge">
<title>Node1&#45;&gt;Node3</title>
<path fill="none" stroke="midnightblue" d="M351.99,-165.57C316.33,-155.38 264.96,-140.7 232.81,-131.52"/>
<polygon fill="midnightblue" stroke="midnightblue" points="351.48,-169.06 362.05,-168.44 353.4,-162.33 351.48,-169.06"/>
</g>
<!-- Node4 -->
<g id="node4" class="node">
<title>Node4</title>
<g id="a_node4"><a xlink:href="_airfoil_table_8cpp.html" target="_top" xlink:title=" ">
<polygon fill="white" stroke="black" points="272,-112.5 272,-131.5 364,-131.5 364,-112.5 272,-112.5"/>
<text text-anchor="middle" x="318" y="-119.5" font-family="Helvetica,sans-Serif" font-size="10.00">AirfoilTable.cpp</text>
</a>
</g>
</g>
<!-- Node1&#45;&gt;Node4 -->
<g id="edge3" class="edge">
<title>Node1&#45;&gt;Node4</title>
<path fill="none" stroke="midnightblue" d="M371.97,-162.38C358.59,-152.62 341.44,-140.11 330.11,-131.83"/>
<polygon fill="midnightblue" stroke="midnightblue" points="369.97,-165.26 380.11,-168.32 374.1,-159.6 369.97,-165.26"/>
</g>
<!-- Node5 -->
<g id="node5" class="node">
<title>Node5</title>
<g id="a_node5"><a xlink:href="disk__ops_8_h.html" target="_top" xlink:title=" ">
<polygon fill="white" stroke="black" points="420,-112.5 420,-131.5 490,-131.5 490,-112.5 420,-112.5"/>
<text text-anchor="middle" x="455" y="-119.5" font-family="Helvetica,sans-Serif" font-size="10.00">disk_ops.H</text>
</a>
</g>
</g>
<!-- Node1&#45;&gt;Node5 -->
<g id="edge4" class="edge">
<title>Node1&#45;&gt;Node5</title>
<path fill="none" stroke="midnightblue" d="M410.04,-161.54C421.27,-151.91 435.32,-139.87 444.69,-131.83"/>
<polygon fill="midnightblue" stroke="midnightblue" points="407.44,-159.16 402.12,-168.32 411.99,-164.47 407.44,-159.16"/>
</g>
<!-- Node6 -->
<g id="node6" class="node">
<title>Node6</title>
<g id="a_node6"><a xlink:href="uniform__ct__ops_8_h.html" target="_top" xlink:title=" ">
<polygon fill="white" stroke="black" points="283,-56.5 283,-75.5 385,-75.5 385,-56.5 283,-56.5"/>
<text text-anchor="middle" x="334" y="-63.5" font-family="Helvetica,sans-Serif" font-size="10.00">uniform_ct_ops.H</text>
</a>
</g>
</g>
<!-- Node1&#45;&gt;Node6 -->
<g id="edge12" class="edge">
<title>Node1&#45;&gt;Node6</title>
<path fill="none" stroke="midnightblue" d="M388.72,-158.14C385.87,-144.7 380.92,-126.52 373,-112 365.28,-97.84 352.49,-84.23 343.67,-75.75"/>
<polygon fill="midnightblue" stroke="midnightblue" points="385.32,-158.97 390.65,-168.13 392.19,-157.65 385.32,-158.97"/>
</g>
<!-- Node9 -->
<g id="node9" class="node">
<title>Node9</title>
<g id="a_node9"><a xlink:href="_joukowsky__ops_8_h.html" target="_top" xlink:title=" ">
<polygon fill="white" stroke="black" points="501.5,-56.5 501.5,-75.5 602.5,-75.5 602.5,-56.5 501.5,-56.5"/>
<text text-anchor="middle" x="552" y="-63.5" font-family="Helvetica,sans-Serif" font-size="10.00">Joukowsky_ops.H</text>
</a>
</g>
</g>
<!-- Node1&#45;&gt;Node9 -->
<g id="edge13" class="edge">
<title>Node1&#45;&gt;Node9</title>
<path fill="none" stroke="midnightblue" d="M432.78,-165.13C453.85,-157.75 479.22,-146.8 499,-132 520.45,-115.95 538.45,-89.39 546.87,-75.72"/>
<polygon fill="midnightblue" stroke="midnightblue" points="431.49,-161.87 423.13,-168.38 433.72,-168.51 431.49,-161.87"/>
</g>
<!-- Node12 -->
<g id="node12" class="node">
<title>Node12</title>
<g id="a_node12"><a xlink:href="fixed__wing__ops_8_h.html" target="_top" xlink:title=" ">
<polygon fill="white" stroke="black" points="597.5,-112.5 597.5,-131.5 698.5,-131.5 698.5,-112.5 597.5,-112.5"/>
<text text-anchor="middle" x="648" y="-119.5" font-family="Helvetica,sans-Serif" font-size="10.00">fixed_wing_ops.H</text>
</a>
</g>
</g>
<!-- Node1&#45;&gt;Node12 -->
<g id="edge14" class="edge">
<title>Node1&#45;&gt;Node12</title>
<path fill="none" stroke="midnightblue" d="M442.51,-166.35C490.89,-156.14 562.95,-140.94 607.63,-131.52"/>
<polygon fill="midnightblue" stroke="midnightblue" points="441.63,-162.95 432.56,-168.44 443.07,-169.8 441.63,-162.95"/>
</g>
<!-- Node5&#45;&gt;Node6 -->
<g id="edge5" class="edge">
<title>Node5&#45;&gt;Node6</title>
<path fill="none" stroke="midnightblue" d="M426.69,-108.37C404.03,-98.26 372.87,-84.35 353.08,-75.52"/>
<polygon fill="midnightblue" stroke="midnightblue" points="425.27,-111.56 435.83,-112.44 428.12,-105.17 425.27,-111.56"/>
</g>
<!-- Node5&#45;&gt;Node9 -->
<g id="edge8" class="edge">
<title>Node5&#45;&gt;Node9</title>
<path fill="none" stroke="midnightblue" d="M479.34,-107.45C497.24,-97.48 521.05,-84.23 536.45,-75.65"/>
<polygon fill="midnightblue" stroke="midnightblue" points="477.62,-104.4 470.58,-112.32 481.02,-110.52 477.62,-104.4"/>
</g>
<!-- Node11 -->
<g id="node11" class="node">
<title>Node11</title>
<g id="a_node11"><a xlink:href="disk__ops_8cpp.html" target="_top" xlink:title=" ">
<polygon fill="white" stroke="black" points="403,-56.5 403,-75.5 483,-75.5 483,-56.5 403,-56.5"/>
<text text-anchor="middle" x="443" y="-63.5" font-family="Helvetica,sans-Serif" font-size="10.00">disk_ops.cpp</text>
</a>
</g>
</g>
<!-- Node5&#45;&gt;Node11 -->
<g id="edge11" class="edge">
<title>Node5&#45;&gt;Node11</title>
<path fill="none" stroke="midnightblue" d="M450.8,-102.1C448.81,-93.14 446.52,-82.86 444.94,-75.75"/>
<polygon fill="midnightblue" stroke="midnightblue" points="447.43,-103.08 453.02,-112.08 454.27,-101.56 447.43,-103.08"/>
</g>
<!-- Node7 -->
<g id="node7" class="node">
<title>Node7</title>
<g id="a_node7"><a xlink:href="_actuator_disk_8cpp.html" target="_top" xlink:title=" ">
<polygon fill="white" stroke="black" points="394,-0.5 394,-19.5 494,-19.5 494,-0.5 394,-0.5"/>
<text text-anchor="middle" x="444" y="-7.5" font-family="Helvetica,sans-Serif" font-size="10.00">ActuatorDisk.cpp</text>
</a>
</g>
</g>
<!-- Node6&#45;&gt;Node7 -->
<g id="edge6" class="edge">
<title>Node6&#45;&gt;Node7</title>
<path fill="none" stroke="midnightblue" d="M360.76,-51.86C381.16,-41.85 408.67,-28.35 426.37,-19.65"/>
<polygon fill="midnightblue" stroke="midnightblue" points="359.11,-48.78 351.67,-56.32 362.19,-55.06 359.11,-48.78"/>
</g>
<!-- Node8 -->
<g id="node8" class="node">
<title>Node8</title>
<g id="a_node8"><a xlink:href="uniform__ct__ops_8cpp.html" target="_top" xlink:title=" ">
<polygon fill="white" stroke="black" points="264,-0.5 264,-19.5 376,-19.5 376,-0.5 264,-0.5"/>
<text text-anchor="middle" x="320" y="-7.5" font-family="Helvetica,sans-Serif" font-size="10.00">uniform_ct_ops.cpp</text>
</a>
</g>
</g>
<!-- Node6&#45;&gt;Node8 -->
<g id="edge7" class="edge">
<title>Node6&#45;&gt;Node8</title>
<path fill="none" stroke="midnightblue" d="M329.18,-46.4C326.83,-37.36 324.13,-26.94 322.27,-19.75"/>
<polygon fill="midnightblue" stroke="midnightblue" points="325.79,-47.28 331.69,-56.08 332.57,-45.52 325.79,-47.28"/>
</g>
<!-- Node9&#45;&gt;Node7 -->
<g id="edge9" class="edge">
<title>Node9&#45;&gt;Node7</title>
<path fill="none" stroke="midnightblue" d="M525.45,-51.73C505.45,-41.73 478.61,-28.31 461.31,-19.65"/>
<polygon fill="midnightblue" stroke="midnightblue" points="524.14,-54.98 534.65,-56.32 527.27,-48.72 524.14,-54.98"/>
</g>
<!-- Node10 -->
<g id="node10" class="node">
<title>Node10</title>
<g id="a_node10"><a xlink:href="_joukowsky__ops_8cpp.html" target="_top" xlink:title=" ">
<polygon fill="white" stroke="black" points="512,-0.5 512,-19.5 622,-19.5 622,-0.5 512,-0.5"/>
<text text-anchor="middle" x="567" y="-7.5" font-family="Helvetica,sans-Serif" font-size="10.00">Joukowsky_ops.cpp</text>
</a>
</g>
</g>
<!-- Node9&#45;&gt;Node10 -->
<g id="edge10" class="edge">
<title>Node9&#45;&gt;Node10</title>
<path fill="none" stroke="midnightblue" d="M557.17,-46.4C559.68,-37.36 562.57,-26.94 564.57,-19.75"/>
<polygon fill="midnightblue" stroke="midnightblue" points="553.78,-45.51 554.48,-56.08 560.53,-47.38 553.78,-45.51"/>
</g>
<!-- Node13 -->
<g id="node13" class="node">
<title>Node13</title>
<g id="a_node13"><a xlink:href="_fixed_wing_8cpp.html" target="_top" xlink:title=" ">
<polygon fill="white" stroke="black" points="620.5,-56.5 620.5,-75.5 707.5,-75.5 707.5,-56.5 620.5,-56.5"/>
<text text-anchor="middle" x="664" y="-63.5" font-family="Helvetica,sans-Serif" font-size="10.00">FixedWing.cpp</text>
</a>
</g>
</g>
<!-- Node12&#45;&gt;Node13 -->
<g id="edge15" class="edge">
<title>Node12&#45;&gt;Node13</title>
<path fill="none" stroke="midnightblue" d="M653.51,-102.4C656.19,-93.36 659.28,-82.94 661.41,-75.75"/>
<polygon fill="midnightblue" stroke="midnightblue" points="650.13,-101.5 650.64,-112.08 656.84,-103.49 650.13,-101.5"/>
</g>
</g>
</svg>
